<svg width="270" height="111" viewBox="0 0 270 111" fill="none" xmlns="http://www.w3.org/2000/svg">
<path d="M118.218 1.85118C134.721 5.18514 183.993 -3.64809 199.614 1.85118C215.094 7.33103 258.363 17.2637 265.745 31.0635C272.986 44.844 270.477 63.7889 262.06 77.9947C253.563 92.2609 239.3 101.808 225.408 108.19C211.597 114.512 153.589 108.19 134.876 108.19C113.128 108.19 105.523 109.487 86.3218 105.188C72.2012 102.026 16.8536 117.491 10.3831 99.2443C3.85155 80.9175 -2.29631 62.4289 0.846955 45.1426C4.05125 27.9362 16.405 11.9126 32.2609 5.94211C48.1169 -0.0283465 101.696 -1.34259 118.218 1.85118Z" fill="#808e746b"/>
</svg>
