<svg width="270" height="121" viewBox="0 0 270 121" fill="none" xmlns="http://www.w3.org/2000/svg">
<path d="M230.677 10.7558C244.561 17.6769 257.934 28.3094 263.345 42.1517C268.653 55.8937 273.145 55.6701 267.122 70.7161C261.099 85.762 251.503 98.9022 238.844 107.93C226.287 117.058 86.251 121.872 71.3462 120.869C56.4414 119.766 42.2512 112.845 29.6944 103.717C17.1376 94.589 6.11215 83.455 3.15161 70.7161C0.088974 57.8768 -2.05503 60.5078 3.15145 46.4649C8.25583 32.3217 13.5644 18.68 23.6711 10.5552C33.7778 2.33003 48.6826 -0.277934 63.3832 0.0229854C78.0839 0.323905 216.793 3.73432 230.677 10.7558Z" fill="#808e7494"/>
</svg>
