<svg width="212" height="105" viewBox="0 0 212 105" fill="none" xmlns="http://www.w3.org/2000/svg">
<path d="M165.229 6.57635C182.474 12.1474 194.971 23.3627 203.093 35.9709C211.341 48.5057 215.09 62.4332 208.967 74.6749C202.843 86.9898 186.723 97.6187 167.478 102.163C148.234 106.635 125.99 105.022 106.495 102.75C87.0007 100.551 70.1304 97.7653 55.6344 92.4142C41.0135 86.9898 28.7669 78.9997 17.8949 68.5907C7.02297 58.1084 -2.34942 45.2803 0.524782 33.0387C3.39898 20.7238 18.3948 9.14195 37.5145 3.93744C56.7591 -1.26707 80.2525 -0.0209208 102.996 0.565503C125.865 1.07862 147.859 1.00532 165.229 6.57635Z" fill="#E2BCAC"/>
</svg>
