<svg width="275" height="114" viewBox="0 0 275 114" fill="none" xmlns="http://www.w3.org/2000/svg">
<path d="M236.268 2.79478C252.347 9.74186 266.468 22.1411 272.549 37.0026C278.527 51.7761 269.173 62.837 260 75.5C250.827 88.0751 241.549 94.7996 226.5 100.779C211.348 106.671 148.066 113.442 133.842 113.97C119.515 114.498 45.5847 107.99 35.2775 100.779C24.8672 93.5684 18.889 81.9606 11.9832 69.3855C5.07739 56.8104 -2.75608 43.0922 0.954508 32.4517C4.6651 21.7233 19.8167 13.8968 34.0406 6.51005C48.3676 -0.964658 118.072 9.32414 133.842 6.51013C149.612 3.69612 220.189 -4.1523 236.268 2.79478Z" fill="#808e746b"/>
</svg>
