<svg width="270" height="108" viewBox="0 0 270 108" fill="none" xmlns="http://www.w3.org/2000/svg">
<path d="M240.999 6.22634C252.497 12.1357 261.87 21.8206 266.508 33.0648C271.147 44.227 271.05 56.9486 266.895 68.7674C262.74 80.5862 254.43 91.4201 242.931 96.9191C231.432 102.336 151.336 109.149 137.711 107.835C124.087 106.44 45.0373 102.583 34.4082 96.9193C23.8758 91.2562 15.1792 82.4741 8.89841 71.7223C2.52097 60.9705 -1.44078 48.1668 0.491779 35.1169C2.32771 21.9849 10.058 8.6067 22.6196 3.02561C35.1812 -2.55549 119.159 0.891738 134.716 3.02569C150.273 5.15963 229.403 0.399015 240.999 6.22634Z" fill="#748e74"/>
</svg>
