<svg width="236" height="145" viewBox="0 0 236 145" fill="none" xmlns="http://www.w3.org/2000/svg">
<path d="M194.13 52.8636C203.045 76.9798 190.366 118.688 167.508 133.621C144.554 148.64 86.2218 147.439 63.8374 132.42C41.453 117.401 33.9292 76.7225 42.5605 52.8638C46.88 40.9238 100.604 39.8085 128.3 39.6369C155.996 39.3794 190.191 42.2107 194.13 52.8636Z" fill="#D5625A"/>
<g style="mix-blend-mode:multiply" opacity="0.5">
<path d="M167.508 133.621C190.366 118.688 203.045 76.9798 194.129 52.8636C190.981 44.3481 168.5 40.8305 145.459 39.8932C161.33 74.3669 154.038 138.282 121.866 144.287C139.882 144.287 157.899 139.899 167.508 133.621Z" fill="#110A0D" fill-opacity="0.69"/>
</g>
<path fill-rule="evenodd" clip-rule="evenodd" d="M128.846 10.2164C128.222 7.50739 127.563 4.64871 122.447 3.56659C113.01 1.57055 106.612 3.22236 105.717 3.56671C101.13 5.33107 100.207 7.90857 99.3151 10.4009C98.5348 12.5811 97.7778 14.6962 94.6112 16.1449C82.9378 17.6926 72.4198 20.589 64.8144 25.0364C51.7968 32.6486 41.29 42.272 44.9792 42.263C47.7882 42.2562 52.4059 41.0245 58.544 39.3871C69.5361 36.4549 85.4043 32.2219 104.494 31.3939C134.246 30.1892 164.244 32.4224 177.807 33.7905C178.07 33.8171 178.387 33.8524 178.743 33.892C183.992 34.4768 197.667 36.0003 171.625 24.1785C161.886 19.7573 147.722 16.7142 132.535 15.4412C129.822 14.4506 129.345 12.3813 128.846 10.2164Z" fill="#D5625A"/>
<g style="mix-blend-mode:multiply" opacity="0.5">
<path d="M132.59 22.8917C128.729 22.0338 124.869 19.0311 123.491 15.1704C122.343 11.9552 124.129 6.40851 120.15 3.15957C126.156 4.01749 127.901 5.72694 128.729 9.59397C130.016 15.5994 131.685 15.3368 135.285 15.6922C149.423 17.0884 162.477 20.0254 171.625 24.1786C199.431 36.8013 181.956 34.2092 177.807 33.7906C170.707 33.0744 145.426 31.6979 140.74 31.4709C139.882 28.8972 136.451 23.7497 132.59 22.8917Z" fill="#110A0D" fill-opacity="0.69"/>
</g>
<path d="M31.3137 83.861C28.8736 83.3605 26.4335 82.2343 23.9934 80.4824C21.5533 78.7305 19.207 76.6032 16.9546 74.1005C14.7648 71.5979 12.6688 68.8136 10.6666 65.7478C8.72703 62.682 7.03772 59.585 5.59868 56.4566C4.15964 53.3283 3.03343 50.2938 2.22006 47.3531C1.40669 44.4125 1 41.7847 1 39.4697C1 39.1568 1 38.7814 1 38.3435C1.06257 37.9055 1.12513 37.4988 1.1877 37.1234C1.31284 36.6854 1.53182 36.3413 1.84466 36.091C2.15749 35.7782 2.56418 35.6218 3.06471 35.6218C4.62889 35.6218 5.97408 36.1849 7.10029 37.3111C8.2265 38.3747 9.25885 39.8138 10.1974 41.6282C11.1359 43.4427 12.0118 45.5074 12.8252 47.8224C13.6385 50.1374 14.4519 52.4836 15.2653 54.8612C16.1412 57.2387 17.0485 59.585 17.987 61.9C18.9255 64.2149 19.9578 66.2797 21.084 68.0941C22.2728 69.9085 23.618 71.3789 25.1196 72.5051C26.6212 73.5687 28.3418 74.1005 30.2814 74.1005C30.4065 74.1005 30.5629 74.0693 30.7506 74.0067C31.0009 73.9441 31.1886 73.9128 31.3137 73.9128C33.0656 72.3487 34.6298 70.2839 36.0063 67.7187C37.4453 65.0909 38.7592 62.2754 39.948 59.2721C41.1368 56.2689 42.2943 53.1719 43.4205 49.9809C44.5467 46.79 45.7042 43.8181 46.8929 41.0651C48.1443 38.3122 49.4269 35.9033 50.7408 33.8386C52.1173 31.7739 53.6815 30.3349 55.4333 29.5215L59.4689 33.6509C59.9695 34.1515 60.032 35.1838 59.6566 36.748C59.3438 38.2496 58.7494 40.1579 57.8735 42.4729C57.0601 44.7253 56.0277 47.2593 54.7764 50.0748C53.525 52.8277 52.2111 55.7058 50.8347 58.709C49.4582 61.7123 48.0817 64.7155 46.7052 67.7187C45.3288 70.6593 44.0774 73.4436 42.9512 76.0714C41.8876 78.6992 41.0116 81.0455 40.3234 83.1102C39.6352 85.1749 39.291 86.8016 39.291 87.9904C39.291 91.7444 39.8229 95.3733 40.8865 98.8771C42.0127 102.381 43.2015 105.885 44.4528 109.388C45.7042 112.83 46.8617 116.302 47.9253 119.806C48.9889 123.247 49.5208 126.782 49.5208 130.411C49.5208 130.911 49.5208 131.568 49.5208 132.382C49.5208 133.133 49.3956 133.852 49.1454 134.54C48.9577 135.229 48.551 135.76 47.9253 136.136C47.3622 136.511 46.5175 136.542 45.3913 136.23C43.0763 132.851 41.0429 129.034 39.291 124.78C37.5392 120.463 36.0376 115.989 34.7862 111.359C33.5349 106.729 32.5964 102.068 31.9707 97.3755C31.4076 92.6204 31.1886 88.1156 31.3137 83.861Z" fill="#080606"/>
<path d="M60.0633 97.8447C60.0633 97.4693 60.0633 96.8124 60.0633 95.8739C60.1259 94.8728 60.1572 93.8404 60.1572 92.7768C60.1572 91.7132 60.1572 90.7434 60.1572 89.8674C60.2197 88.9289 60.251 88.272 60.251 87.8966C60.689 87.1458 61.1895 86.4262 61.7526 85.738C62.3783 84.9872 63.004 84.4867 63.6296 84.2364C64.3179 83.9236 65.0374 83.861 65.7882 84.0487C66.6016 84.2364 67.4149 84.8621 68.2283 85.9257V87.8966C68.1657 88.2094 68.0406 88.9602 67.8529 90.149C67.6652 91.2752 67.4462 92.5265 67.196 93.903C66.9457 95.2795 66.6954 96.5621 66.4451 97.7509C66.2574 98.8771 66.1636 99.5966 66.1636 99.9094C66.1636 101.098 66.2887 102.6 66.539 104.414C66.7893 106.166 67.1334 108.012 67.5714 109.951C68.0719 111.891 68.6663 113.831 69.3545 115.77C70.1053 117.71 70.9813 119.462 71.9823 121.026C72.9834 122.527 74.0783 123.779 75.2671 124.78C76.5184 125.781 77.9575 126.281 79.5842 126.281C81.5864 126.281 83.3383 125.75 84.8399 124.686C86.404 123.622 87.7492 122.246 88.8754 120.557C90.0016 118.867 90.9089 116.959 91.5971 114.832C92.3479 112.704 92.9423 110.577 93.3803 108.45C93.8182 106.26 94.1311 104.164 94.3188 102.162C94.5065 100.16 94.6003 98.4078 94.6003 96.9062C94.6003 95.4046 94.4752 93.9969 94.2249 92.6829C94.0372 91.3065 93.787 89.9613 93.4741 88.6474C93.1613 87.3335 92.8797 86.0508 92.6295 84.7995C92.4418 83.4856 92.3479 82.1717 92.3479 80.8578C92.3479 79.669 92.7546 78.8243 93.568 78.3238C94.4439 77.8233 95.4137 77.573 96.4773 77.573C97.7912 77.573 98.8549 77.9797 99.6683 78.7931C100.482 79.5439 101.107 80.5137 101.545 81.7024C102.046 82.8912 102.359 84.2677 102.484 85.8319C102.671 87.3335 102.765 88.8351 102.765 90.3367C102.765 91.8383 102.734 93.2773 102.671 94.6538C102.609 95.9677 102.578 97.0314 102.578 97.8447C102.578 99.972 102.421 102.381 102.108 105.071C101.796 107.762 101.232 110.546 100.419 113.424C99.6683 116.239 98.6985 119.024 97.5097 121.777C96.3835 124.53 94.9757 127.001 93.2864 129.191C91.6597 131.318 89.7514 133.039 87.5615 134.353C85.4343 135.667 83.0254 136.323 80.335 136.323C77.5195 136.323 75.0481 135.667 72.9208 134.353C70.7936 132.976 68.9791 131.193 67.4775 129.003C66.0385 126.751 64.8184 124.217 63.8173 121.401C62.8163 118.586 62.0342 115.77 61.4711 112.955C60.9705 110.139 60.5951 107.417 60.3449 104.79C60.1572 102.099 60.0633 99.7843 60.0633 97.8447Z" fill="#080606"/>
<path d="M110.117 83.6302C110.117 81.7254 110.369 80.2397 110.872 79.173C111.439 78.1063 112.603 77.573 114.365 77.573C114.554 77.573 114.9 77.6111 115.403 77.6873C115.97 77.6873 116.316 77.6873 116.442 77.6873C116.882 80.0492 117.323 82.6397 117.763 85.4588C118.267 88.2017 118.833 90.9827 119.462 93.8018C120.092 96.6209 120.784 99.4019 121.539 102.145C122.357 104.888 123.333 107.364 124.465 109.573C125.598 108.126 126.416 106.412 126.92 104.431C127.423 102.45 127.801 100.469 128.052 98.4876C128.304 96.4304 128.524 94.4875 128.713 92.6589C128.965 90.7541 129.437 89.1541 130.129 87.8589C130.821 86.4874 131.828 85.4969 133.15 84.8874C134.534 84.2779 136.422 84.2779 138.814 84.8874C141.457 84.8874 143.565 85.4969 145.138 86.716C146.711 87.8589 148.065 89.3446 149.197 91.1732C150.393 92.9256 151.526 94.8304 152.596 96.8876C153.728 98.8686 155.144 100.659 156.843 102.259C157.221 101.269 157.693 100.05 158.259 98.6019C158.826 97.0781 159.518 95.5161 160.336 93.9161C161.217 92.2399 162.13 90.6018 163.074 89.0017C164.081 87.3255 165.119 85.8398 166.189 84.5445C167.259 83.1731 168.36 82.0683 169.493 81.2302C170.625 80.3159 171.727 79.8588 172.796 79.8588C175.377 79.8588 177.611 80.8492 179.499 82.8302C181.387 84.735 182.991 87.1731 184.313 90.1446C185.697 93.0399 186.83 96.3161 187.711 99.9733C188.592 103.554 189.284 107.021 189.788 110.373C190.291 113.726 190.637 116.812 190.826 119.631C191.078 122.374 191.204 124.355 191.204 125.574C191.204 126.564 191.015 127.326 190.637 127.859C190.26 128.393 189.788 128.812 189.222 129.117C188.655 129.345 188.026 129.498 187.334 129.574C186.704 129.65 186.106 129.688 185.54 129.688C185.414 129.688 185.225 129.688 184.974 129.688C184.722 129.612 184.439 129.536 184.124 129.459C183.872 129.383 183.526 129.269 183.086 129.117L176.95 94.9447C176.95 94.7161 176.698 94.2971 176.195 93.6875C175.691 93.0018 175.314 92.5828 175.062 92.4304C174.873 92.4304 174.716 92.3923 174.59 92.3161C174.464 92.3161 174.37 92.3161 174.307 92.3161C174.244 92.2399 174.181 92.2018 174.118 92.2018C172.796 92.2018 171.538 92.8494 170.342 94.1447C169.209 95.4399 168.14 97.0781 167.133 99.059C166.126 101.04 165.182 103.25 164.301 105.688C163.42 108.126 162.633 110.564 161.941 113.002C161.249 115.364 160.619 117.574 160.053 119.631C159.549 121.612 159.14 123.136 158.826 124.202C158.574 124.355 158.071 124.507 157.315 124.659C156.56 124.736 156.057 124.774 155.805 124.774C154.043 124.774 152.69 124.05 151.746 122.602C150.802 121.078 150.015 119.212 149.386 117.002C148.82 114.793 148.316 112.393 147.876 109.802C147.498 107.135 146.995 104.697 146.365 102.488C145.799 100.278 144.981 98.4495 143.911 97.0019C142.904 95.478 141.457 94.7161 139.569 94.7161C138.877 94.7161 138.216 95.5542 137.586 97.2304C136.957 98.9067 136.391 101.04 135.887 103.631C135.384 106.145 134.912 108.888 134.471 111.859C134.031 114.755 133.653 117.497 133.339 120.088C133.087 122.602 132.898 124.736 132.772 126.488C132.646 128.24 132.583 129.117 132.583 129.117C132.458 129.345 132.206 129.612 131.828 129.917C131.451 130.145 131.042 130.412 130.601 130.717C130.223 131.021 129.814 131.25 129.374 131.402C128.996 131.555 128.713 131.631 128.524 131.631C126.762 131.631 125.063 130.679 123.427 128.774C121.791 126.793 120.28 124.278 118.896 121.231C117.574 118.107 116.347 114.678 115.214 110.945C114.145 107.212 113.232 103.554 112.477 99.9733C111.722 96.3923 111.124 93.1542 110.683 90.2589C110.306 87.3636 110.117 85.1541 110.117 83.6302Z" fill="#080606"/>
<path d="M206.247 130.734C206.377 129.617 206.941 128.409 207.938 127.11C208.935 125.811 210.061 124.622 211.314 123.542C212.66 122.472 214.031 121.595 215.426 120.908C216.914 120.233 218.261 119.966 219.466 120.106C219.651 120.128 220.066 120.601 220.709 121.525C221.456 122.367 221.988 123.043 222.305 123.551C222.457 123.852 222.635 124.345 222.837 125.029C223.142 125.63 223.396 126.273 223.598 126.957C223.893 127.652 224.1 128.29 224.22 128.87C224.351 129.357 224.411 129.647 224.4 129.74C224.194 131.508 223.805 132.831 223.232 133.708C222.671 134.491 221.998 135.026 221.213 135.312C220.439 135.504 219.542 135.541 218.523 135.422C217.596 135.314 216.577 135.195 215.464 135.065C215.094 135.022 214.393 134.987 213.363 134.961C212.343 134.842 211.237 134.666 210.043 134.432C208.952 134.116 208.012 133.723 207.221 133.253C206.441 132.69 206.116 131.851 206.247 130.734ZM203.241 75.6142C203.633 72.2634 204.645 69.221 206.28 66.4871C208.018 63.6709 209.791 60.9532 211.6 58.334C213.502 55.7257 215.27 53.0545 216.905 50.3206C218.643 47.5044 219.707 44.421 220.098 41.0701C220.24 39.8601 219.999 38.6999 219.378 37.5895C218.859 36.3968 218.134 35.3686 217.201 34.5049C216.28 33.5482 215.197 32.7614 213.954 32.1444C212.711 31.5275 211.487 31.1488 210.282 31.0081C208.521 30.8024 206.798 31.073 205.114 31.8198C203.522 32.5775 202.002 33.5321 200.552 34.6837C199.113 35.7422 197.71 36.8992 196.342 38.1547C195.067 39.421 193.819 40.4546 192.598 41.2555C192.391 41.42 191.72 41.5304 190.586 41.5867C189.545 41.6538 188.885 41.6711 188.607 41.6387C189.031 38.0086 189.886 34.7119 191.171 31.7486C192.549 28.796 194.342 26.3164 196.549 24.3098C198.756 22.3032 201.367 20.8626 204.382 19.9881C207.5 19.0313 210.912 18.7694 214.62 19.2023C217.215 19.5053 219.785 20.4187 222.332 21.9426C224.971 23.4773 227.237 25.3929 229.13 27.6895C231.033 29.8931 232.533 32.3326 233.63 35.008C234.727 37.6835 235.117 40.3708 234.802 43.0701C234.411 46.4209 233.589 49.4384 232.336 52.1225C231.187 54.7244 229.868 57.165 228.381 59.4443C226.904 61.6306 225.387 63.7649 223.829 65.8473C222.27 67.9296 220.886 70.1267 219.677 72.4385C218.467 74.7503 217.607 77.2916 217.096 80.0623C216.595 82.7399 216.602 85.9013 217.116 89.5465C216.898 89.8041 216.489 90.0866 215.889 90.394C215.301 90.6083 214.665 90.8172 213.984 91.0206C213.395 91.2349 212.76 91.4438 212.079 91.6473C211.49 91.8616 211.057 91.9525 210.779 91.9201C208.74 91.682 207.178 90.9807 206.092 89.8161C205.018 88.5585 204.197 87.1418 203.629 85.5659C203.165 83.9079 202.944 82.1837 202.965 80.3936C202.986 78.6035 203.078 77.0103 203.241 75.6142Z" fill="#080606"/>
<path d="M31.3137 83.861C28.8736 83.3605 26.4335 82.2343 23.9934 80.4824C21.5533 78.7305 19.207 76.6032 16.9546 74.1005C14.7648 71.5979 12.6688 68.8136 10.6666 65.7478C8.72703 62.682 7.03772 59.585 5.59868 56.4566C4.15964 53.3283 3.03343 50.2938 2.22006 47.3531C1.40669 44.4125 1 41.7847 1 39.4697C1 39.1568 1 38.7814 1 38.3435C1.06257 37.9055 1.12513 37.4988 1.1877 37.1234C1.31284 36.6854 1.53182 36.3413 1.84466 36.091C2.15749 35.7782 2.56418 35.6218 3.06471 35.6218C4.62889 35.6218 5.97408 36.1849 7.10029 37.3111C8.2265 38.3747 9.25885 39.8138 10.1974 41.6282C11.1359 43.4427 12.0118 45.5074 12.8252 47.8224C13.6385 50.1374 14.4519 52.4836 15.2653 54.8612C16.1412 57.2387 17.0485 59.585 17.987 61.9C18.9255 64.2149 19.9578 66.2797 21.084 68.0941C22.2728 69.9085 23.618 71.3789 25.1196 72.5051C26.6212 73.5687 28.3418 74.1005 30.2814 74.1005C30.4065 74.1005 30.5629 74.0693 30.7506 74.0067C31.0009 73.9441 31.1886 73.9128 31.3137 73.9128C33.0656 72.3487 34.6298 70.2839 36.0063 67.7187C37.4453 65.0909 38.7592 62.2754 39.948 59.2721C41.1368 56.2689 42.2943 53.1719 43.4205 49.9809C44.5467 46.79 45.7042 43.8181 46.8929 41.0651C48.1443 38.3122 49.4269 35.9033 50.7408 33.8386C52.1173 31.7739 53.6815 30.3349 55.4333 29.5215L59.4689 33.6509C59.9695 34.1515 60.032 35.1838 59.6566 36.748C59.3438 38.2496 58.7494 40.1579 57.8735 42.4729C57.0601 44.7253 56.0277 47.2593 54.7764 50.0748C53.525 52.8277 52.2111 55.7058 50.8347 58.709C49.4582 61.7123 48.0817 64.7155 46.7052 67.7187C45.3288 70.6593 44.0774 73.4436 42.9512 76.0714C41.8876 78.6992 41.0116 81.0455 40.3234 83.1102C39.6352 85.1749 39.291 86.8016 39.291 87.9904C39.291 91.7444 39.8229 95.3733 40.8865 98.8771C42.0127 102.381 43.2015 105.885 44.4528 109.388C45.7042 112.83 46.8617 116.302 47.9253 119.806C48.9889 123.247 49.5208 126.782 49.5208 130.411C49.5208 130.911 49.5208 131.568 49.5208 132.382C49.5208 133.133 49.3956 133.852 49.1454 134.54C48.9577 135.229 48.551 135.76 47.9253 136.136C47.3622 136.511 46.5175 136.542 45.3913 136.23C43.0763 132.851 41.0429 129.034 39.291 124.78C37.5392 120.463 36.0376 115.989 34.7862 111.359C33.5349 106.729 32.5964 102.068 31.9707 97.3755C31.4076 92.6204 31.1886 88.1156 31.3137 83.861Z" stroke="#080606"/>
<path d="M60.0633 97.8447C60.0633 97.4693 60.0633 96.8124 60.0633 95.8739C60.1259 94.8728 60.1572 93.8404 60.1572 92.7768C60.1572 91.7132 60.1572 90.7434 60.1572 89.8674C60.2197 88.9289 60.251 88.272 60.251 87.8966C60.689 87.1458 61.1895 86.4262 61.7526 85.738C62.3783 84.9872 63.004 84.4867 63.6296 84.2364C64.3179 83.9236 65.0374 83.861 65.7882 84.0487C66.6016 84.2364 67.4149 84.8621 68.2283 85.9257V87.8966C68.1657 88.2094 68.0406 88.9602 67.8529 90.149C67.6652 91.2752 67.4462 92.5265 67.196 93.903C66.9457 95.2795 66.6954 96.5621 66.4451 97.7509C66.2574 98.8771 66.1636 99.5966 66.1636 99.9094C66.1636 101.098 66.2887 102.6 66.539 104.414C66.7893 106.166 67.1334 108.012 67.5714 109.951C68.0719 111.891 68.6663 113.831 69.3545 115.77C70.1053 117.71 70.9813 119.462 71.9823 121.026C72.9834 122.527 74.0783 123.779 75.2671 124.78C76.5184 125.781 77.9575 126.281 79.5842 126.281C81.5864 126.281 83.3383 125.75 84.8399 124.686C86.404 123.622 87.7492 122.246 88.8754 120.557C90.0016 118.867 90.9089 116.959 91.5971 114.832C92.3479 112.704 92.9423 110.577 93.3803 108.45C93.8182 106.26 94.1311 104.164 94.3188 102.162C94.5065 100.16 94.6003 98.4078 94.6003 96.9062C94.6003 95.4046 94.4752 93.9969 94.2249 92.6829C94.0372 91.3065 93.787 89.9613 93.4741 88.6474C93.1613 87.3335 92.8797 86.0508 92.6295 84.7995C92.4418 83.4856 92.3479 82.1717 92.3479 80.8578C92.3479 79.669 92.7546 78.8243 93.568 78.3238C94.4439 77.8233 95.4137 77.573 96.4773 77.573C97.7912 77.573 98.8549 77.9797 99.6683 78.7931C100.482 79.5439 101.107 80.5137 101.545 81.7024C102.046 82.8912 102.359 84.2677 102.484 85.8319C102.671 87.3335 102.765 88.8351 102.765 90.3367C102.765 91.8383 102.734 93.2773 102.671 94.6538C102.609 95.9677 102.578 97.0314 102.578 97.8447C102.578 99.972 102.421 102.381 102.108 105.071C101.796 107.762 101.232 110.546 100.419 113.424C99.6683 116.239 98.6985 119.024 97.5097 121.777C96.3835 124.53 94.9757 127.001 93.2864 129.191C91.6597 131.318 89.7514 133.039 87.5615 134.353C85.4343 135.667 83.0254 136.323 80.335 136.323C77.5195 136.323 75.0481 135.667 72.9208 134.353C70.7936 132.976 68.9791 131.193 67.4775 129.003C66.0385 126.751 64.8184 124.217 63.8173 121.401C62.8163 118.586 62.0342 115.77 61.4711 112.955C60.9705 110.139 60.5951 107.417 60.3449 104.79C60.1572 102.099 60.0633 99.7843 60.0633 97.8447Z" stroke="#080606"/>
<path d="M110.117 83.6302C110.117 81.7254 110.369 80.2397 110.872 79.173C111.439 78.1063 112.603 77.573 114.365 77.573C114.554 77.573 114.9 77.6111 115.403 77.6873C115.97 77.6873 116.316 77.6873 116.442 77.6873C116.882 80.0492 117.323 82.6397 117.763 85.4588C118.267 88.2017 118.833 90.9827 119.462 93.8018C120.092 96.6209 120.784 99.4019 121.539 102.145C122.357 104.888 123.333 107.364 124.465 109.573C125.598 108.126 126.416 106.412 126.92 104.431C127.423 102.45 127.801 100.469 128.052 98.4876C128.304 96.4304 128.524 94.4875 128.713 92.6589C128.965 90.7541 129.437 89.1541 130.129 87.8589C130.821 86.4874 131.828 85.4969 133.15 84.8874C134.534 84.2779 136.422 84.2779 138.814 84.8874C141.457 84.8874 143.565 85.4969 145.138 86.716C146.711 87.8589 148.065 89.3446 149.197 91.1732C150.393 92.9256 151.526 94.8304 152.596 96.8876C153.728 98.8686 155.144 100.659 156.843 102.259C157.221 101.269 157.693 100.05 158.259 98.6019C158.826 97.0781 159.518 95.5161 160.336 93.9161C161.217 92.2399 162.13 90.6018 163.074 89.0017C164.081 87.3255 165.119 85.8398 166.189 84.5445C167.259 83.1731 168.36 82.0683 169.493 81.2302C170.625 80.3159 171.727 79.8588 172.796 79.8588C175.377 79.8588 177.611 80.8492 179.499 82.8302C181.387 84.735 182.991 87.1731 184.313 90.1446C185.697 93.0399 186.83 96.3161 187.711 99.9733C188.592 103.554 189.284 107.021 189.788 110.373C190.291 113.726 190.637 116.812 190.826 119.631C191.078 122.374 191.204 124.355 191.204 125.574C191.204 126.564 191.015 127.326 190.637 127.859C190.26 128.393 189.788 128.812 189.222 129.117C188.655 129.345 188.026 129.498 187.334 129.574C186.704 129.65 186.106 129.688 185.54 129.688C185.414 129.688 185.225 129.688 184.974 129.688C184.722 129.612 184.439 129.536 184.124 129.459C183.872 129.383 183.526 129.269 183.086 129.117L176.95 94.9447C176.95 94.7161 176.698 94.2971 176.195 93.6875C175.691 93.0018 175.314 92.5828 175.062 92.4304C174.873 92.4304 174.716 92.3923 174.59 92.3161C174.464 92.3161 174.37 92.3161 174.307 92.3161C174.244 92.2399 174.181 92.2018 174.118 92.2018C172.796 92.2018 171.538 92.8494 170.342 94.1447C169.209 95.4399 168.14 97.0781 167.133 99.059C166.126 101.04 165.182 103.25 164.301 105.688C163.42 108.126 162.633 110.564 161.941 113.002C161.249 115.364 160.619 117.574 160.053 119.631C159.549 121.612 159.14 123.136 158.826 124.202C158.574 124.355 158.071 124.507 157.315 124.659C156.56 124.736 156.057 124.774 155.805 124.774C154.043 124.774 152.69 124.05 151.746 122.602C150.802 121.078 150.015 119.212 149.386 117.002C148.82 114.793 148.316 112.393 147.876 109.802C147.498 107.135 146.995 104.697 146.365 102.488C145.799 100.278 144.981 98.4495 143.911 97.0019C142.904 95.478 141.457 94.7161 139.569 94.7161C138.877 94.7161 138.216 95.5542 137.586 97.2304C136.957 98.9067 136.391 101.04 135.887 103.631C135.384 106.145 134.912 108.888 134.471 111.859C134.031 114.755 133.653 117.497 133.339 120.088C133.087 122.602 132.898 124.736 132.772 126.488C132.646 128.24 132.583 129.117 132.583 129.117C132.458 129.345 132.206 129.612 131.828 129.917C131.451 130.145 131.042 130.412 130.601 130.717C130.223 131.021 129.814 131.25 129.374 131.402C128.996 131.555 128.713 131.631 128.524 131.631C126.762 131.631 125.063 130.679 123.427 128.774C121.791 126.793 120.28 124.278 118.896 121.231C117.574 118.107 116.347 114.678 115.214 110.945C114.145 107.212 113.232 103.554 112.477 99.9733C111.722 96.3923 111.124 93.1542 110.683 90.2589C110.306 87.3636 110.117 85.1541 110.117 83.6302Z" stroke="#080606"/>
<path d="M206.247 130.734C206.377 129.617 206.941 128.409 207.938 127.11C208.935 125.811 210.061 124.622 211.314 123.542C212.66 122.472 214.031 121.595 215.426 120.908C216.914 120.233 218.261 119.966 219.466 120.106C219.651 120.128 220.066 120.601 220.709 121.525C221.456 122.367 221.988 123.043 222.305 123.551C222.457 123.852 222.635 124.345 222.837 125.029C223.142 125.63 223.396 126.273 223.598 126.957C223.893 127.652 224.1 128.29 224.22 128.87C224.351 129.357 224.411 129.647 224.4 129.74C224.194 131.508 223.805 132.831 223.232 133.708C222.671 134.491 221.998 135.026 221.213 135.312C220.439 135.504 219.542 135.541 218.523 135.422C217.596 135.314 216.577 135.195 215.464 135.065C215.094 135.022 214.393 134.987 213.363 134.961C212.343 134.842 211.237 134.666 210.043 134.432C208.952 134.116 208.012 133.723 207.221 133.253C206.441 132.69 206.116 131.851 206.247 130.734ZM203.241 75.6142C203.633 72.2634 204.645 69.221 206.28 66.4871C208.018 63.6709 209.791 60.9532 211.6 58.334C213.502 55.7257 215.27 53.0545 216.905 50.3206C218.643 47.5044 219.707 44.421 220.098 41.0701C220.24 39.8601 219.999 38.6999 219.378 37.5895C218.859 36.3968 218.134 35.3686 217.201 34.5049C216.28 33.5482 215.197 32.7614 213.954 32.1444C212.711 31.5275 211.487 31.1488 210.282 31.0081C208.521 30.8024 206.798 31.073 205.114 31.8198C203.522 32.5775 202.002 33.5321 200.552 34.6837C199.113 35.7422 197.71 36.8992 196.342 38.1547C195.067 39.421 193.819 40.4546 192.598 41.2555C192.391 41.42 191.72 41.5304 190.586 41.5867C189.545 41.6538 188.885 41.6711 188.607 41.6387C189.031 38.0086 189.886 34.7119 191.171 31.7486C192.549 28.796 194.342 26.3164 196.549 24.3098C198.756 22.3032 201.367 20.8626 204.382 19.9881C207.5 19.0313 210.912 18.7694 214.62 19.2023C217.215 19.5053 219.785 20.4187 222.332 21.9426C224.971 23.4773 227.237 25.3929 229.13 27.6895C231.033 29.8931 232.533 32.3326 233.63 35.008C234.727 37.6835 235.117 40.3708 234.802 43.0701C234.411 46.4209 233.589 49.4384 232.336 52.1225C231.187 54.7244 229.868 57.165 228.381 59.4443C226.904 61.6306 225.387 63.7649 223.829 65.8473C222.27 67.9296 220.886 70.1267 219.677 72.4385C218.467 74.7503 217.607 77.2916 217.096 80.0623C216.595 82.7399 216.602 85.9013 217.116 89.5465C216.898 89.8041 216.489 90.0866 215.889 90.394C215.301 90.6083 214.665 90.8172 213.984 91.0206C213.395 91.2349 212.76 91.4438 212.079 91.6473C211.49 91.8616 211.057 91.9525 210.779 91.9201C208.74 91.682 207.178 90.9807 206.092 89.8161C205.018 88.5585 204.197 87.1418 203.629 85.5659C203.165 83.9079 202.944 82.1837 202.965 80.3936C202.986 78.6035 203.078 77.0103 203.241 75.6142Z" stroke="#080606"/>
</svg>
