<svg width="300" height="211" viewBox="0 0 300 211" fill="none" xmlns="http://www.w3.org/2000/svg">
<path fill-rule="evenodd" clip-rule="evenodd" d="M146.584 66.6645L146.586 66.7012C119.442 69.2998 61.114 73.957 39.0775 75.7165C36.2586 75.9416 34.0335 76.1193 32.5436 76.2391C25.3181 76.8204 27.2163 72.6348 32.4712 72.2121C62.6872 69.7812 81.7891 56.9207 90.3538 50.0056C99.045 42.9885 112.936 36.9571 120.65 34.2305L120.538 32.8358C119.303 17.4914 125.59 11.3696 134.13 10.6827L141.355 10.1013L141.355 10.1011L149.727 9.42763C158.267 8.74061 165.452 13.7785 166.686 29.123L166.798 30.5176C174.849 31.9759 189.525 35.7091 199.227 41.2465C208.787 46.7034 229.699 56.3448 259.915 53.9139C265.17 53.4911 267.705 57.2827 260.48 57.864C259.072 57.9773 257.002 58.1449 254.391 58.3563C232.814 60.1037 174.266 64.845 146.584 66.6645ZM143.063 16.9836L146.347 16.7193C154.541 16.0601 157.906 18.5975 158.635 27.6647L158.86 30.4543C154.253 30.1542 147.786 30.4309 143.607 30.9509C139.399 31.1061 132.974 31.8665 128.476 32.8989L128.252 30.1093C127.522 21.0421 130.438 17.9995 138.632 17.3402L143.063 16.9838L143.063 16.9836Z" fill="#F6BB5D"/>
<path fill-rule="evenodd" clip-rule="evenodd" d="M104.147 79.3471C121.215 79.5133 138.252 79.6792 151.196 79.7509L151.196 79.7507C160.953 79.8049 172.994 79.8491 185.601 79.8954C223.265 80.0339 265.979 80.1908 267.909 80.6847C270.055 81.234 269.513 82.2161 268.517 84.0168C268.318 84.3769 268.101 84.7698 267.884 85.1985C266.58 87.7707 267.798 100.674 267.798 100.674C269.676 100.685 272.206 101.408 275.007 102.208C280.22 103.697 286.372 105.454 290.998 103.382C298.109 100.198 298.073 106.646 298.051 110.515C298.03 114.384 297.371 116.96 291.574 115.638C287.308 114.665 282.096 115.532 277.076 116.366C273.759 116.918 270.527 117.456 267.705 117.44C267.699 118.447 267.699 119.613 267.699 120.915C267.699 134.352 267.7 162.241 261.565 178.022C253.061 199.899 223.363 206.183 202.084 206.065C193.772 206.019 185.737 205.906 177.514 205.791C168.895 205.67 160.069 205.546 150.499 205.492L150.499 205.493L98.2678 205.203C76.9884 205.085 47.362 198.472 39.1008 176.501C33.1421 160.654 33.4515 132.766 33.6005 119.33C33.615 118.028 33.6279 116.862 33.6335 115.855C30.8119 115.84 27.5853 115.266 24.2754 114.678C19.2644 113.787 14.0624 112.863 9.78551 113.788C3.97489 115.046 3.34437 112.463 3.36582 108.594C3.38728 104.725 3.42304 98.2768 10.4983 101.54C15.101 103.663 21.2713 101.974 26.5011 100.543C29.3106 99.774 31.8486 99.0794 33.7265 99.0898C33.7265 99.0898 35.0877 86.2003 33.8123 83.6139C33.5997 83.1828 33.387 82.7875 33.192 82.4252C32.2168 80.6136 31.6849 79.6255 33.8373 79.1001C35.5608 78.6793 69.9168 79.0138 104.147 79.3471Z" fill="#F6BB5D"/>
<path d="M61.3137 121.861C58.8736 121.36 56.4335 120.234 53.9934 118.482C51.5533 116.73 49.207 114.603 46.9546 112.101C44.7648 109.598 42.6688 106.814 40.6666 103.748C38.727 100.682 37.0377 97.585 35.5987 94.4566C34.1596 91.3283 33.0334 88.2938 32.2201 85.3531C31.4067 82.4125 31 79.7847 31 77.4697C31 77.1568 31 76.7814 31 76.3435C31.0626 75.9055 31.1251 75.4988 31.1877 75.1234C31.3128 74.6854 31.5318 74.3413 31.8447 74.091C32.1575 73.7782 32.5642 73.6218 33.0647 73.6218C34.6289 73.6218 35.9741 74.1849 37.1003 75.3111C38.2265 76.3747 39.2589 77.8138 40.1974 79.6282C41.1359 81.4427 42.0118 83.5074 42.8252 85.8224C43.6385 88.1374 44.4519 90.4836 45.2653 92.8612C46.1412 95.2387 47.0485 97.585 47.987 99.9C48.9255 102.215 49.9578 104.28 51.084 106.094C52.2728 107.909 53.618 109.379 55.1196 110.505C56.6212 111.569 58.3418 112.101 60.2814 112.101C60.4065 112.101 60.5629 112.069 60.7506 112.007C61.0009 111.944 61.1886 111.913 61.3137 111.913C63.0656 110.349 64.6298 108.284 66.0063 105.719C67.4453 103.091 68.7592 100.275 69.948 97.2721C71.1368 94.2689 72.2943 91.1719 73.4205 87.9809C74.5467 84.79 75.7042 81.8181 76.8929 79.0651C78.1443 76.3122 79.4269 73.9033 80.7408 71.8386C82.1173 69.7739 83.6815 68.3349 85.4333 67.5215L89.4689 71.6509C89.9695 72.1515 90.032 73.1838 89.6566 74.748C89.3438 76.2496 88.7494 78.1579 87.8735 80.4729C87.0601 82.7253 86.0277 85.2593 84.7764 88.0748C83.525 90.8277 82.2111 93.7058 80.8347 96.709C79.4582 99.7123 78.0817 102.715 76.7052 105.719C75.3288 108.659 74.0774 111.444 72.9512 114.071C71.8876 116.699 71.0116 119.045 70.3234 121.11C69.6352 123.175 69.291 124.802 69.291 125.99C69.291 129.744 69.8229 133.373 70.8865 136.877C72.0127 140.381 73.2015 143.885 74.4528 147.388C75.7042 150.83 76.8617 154.302 77.9253 157.806C78.9889 161.247 79.5208 164.782 79.5208 168.411C79.5208 168.911 79.5208 169.568 79.5208 170.382C79.5208 171.133 79.3956 171.852 79.1454 172.54C78.9577 173.229 78.551 173.76 77.9253 174.136C77.3622 174.511 76.5175 174.542 75.3913 174.23C73.0764 170.851 71.0429 167.034 69.291 162.78C67.5392 158.463 66.0376 153.989 64.7862 149.359C63.5349 144.729 62.5964 140.068 61.9707 135.375C61.4076 130.62 61.1886 126.116 61.3137 121.861Z" fill="#080606"/>
<path d="M90.0633 135.845C90.0633 135.469 90.0633 134.812 90.0633 133.874C90.1259 132.873 90.1572 131.84 90.1572 130.777C90.1572 129.713 90.1572 128.743 90.1572 127.867C90.2197 126.929 90.251 126.272 90.251 125.897C90.689 125.146 91.1895 124.426 91.7526 123.738C92.3783 122.987 93.004 122.487 93.6296 122.236C94.3179 121.924 95.0374 121.861 95.7882 122.049C96.6016 122.236 97.4149 122.862 98.2283 123.926V125.897C98.1657 126.209 98.0406 126.96 97.8529 128.149C97.6652 129.275 97.4462 130.527 97.196 131.903C96.9457 133.279 96.6954 134.562 96.4451 135.751C96.2574 136.877 96.1636 137.597 96.1636 137.909C96.1636 139.098 96.2887 140.6 96.539 142.414C96.7893 144.166 97.1334 146.012 97.5714 147.951C98.0719 149.891 98.6663 151.831 99.3545 153.77C100.105 155.71 100.981 157.462 101.982 159.026C102.983 160.527 104.078 161.779 105.267 162.78C106.518 163.781 107.957 164.281 109.584 164.281C111.586 164.281 113.338 163.75 114.84 162.686C116.404 161.622 117.749 160.246 118.875 158.557C120.002 156.867 120.909 154.959 121.597 152.832C122.348 150.704 122.942 148.577 123.38 146.45C123.818 144.26 124.131 142.164 124.319 140.162C124.506 138.16 124.6 136.408 124.6 134.906C124.6 133.405 124.475 131.997 124.225 130.683C124.037 129.306 123.787 127.961 123.474 126.647C123.161 125.333 122.88 124.051 122.629 122.799C122.442 121.486 122.348 120.172 122.348 118.858C122.348 117.669 122.755 116.824 123.568 116.324C124.444 115.823 125.414 115.573 126.477 115.573C127.791 115.573 128.855 115.98 129.668 116.793C130.482 117.544 131.107 118.514 131.545 119.702C132.046 120.891 132.359 122.268 132.484 123.832C132.671 125.333 132.765 126.835 132.765 128.337C132.765 129.838 132.734 131.277 132.671 132.654C132.609 133.968 132.578 135.031 132.578 135.845C132.578 137.972 132.421 140.381 132.108 143.071C131.796 145.762 131.232 148.546 130.419 151.424C129.668 154.239 128.698 157.024 127.51 159.777C126.383 162.53 124.976 165.001 123.286 167.191C121.66 169.318 119.751 171.039 117.562 172.353C115.434 173.667 113.025 174.323 110.335 174.323C107.52 174.323 105.048 173.667 102.921 172.353C100.794 170.976 98.9791 169.193 97.4775 167.003C96.0385 164.751 94.8184 162.217 93.8173 159.401C92.8163 156.586 92.0342 153.77 91.4711 150.955C90.9705 148.139 90.5951 145.417 90.3449 142.79C90.1572 140.099 90.0633 137.784 90.0633 135.845Z" fill="#080606"/>
<path d="M140.117 121.63C140.117 119.725 140.369 118.24 140.872 117.173C141.439 116.106 142.603 115.573 144.365 115.573C144.554 115.573 144.9 115.611 145.403 115.687C145.97 115.687 146.316 115.687 146.442 115.687C146.882 118.049 147.323 120.64 147.763 123.459C148.267 126.202 148.833 128.983 149.462 131.802C150.092 134.621 150.784 137.402 151.539 140.145C152.357 142.888 153.333 145.364 154.465 147.573C155.598 146.126 156.416 144.412 156.92 142.431C157.423 140.45 157.801 138.469 158.052 136.488C158.304 134.43 158.524 132.488 158.713 130.659C158.965 128.754 159.437 127.154 160.129 125.859C160.821 124.487 161.828 123.497 163.15 122.887C164.534 122.278 166.422 122.278 168.814 122.887C171.457 122.887 173.565 123.497 175.138 124.716C176.711 125.859 178.064 127.345 179.197 129.173C180.393 130.926 181.526 132.83 182.596 134.888C183.728 136.869 185.144 138.659 186.843 140.259C187.221 139.269 187.693 138.05 188.259 136.602C188.826 135.078 189.518 133.516 190.336 131.916C191.217 130.24 192.13 128.602 193.074 127.002C194.081 125.326 195.119 123.84 196.189 122.545C197.259 121.173 198.36 120.068 199.493 119.23C200.625 118.316 201.727 117.859 202.796 117.859C205.377 117.859 207.611 118.849 209.499 120.83C211.387 122.735 212.991 125.173 214.313 128.145C215.697 131.04 216.83 134.316 217.711 137.973C218.592 141.554 219.284 145.021 219.788 148.373C220.291 151.726 220.637 154.812 220.826 157.631C221.078 160.374 221.204 162.355 221.204 163.574C221.204 164.564 221.015 165.326 220.637 165.859C220.26 166.393 219.788 166.812 219.222 167.117C218.655 167.345 218.026 167.498 217.334 167.574C216.704 167.65 216.106 167.688 215.54 167.688C215.414 167.688 215.225 167.688 214.974 167.688C214.722 167.612 214.439 167.536 214.124 167.459C213.872 167.383 213.526 167.269 213.086 167.117L206.95 132.945C206.95 132.716 206.698 132.297 206.195 131.688C205.691 131.002 205.314 130.583 205.062 130.43C204.873 130.43 204.716 130.392 204.59 130.316C204.464 130.316 204.37 130.316 204.307 130.316C204.244 130.24 204.181 130.202 204.118 130.202C202.796 130.202 201.538 130.849 200.342 132.145C199.209 133.44 198.14 135.078 197.133 137.059C196.126 139.04 195.182 141.25 194.301 143.688C193.42 146.126 192.633 148.564 191.941 151.002C191.249 153.364 190.619 155.574 190.053 157.631C189.549 159.612 189.14 161.136 188.826 162.202C188.574 162.355 188.071 162.507 187.315 162.659C186.56 162.736 186.057 162.774 185.805 162.774C184.043 162.774 182.69 162.05 181.746 160.602C180.802 159.078 180.015 157.212 179.386 155.002C178.82 152.793 178.316 150.393 177.876 147.802C177.498 145.135 176.995 142.697 176.365 140.488C175.799 138.278 174.981 136.45 173.911 135.002C172.904 133.478 171.457 132.716 169.569 132.716C168.877 132.716 168.216 133.554 167.586 135.23C166.957 136.907 166.391 139.04 165.887 141.631C165.384 144.145 164.912 146.888 164.471 149.859C164.031 152.755 163.653 155.497 163.339 158.088C163.087 160.602 162.898 162.736 162.772 164.488C162.646 166.24 162.583 167.117 162.583 167.117C162.458 167.345 162.206 167.612 161.828 167.917C161.451 168.145 161.042 168.412 160.601 168.717C160.223 169.021 159.814 169.25 159.374 169.402C158.996 169.555 158.713 169.631 158.524 169.631C156.762 169.631 155.063 168.679 153.427 166.774C151.791 164.793 150.28 162.278 148.896 159.231C147.574 156.107 146.347 152.678 145.214 148.945C144.145 145.212 143.232 141.554 142.477 137.973C141.722 134.392 141.124 131.154 140.683 128.259C140.306 125.364 140.117 123.154 140.117 121.63Z" fill="#080606"/>
<path d="M236.247 168.734C236.377 167.617 236.941 166.409 237.938 165.11C238.935 163.811 240.061 162.622 241.314 161.542C242.66 160.472 244.031 159.595 245.426 158.908C246.914 158.233 248.261 157.966 249.466 158.106C249.651 158.128 250.066 158.601 250.709 159.525C251.456 160.367 251.988 161.043 252.305 161.551C252.457 161.852 252.635 162.345 252.837 163.029C253.142 163.63 253.396 164.273 253.598 164.957C253.893 165.652 254.1 166.29 254.22 166.87C254.351 167.357 254.411 167.647 254.4 167.74C254.194 169.508 253.805 170.831 253.232 171.708C252.671 172.491 251.998 173.026 251.213 173.312C250.439 173.504 249.542 173.541 248.523 173.422C247.596 173.314 246.577 173.195 245.464 173.065C245.094 173.022 244.393 172.987 243.363 172.961C242.343 172.842 241.237 172.666 240.043 172.432C238.952 172.116 238.012 171.723 237.221 171.253C236.441 170.69 236.116 169.851 236.247 168.734ZM233.241 113.614C233.633 110.263 234.645 107.221 236.28 104.487C238.018 101.671 239.791 98.9532 241.6 96.334C243.502 93.7257 245.27 91.0545 246.905 88.3206C248.643 85.5044 249.707 82.421 250.098 79.0701C250.24 77.8601 249.999 76.6999 249.378 75.5895C248.859 74.3968 248.134 73.3686 247.201 72.5049C246.279 71.5482 245.197 70.7614 243.954 70.1445C242.711 69.5275 241.487 69.1488 240.282 69.0081C238.521 68.8024 236.798 69.073 235.114 69.8198C233.522 70.5775 232.002 71.5321 230.552 72.6837C229.113 73.7422 227.71 74.8992 226.342 76.1547C225.067 77.421 223.819 78.4546 222.598 79.2555C222.391 79.42 221.72 79.5304 220.586 79.5867C219.545 79.6538 218.885 79.6711 218.607 79.6387C219.031 76.0086 219.886 72.7119 221.171 69.7486C222.549 66.796 224.342 64.3164 226.549 62.3098C228.756 60.3032 231.367 58.8626 234.382 57.9881C237.5 57.0313 240.912 56.7694 244.62 57.2023C247.215 57.5053 249.785 58.4187 252.332 59.9426C254.971 61.4773 257.237 63.3929 259.13 65.6895C261.033 67.8931 262.533 70.3326 263.63 73.008C264.727 75.6835 265.117 78.3708 264.802 81.0701C264.411 84.4209 263.589 87.4384 262.336 90.1225C261.187 92.7244 259.868 95.165 258.381 97.4443C256.904 99.6306 255.387 101.765 253.829 103.847C252.27 105.93 250.886 108.127 249.677 110.439C248.467 112.75 247.607 115.292 247.096 118.062C246.595 120.74 246.602 123.901 247.116 127.547C246.898 127.804 246.489 128.087 245.889 128.394C245.301 128.608 244.665 128.817 243.984 129.021C243.395 129.235 242.76 129.444 242.079 129.647C241.49 129.862 241.057 129.953 240.779 129.92C238.74 129.682 237.178 128.981 236.092 127.816C235.018 126.558 234.197 125.142 233.629 123.566C233.165 121.908 232.944 120.184 232.965 118.394C232.986 116.603 233.078 115.01 233.241 113.614Z" fill="#080606"/>
<path d="M61.3137 121.861C58.8736 121.36 56.4335 120.234 53.9934 118.482C51.5533 116.73 49.207 114.603 46.9546 112.101C44.7648 109.598 42.6688 106.814 40.6666 103.748C38.727 100.682 37.0377 97.585 35.5987 94.4566C34.1596 91.3283 33.0334 88.2938 32.2201 85.3531C31.4067 82.4125 31 79.7847 31 77.4697C31 77.1568 31 76.7814 31 76.3435C31.0626 75.9055 31.1251 75.4988 31.1877 75.1234C31.3128 74.6854 31.5318 74.3413 31.8447 74.091C32.1575 73.7782 32.5642 73.6218 33.0647 73.6218C34.6289 73.6218 35.9741 74.1849 37.1003 75.3111C38.2265 76.3747 39.2589 77.8138 40.1974 79.6282C41.1359 81.4427 42.0118 83.5074 42.8252 85.8224C43.6385 88.1374 44.4519 90.4836 45.2653 92.8612C46.1412 95.2387 47.0485 97.585 47.987 99.9C48.9255 102.215 49.9578 104.28 51.084 106.094C52.2728 107.909 53.618 109.379 55.1196 110.505C56.6212 111.569 58.3418 112.101 60.2814 112.101C60.4065 112.101 60.5629 112.069 60.7506 112.007C61.0009 111.944 61.1886 111.913 61.3137 111.913C63.0656 110.349 64.6298 108.284 66.0063 105.719C67.4453 103.091 68.7592 100.275 69.948 97.2721C71.1368 94.2689 72.2943 91.1719 73.4205 87.9809C74.5467 84.79 75.7042 81.8181 76.8929 79.0651C78.1443 76.3122 79.4269 73.9033 80.7408 71.8386C82.1173 69.7739 83.6815 68.3349 85.4333 67.5215L89.4689 71.6509C89.9695 72.1515 90.032 73.1838 89.6566 74.748C89.3438 76.2496 88.7494 78.1579 87.8735 80.4729C87.0601 82.7253 86.0277 85.2593 84.7764 88.0748C83.525 90.8277 82.2111 93.7058 80.8347 96.709C79.4582 99.7123 78.0817 102.715 76.7052 105.719C75.3288 108.659 74.0774 111.444 72.9512 114.071C71.8876 116.699 71.0116 119.045 70.3234 121.11C69.6352 123.175 69.291 124.802 69.291 125.99C69.291 129.744 69.8229 133.373 70.8865 136.877C72.0127 140.381 73.2015 143.885 74.4528 147.388C75.7042 150.83 76.8617 154.302 77.9253 157.806C78.9889 161.247 79.5208 164.782 79.5208 168.411C79.5208 168.911 79.5208 169.568 79.5208 170.382C79.5208 171.133 79.3956 171.852 79.1454 172.54C78.9577 173.229 78.551 173.76 77.9253 174.136C77.3622 174.511 76.5175 174.542 75.3913 174.23C73.0764 170.851 71.0429 167.034 69.291 162.78C67.5392 158.463 66.0376 153.989 64.7862 149.359C63.5349 144.729 62.5964 140.068 61.9707 135.375C61.4076 130.62 61.1886 126.116 61.3137 121.861Z" stroke="#080606"/>
<path d="M90.0633 135.845C90.0633 135.469 90.0633 134.812 90.0633 133.874C90.1259 132.873 90.1572 131.84 90.1572 130.777C90.1572 129.713 90.1572 128.743 90.1572 127.867C90.2197 126.929 90.251 126.272 90.251 125.897C90.689 125.146 91.1895 124.426 91.7526 123.738C92.3783 122.987 93.004 122.487 93.6296 122.236C94.3179 121.924 95.0374 121.861 95.7882 122.049C96.6016 122.236 97.4149 122.862 98.2283 123.926V125.897C98.1657 126.209 98.0406 126.96 97.8529 128.149C97.6652 129.275 97.4462 130.527 97.196 131.903C96.9457 133.279 96.6954 134.562 96.4451 135.751C96.2574 136.877 96.1636 137.597 96.1636 137.909C96.1636 139.098 96.2887 140.6 96.539 142.414C96.7893 144.166 97.1334 146.012 97.5714 147.951C98.0719 149.891 98.6663 151.831 99.3545 153.77C100.105 155.71 100.981 157.462 101.982 159.026C102.983 160.527 104.078 161.779 105.267 162.78C106.518 163.781 107.957 164.281 109.584 164.281C111.586 164.281 113.338 163.75 114.84 162.686C116.404 161.622 117.749 160.246 118.875 158.557C120.002 156.867 120.909 154.959 121.597 152.832C122.348 150.704 122.942 148.577 123.38 146.45C123.818 144.26 124.131 142.164 124.319 140.162C124.506 138.16 124.6 136.408 124.6 134.906C124.6 133.405 124.475 131.997 124.225 130.683C124.037 129.306 123.787 127.961 123.474 126.647C123.161 125.333 122.88 124.051 122.629 122.799C122.442 121.486 122.348 120.172 122.348 118.858C122.348 117.669 122.755 116.824 123.568 116.324C124.444 115.823 125.414 115.573 126.477 115.573C127.791 115.573 128.855 115.98 129.668 116.793C130.482 117.544 131.107 118.514 131.545 119.702C132.046 120.891 132.359 122.268 132.484 123.832C132.671 125.333 132.765 126.835 132.765 128.337C132.765 129.838 132.734 131.277 132.671 132.654C132.609 133.968 132.578 135.031 132.578 135.845C132.578 137.972 132.421 140.381 132.108 143.071C131.796 145.762 131.232 148.546 130.419 151.424C129.668 154.239 128.698 157.024 127.51 159.777C126.383 162.53 124.976 165.001 123.286 167.191C121.66 169.318 119.751 171.039 117.562 172.353C115.434 173.667 113.025 174.323 110.335 174.323C107.52 174.323 105.048 173.667 102.921 172.353C100.794 170.976 98.9791 169.193 97.4775 167.003C96.0385 164.751 94.8184 162.217 93.8173 159.401C92.8163 156.586 92.0342 153.77 91.4711 150.955C90.9705 148.139 90.5951 145.417 90.3449 142.79C90.1572 140.099 90.0633 137.784 90.0633 135.845Z" stroke="#080606"/>
<path d="M140.117 121.63C140.117 119.725 140.369 118.24 140.872 117.173C141.439 116.106 142.603 115.573 144.365 115.573C144.554 115.573 144.9 115.611 145.403 115.687C145.97 115.687 146.316 115.687 146.442 115.687C146.882 118.049 147.323 120.64 147.763 123.459C148.267 126.202 148.833 128.983 149.462 131.802C150.092 134.621 150.784 137.402 151.539 140.145C152.357 142.888 153.333 145.364 154.465 147.573C155.598 146.126 156.416 144.412 156.92 142.431C157.423 140.45 157.801 138.469 158.052 136.488C158.304 134.43 158.524 132.488 158.713 130.659C158.965 128.754 159.437 127.154 160.129 125.859C160.821 124.487 161.828 123.497 163.15 122.887C164.534 122.278 166.422 122.278 168.814 122.887C171.457 122.887 173.565 123.497 175.138 124.716C176.711 125.859 178.064 127.345 179.197 129.173C180.393 130.926 181.526 132.83 182.596 134.888C183.728 136.869 185.144 138.659 186.843 140.259C187.221 139.269 187.693 138.05 188.259 136.602C188.826 135.078 189.518 133.516 190.336 131.916C191.217 130.24 192.13 128.602 193.074 127.002C194.081 125.326 195.119 123.84 196.189 122.545C197.259 121.173 198.36 120.068 199.493 119.23C200.625 118.316 201.727 117.859 202.796 117.859C205.377 117.859 207.611 118.849 209.499 120.83C211.387 122.735 212.991 125.173 214.313 128.145C215.697 131.04 216.83 134.316 217.711 137.973C218.592 141.554 219.284 145.021 219.788 148.373C220.291 151.726 220.637 154.812 220.826 157.631C221.078 160.374 221.204 162.355 221.204 163.574C221.204 164.564 221.015 165.326 220.637 165.859C220.26 166.393 219.788 166.812 219.222 167.117C218.655 167.345 218.026 167.498 217.334 167.574C216.704 167.65 216.106 167.688 215.54 167.688C215.414 167.688 215.225 167.688 214.974 167.688C214.722 167.612 214.439 167.536 214.124 167.459C213.872 167.383 213.526 167.269 213.086 167.117L206.95 132.945C206.95 132.716 206.698 132.297 206.195 131.688C205.691 131.002 205.314 130.583 205.062 130.43C204.873 130.43 204.716 130.392 204.59 130.316C204.464 130.316 204.37 130.316 204.307 130.316C204.244 130.24 204.181 130.202 204.118 130.202C202.796 130.202 201.538 130.849 200.342 132.145C199.209 133.44 198.14 135.078 197.133 137.059C196.126 139.04 195.182 141.25 194.301 143.688C193.42 146.126 192.633 148.564 191.941 151.002C191.249 153.364 190.619 155.574 190.053 157.631C189.549 159.612 189.14 161.136 188.826 162.202C188.574 162.355 188.071 162.507 187.315 162.659C186.56 162.736 186.057 162.774 185.805 162.774C184.043 162.774 182.69 162.05 181.746 160.602C180.802 159.078 180.015 157.212 179.386 155.002C178.82 152.793 178.316 150.393 177.876 147.802C177.498 145.135 176.995 142.697 176.365 140.488C175.799 138.278 174.981 136.45 173.911 135.002C172.904 133.478 171.457 132.716 169.569 132.716C168.877 132.716 168.216 133.554 167.586 135.23C166.957 136.907 166.391 139.04 165.887 141.631C165.384 144.145 164.912 146.888 164.471 149.859C164.031 152.755 163.653 155.497 163.339 158.088C163.087 160.602 162.898 162.736 162.772 164.488C162.646 166.24 162.583 167.117 162.583 167.117C162.458 167.345 162.206 167.612 161.828 167.917C161.451 168.145 161.042 168.412 160.601 168.717C160.223 169.021 159.814 169.25 159.374 169.402C158.996 169.555 158.713 169.631 158.524 169.631C156.762 169.631 155.063 168.679 153.427 166.774C151.791 164.793 150.28 162.278 148.896 159.231C147.574 156.107 146.347 152.678 145.214 148.945C144.145 145.212 143.232 141.554 142.477 137.973C141.722 134.392 141.124 131.154 140.683 128.259C140.306 125.364 140.117 123.154 140.117 121.63Z" stroke="#080606"/>
<path d="M236.247 168.734C236.377 167.617 236.941 166.409 237.938 165.11C238.935 163.811 240.061 162.622 241.314 161.542C242.66 160.472 244.031 159.595 245.426 158.908C246.914 158.233 248.261 157.966 249.466 158.106C249.651 158.128 250.066 158.601 250.709 159.525C251.456 160.367 251.988 161.043 252.305 161.551C252.457 161.852 252.635 162.345 252.837 163.029C253.142 163.63 253.396 164.273 253.598 164.957C253.893 165.652 254.1 166.29 254.22 166.87C254.351 167.357 254.411 167.647 254.4 167.74C254.194 169.508 253.805 170.831 253.232 171.708C252.671 172.491 251.998 173.026 251.213 173.312C250.439 173.504 249.542 173.541 248.523 173.422C247.596 173.314 246.577 173.195 245.464 173.065C245.094 173.022 244.393 172.987 243.363 172.961C242.343 172.842 241.237 172.666 240.043 172.432C238.952 172.116 238.012 171.723 237.221 171.253C236.441 170.69 236.116 169.851 236.247 168.734ZM233.241 113.614C233.633 110.263 234.645 107.221 236.28 104.487C238.018 101.671 239.791 98.9532 241.6 96.334C243.502 93.7257 245.27 91.0545 246.905 88.3206C248.643 85.5044 249.707 82.421 250.098 79.0701C250.24 77.8601 249.999 76.6999 249.378 75.5895C248.859 74.3968 248.134 73.3686 247.201 72.5049C246.279 71.5482 245.197 70.7614 243.954 70.1445C242.711 69.5275 241.487 69.1488 240.282 69.0081C238.521 68.8024 236.798 69.073 235.114 69.8198C233.522 70.5775 232.002 71.5321 230.552 72.6837C229.113 73.7422 227.71 74.8992 226.342 76.1547C225.067 77.421 223.819 78.4546 222.598 79.2555C222.391 79.42 221.72 79.5304 220.586 79.5867C219.545 79.6538 218.885 79.6711 218.607 79.6387C219.031 76.0086 219.886 72.7119 221.171 69.7486C222.549 66.796 224.342 64.3164 226.549 62.3098C228.756 60.3032 231.367 58.8626 234.382 57.9881C237.5 57.0313 240.912 56.7694 244.62 57.2023C247.215 57.5053 249.785 58.4187 252.332 59.9426C254.971 61.4773 257.237 63.3929 259.13 65.6895C261.033 67.8931 262.533 70.3326 263.63 73.008C264.727 75.6835 265.117 78.3708 264.802 81.0701C264.411 84.4209 263.589 87.4384 262.336 90.1225C261.187 92.7244 259.868 95.165 258.381 97.4443C256.904 99.6306 255.387 101.765 253.829 103.847C252.27 105.93 250.886 108.127 249.677 110.439C248.467 112.75 247.607 115.292 247.096 118.062C246.595 120.74 246.602 123.901 247.116 127.547C246.898 127.804 246.489 128.087 245.889 128.394C245.301 128.608 244.665 128.817 243.984 129.021C243.395 129.235 242.76 129.444 242.079 129.647C241.49 129.862 241.057 129.953 240.779 129.92C238.74 129.682 237.178 128.981 236.092 127.816C235.018 126.558 234.197 125.142 233.629 123.566C233.165 121.908 232.944 120.184 232.965 118.394C232.986 116.603 233.078 115.01 233.241 113.614Z" stroke="#080606"/>
</svg>
