<svg width="302" height="213" viewBox="0 0 302 213" fill="none" xmlns="http://www.w3.org/2000/svg">
<path fill-rule="evenodd" clip-rule="evenodd" d="M148.584 68.6645L148.586 68.7012C121.442 71.2998 63.114 75.957 41.0775 77.7165C38.2586 77.9416 36.0335 78.1193 34.5436 78.2391C27.3181 78.8204 29.2163 74.6348 34.4712 74.2121C64.6872 71.7812 83.7891 58.9207 92.3538 52.0056C101.045 44.9885 114.936 38.9571 122.65 36.2305L122.538 34.8358C121.303 19.4914 127.59 13.3696 136.13 12.6827L143.355 12.1013L143.355 12.1011L151.727 11.4276C160.267 10.7406 167.452 15.7785 168.686 31.123L168.798 32.5176C176.849 33.9759 191.525 37.7091 201.227 43.2465C210.787 48.7034 231.699 58.3448 261.915 55.9139C267.17 55.4911 269.705 59.2827 262.48 59.864C261.072 59.9773 259.002 60.1449 256.391 60.3563C234.814 62.1037 176.266 66.845 148.584 68.6645ZM145.063 18.9836L148.347 18.7193C156.541 18.0601 159.906 20.5975 160.635 29.6647L160.86 32.4543C156.253 32.1542 149.786 32.4309 145.607 32.9509C141.399 33.1061 134.974 33.8665 130.476 34.8989L130.252 32.1093C129.522 23.0421 132.438 19.9995 140.632 19.3402L145.063 18.9838L145.063 18.9836Z" fill="#080606"/>
<path fill-rule="evenodd" clip-rule="evenodd" d="M106.147 81.3471C123.215 81.5133 140.252 81.6792 153.196 81.7509L153.196 81.7507C162.953 81.8049 174.994 81.8491 187.601 81.8954C225.265 82.0339 267.979 82.1908 269.909 82.6847C272.055 83.234 271.513 84.2161 270.517 86.0168C270.318 86.3769 270.101 86.7698 269.884 87.1985C268.58 89.7707 269.798 102.674 269.798 102.674C271.676 102.685 274.206 103.408 277.007 104.208C282.22 105.697 288.372 107.454 292.998 105.382C300.109 102.198 300.073 108.646 300.051 112.515C300.03 116.384 299.371 118.96 293.574 117.638C289.308 116.665 284.096 117.532 279.076 118.366C275.759 118.918 272.527 119.456 269.705 119.44C269.699 120.447 269.699 121.613 269.699 122.915C269.699 136.352 269.7 164.241 263.565 180.022C255.061 201.899 225.363 208.183 204.084 208.065C195.772 208.019 187.737 207.906 179.514 207.791C170.895 207.67 162.069 207.546 152.499 207.492L152.499 207.493L100.268 207.203C78.9884 207.085 49.362 200.472 41.1008 178.501C35.1421 162.654 35.4515 134.766 35.6005 121.33C35.615 120.028 35.6279 118.862 35.6335 117.855C32.8119 117.84 29.5853 117.266 26.2754 116.678C21.2644 115.787 16.0624 114.863 11.7855 115.788C5.97489 117.046 5.34437 114.463 5.36582 110.594C5.38728 106.725 5.42304 100.277 12.4983 103.54C17.101 105.663 23.2713 103.974 28.5011 102.543C31.3106 101.774 33.8486 101.079 35.7265 101.09C35.7265 101.09 37.0877 88.2003 35.8123 85.6139C35.5997 85.1828 35.387 84.7875 35.192 84.4252C34.2168 82.6136 33.6849 81.6255 35.8373 81.1001C37.5608 80.6793 71.9168 81.0138 106.147 81.3471Z" fill="#080606"/>
<path fill-rule="evenodd" clip-rule="evenodd" d="M146.584 66.6644L146.586 66.701C119.442 69.2997 61.114 73.9569 39.0775 75.7164C36.2586 75.9415 34.0335 76.1191 32.5436 76.239C25.3181 76.8203 27.2163 72.6347 32.4712 72.2119C62.6872 69.7811 81.7891 56.9205 90.3538 50.0055C99.045 42.9884 112.936 36.9569 120.65 34.2304L120.538 32.8357C119.303 17.4913 125.59 11.3695 134.13 10.6825L141.355 10.1012L141.355 10.101L149.727 9.4275C158.267 8.74049 165.452 13.7784 166.686 29.1228L166.798 30.5175C174.849 31.9758 189.525 35.709 199.227 41.2464C208.787 46.7033 229.699 56.3447 259.915 53.9138C265.17 53.491 267.705 57.2826 260.48 57.8639C259.072 57.9771 257.002 58.1447 254.391 58.3562C232.814 60.1035 174.266 64.8449 146.584 66.6644ZM143.063 16.9835L146.347 16.7192C154.541 16.06 157.906 18.5974 158.635 27.6646L158.86 30.4542C154.253 30.1541 147.786 30.4308 143.607 30.9508C139.399 31.106 132.974 31.8663 128.476 32.8987L128.252 30.1091C127.522 21.0419 130.438 17.9993 138.632 17.3401L143.063 16.9837L143.063 16.9835Z" fill="#F79E5D"/>
<path fill-rule="evenodd" clip-rule="evenodd" d="M104.147 79.347C121.215 79.5132 138.252 79.679 151.196 79.7508L151.196 79.7506C160.953 79.8047 172.994 79.849 185.601 79.8953C223.265 80.0337 265.979 80.1907 267.909 80.6846C270.055 81.2338 269.513 82.216 268.517 84.0166C268.318 84.3768 268.101 84.7697 267.884 85.1984C266.58 87.7705 267.798 100.674 267.798 100.674C269.676 100.685 272.206 101.407 275.007 102.208C280.22 103.697 286.372 105.454 290.998 103.382C298.109 100.197 298.073 106.646 298.051 110.515C298.03 114.384 297.371 116.959 291.574 115.638C287.308 114.665 282.096 115.531 277.076 116.366C273.759 116.918 270.527 117.455 267.705 117.44C267.699 118.446 267.699 119.613 267.699 120.915C267.699 134.352 267.7 162.241 261.565 178.022C253.061 199.899 223.363 206.183 202.084 206.065C193.772 206.019 185.737 205.906 177.514 205.791C168.895 205.669 160.069 205.545 150.499 205.492L150.499 205.493L98.2678 205.203C76.9884 205.085 47.362 198.472 39.1008 176.501C33.1421 160.654 33.4515 132.766 33.6005 119.33C33.615 118.028 33.6279 116.862 33.6335 115.855C30.8119 115.84 27.5853 115.266 24.2754 114.678C19.2644 113.787 14.0624 112.863 9.78551 113.788C3.97489 115.046 3.34437 112.463 3.36582 108.594C3.38728 104.725 3.42304 98.2767 10.4983 101.54C15.101 103.663 21.2713 101.974 26.5011 100.543C29.3106 99.7739 31.8486 99.0792 33.7265 99.0897C33.7265 99.0897 35.0877 86.2002 33.8123 83.6137C33.5997 83.1827 33.387 82.7874 33.192 82.4251C32.2168 80.6135 31.6849 79.6254 33.8373 79.0999C35.5608 78.6792 69.9168 79.0137 104.147 79.347Z" fill="#F79E5D"/>
<mask id="path-5-outside-1_7_73" maskUnits="userSpaceOnUse" x="29.0321" y="67.0741" width="193" height="110" fill="black">
<rect fill="white" x="29.0321" y="67.0741" width="193" height="110"/>
<path d="M60.3458 123.414C57.9057 122.913 55.4656 121.787 53.0255 120.035C50.5854 118.283 48.2391 116.156 45.9867 113.653C43.7969 111.15 41.7009 108.366 39.6987 105.3C37.7591 102.235 36.0698 99.1376 34.6308 96.0092C33.1917 92.8809 32.0655 89.8464 31.2522 86.9057C30.4388 83.9651 30.0321 81.3372 30.0321 79.0223C30.0321 78.7094 30.0321 78.334 30.0321 77.8961C30.0947 77.4581 30.1572 77.0514 30.2198 76.676C30.3449 76.238 30.5639 75.8939 30.8768 75.6436C31.1896 75.3308 31.5963 75.1744 32.0968 75.1744C33.661 75.1744 35.0062 75.7375 36.1324 76.8637C37.2586 77.9273 38.291 79.3664 39.2295 81.1808C40.168 82.9953 41.0439 85.06 41.8573 87.375C42.6706 89.6899 43.484 92.0362 44.2974 94.4138C45.1733 96.7913 46.0806 99.1376 47.0191 101.453C47.9576 103.768 48.9899 105.832 50.1161 107.647C51.3049 109.461 52.6501 110.931 54.1517 112.058C55.6533 113.121 57.3739 113.653 59.3135 113.653C59.4386 113.653 59.595 113.622 59.7827 113.559C60.033 113.497 60.2207 113.465 60.3458 113.465C62.0977 111.901 63.6619 109.837 65.0384 107.271C66.4774 104.643 67.7913 101.828 68.9801 98.8247C70.1689 95.8215 71.3264 92.7244 72.4526 89.5335C73.5788 86.3426 74.7363 83.3707 75.925 80.6177C77.1764 77.8648 78.459 75.4559 79.7729 73.3912C81.1494 71.3265 82.7136 69.8875 84.4654 69.0741L88.501 73.2035C89.0016 73.7041 89.0641 74.7364 88.6887 76.3006C88.3759 77.8022 87.7815 79.7105 86.9056 82.0255C86.0922 84.2779 85.0598 86.8119 83.8085 89.6274C82.5571 92.3803 81.2432 95.2584 79.8668 98.2616C78.4903 101.265 77.1138 104.268 75.7373 107.271C74.3609 110.212 73.1095 112.996 71.9833 115.624C70.9197 118.252 70.0437 120.598 69.3555 122.663C68.6673 124.727 68.3231 126.354 68.3231 127.543C68.3231 131.297 68.855 134.926 69.9186 138.43C71.0448 141.933 72.2336 145.437 73.4849 148.941C74.7363 152.382 75.8938 155.855 76.9574 159.358C78.021 162.8 78.5529 166.335 78.5529 169.963C78.5529 170.464 78.5529 171.121 78.5529 171.934C78.5529 172.685 78.4277 173.405 78.1775 174.093C77.9898 174.781 77.5831 175.313 76.9574 175.688C76.3943 176.064 75.5496 176.095 74.4234 175.782C72.1084 172.404 70.075 168.587 68.3231 164.332C66.5713 160.015 65.0697 155.542 63.8183 150.912C62.567 146.282 61.6285 141.621 61.0028 136.928C60.4397 132.173 60.2207 127.668 60.3458 123.414Z"/>
<path d="M89.0954 137.397C89.0954 137.022 89.0954 136.365 89.0954 135.426C89.158 134.425 89.1893 133.393 89.1893 132.329C89.1893 131.266 89.1893 130.296 89.1893 129.42C89.2518 128.482 89.2831 127.825 89.2831 127.449C89.7211 126.698 90.2216 125.979 90.7847 125.291C91.4104 124.54 92.0361 124.039 92.6617 123.789C93.35 123.476 94.0695 123.414 94.8203 123.601C95.6337 123.789 96.447 124.415 97.2604 125.478V127.449C97.1978 127.762 97.0727 128.513 96.885 129.702C96.6973 130.828 96.4783 132.079 96.228 133.456C95.9778 134.832 95.7275 136.115 95.4772 137.303C95.2895 138.43 95.1957 139.149 95.1957 139.462C95.1957 140.651 95.3208 142.152 95.5711 143.967C95.8214 145.719 96.1655 147.564 96.6035 149.504C97.104 151.444 97.6984 153.383 98.3866 155.323C99.1374 157.262 100.013 159.014 101.014 160.578C102.016 162.08 103.11 163.331 104.299 164.332C105.551 165.334 106.99 165.834 108.616 165.834C110.618 165.834 112.37 165.302 113.872 164.239C115.436 163.175 116.781 161.798 117.908 160.109C119.034 158.42 119.941 156.512 120.629 154.384C121.38 152.257 121.974 150.13 122.412 148.002C122.85 145.813 123.163 143.717 123.351 141.714C123.539 139.712 123.632 137.96 123.632 136.459C123.632 134.957 123.507 133.549 123.257 132.236C123.069 130.859 122.819 129.514 122.506 128.2C122.193 126.886 121.912 125.603 121.662 124.352C121.474 123.038 121.38 121.724 121.38 120.41C121.38 119.222 121.787 118.377 122.6 117.876C123.476 117.376 124.446 117.126 125.509 117.126C126.823 117.126 127.887 117.532 128.7 118.346C129.514 119.096 130.139 120.066 130.577 121.255C131.078 122.444 131.391 123.82 131.516 125.384C131.704 126.886 131.797 128.388 131.797 129.889C131.797 131.391 131.766 132.83 131.704 134.206C131.641 135.52 131.61 136.584 131.61 137.397C131.61 139.525 131.453 141.933 131.14 144.624C130.828 147.314 130.265 150.098 129.451 152.977C128.7 155.792 127.731 158.576 126.542 161.329C125.416 164.082 124.008 166.554 122.319 168.743C120.692 170.871 118.783 172.591 116.594 173.905C114.466 175.219 112.058 175.876 109.367 175.876C106.552 175.876 104.08 175.219 101.953 173.905C99.8257 172.529 98.0112 170.746 96.5096 168.556C95.0706 166.303 93.8505 163.769 92.8494 160.954C91.8484 158.138 91.0663 155.323 90.5032 152.507C90.0026 149.692 89.6272 146.97 89.377 144.342C89.1893 141.652 89.0954 139.337 89.0954 137.397Z"/>
<path d="M139.149 123.183C139.149 121.278 139.401 119.792 139.904 118.726C140.471 117.659 141.635 117.126 143.397 117.126C143.586 117.126 143.932 117.164 144.435 117.24C145.002 117.24 145.348 117.24 145.474 117.24C145.914 119.602 146.355 122.192 146.795 125.011C147.299 127.754 147.865 130.535 148.494 133.354C149.124 136.173 149.816 138.954 150.571 141.697C151.389 144.44 152.365 146.917 153.497 149.126C154.63 147.678 155.448 145.964 155.952 143.983C156.455 142.002 156.833 140.021 157.084 138.04C157.336 135.983 157.556 134.04 157.745 132.212C157.997 130.307 158.469 128.707 159.161 127.411C159.853 126.04 160.86 125.05 162.182 124.44C163.566 123.83 165.454 123.83 167.846 124.44C170.489 124.44 172.597 125.05 174.17 126.269C175.744 127.411 177.097 128.897 178.229 130.726C179.425 132.478 180.558 134.383 181.628 136.44C182.76 138.421 184.176 140.212 185.876 141.812C186.253 140.821 186.725 139.602 187.291 138.154C187.858 136.631 188.55 135.069 189.368 133.469C190.249 131.792 191.162 130.154 192.106 128.554C193.113 126.878 194.151 125.392 195.221 124.097C196.291 122.726 197.392 121.621 198.525 120.783C199.657 119.868 200.759 119.411 201.829 119.411C204.409 119.411 206.643 120.402 208.531 122.383C210.419 124.288 212.023 126.726 213.345 129.697C214.729 132.592 215.862 135.869 216.743 139.526C217.624 143.107 218.317 146.574 218.82 149.926C219.323 153.279 219.67 156.364 219.858 159.183C220.11 161.926 220.236 163.907 220.236 165.126C220.236 166.117 220.047 166.879 219.67 167.412C219.292 167.945 218.82 168.364 218.254 168.669C217.687 168.898 217.058 169.05 216.366 169.126C215.736 169.203 215.139 169.241 214.572 169.241C214.446 169.241 214.257 169.241 214.006 169.241C213.754 169.164 213.471 169.088 213.156 169.012C212.904 168.936 212.558 168.822 212.118 168.669L205.982 134.497C205.982 134.269 205.73 133.85 205.227 133.24C204.723 132.554 204.346 132.135 204.094 131.983C203.905 131.983 203.748 131.945 203.622 131.869C203.496 131.869 203.402 131.869 203.339 131.869C203.276 131.792 203.213 131.754 203.15 131.754C201.829 131.754 200.57 132.402 199.374 133.697C198.241 134.993 197.172 136.631 196.165 138.612C195.158 140.593 194.214 142.802 193.333 145.24C192.452 147.678 191.665 150.117 190.973 152.555C190.281 154.917 189.651 157.126 189.085 159.183C188.582 161.164 188.172 162.688 187.858 163.755C187.606 163.907 187.103 164.06 186.347 164.212C185.592 164.288 185.089 164.326 184.837 164.326C183.075 164.326 181.722 163.602 180.778 162.155C179.834 160.631 179.047 158.764 178.418 156.555C177.852 154.345 177.348 151.945 176.908 149.355C176.53 146.688 176.027 144.25 175.397 142.04C174.831 139.831 174.013 138.002 172.943 136.554C171.936 135.031 170.489 134.269 168.601 134.269C167.909 134.269 167.248 135.107 166.619 136.783C165.989 138.459 165.423 140.593 164.919 143.183C164.416 145.697 163.944 148.44 163.503 151.412C163.063 154.307 162.685 157.05 162.371 159.641C162.119 162.155 161.93 164.288 161.804 166.041C161.678 167.793 161.616 168.669 161.616 168.669C161.49 168.898 161.238 169.164 160.86 169.469C160.483 169.698 160.074 169.964 159.633 170.269C159.256 170.574 158.847 170.803 158.406 170.955C158.028 171.107 157.745 171.184 157.556 171.184C155.794 171.184 154.095 170.231 152.459 168.326C150.823 166.345 149.312 163.831 147.928 160.783C146.606 157.66 145.379 154.231 144.246 150.498C143.177 146.764 142.264 143.107 141.509 139.526C140.754 135.945 140.156 132.707 139.715 129.811C139.338 126.916 139.149 124.707 139.149 123.183Z"/>
</mask>
<path d="M60.3458 123.414C57.9057 122.913 55.4656 121.787 53.0255 120.035C50.5854 118.283 48.2391 116.156 45.9867 113.653C43.7969 111.15 41.7009 108.366 39.6987 105.3C37.7591 102.235 36.0698 99.1376 34.6308 96.0092C33.1917 92.8809 32.0655 89.8464 31.2522 86.9057C30.4388 83.9651 30.0321 81.3372 30.0321 79.0223C30.0321 78.7094 30.0321 78.334 30.0321 77.8961C30.0947 77.4581 30.1572 77.0514 30.2198 76.676C30.3449 76.238 30.5639 75.8939 30.8768 75.6436C31.1896 75.3308 31.5963 75.1744 32.0968 75.1744C33.661 75.1744 35.0062 75.7375 36.1324 76.8637C37.2586 77.9273 38.291 79.3664 39.2295 81.1808C40.168 82.9953 41.0439 85.06 41.8573 87.375C42.6706 89.6899 43.484 92.0362 44.2974 94.4138C45.1733 96.7913 46.0806 99.1376 47.0191 101.453C47.9576 103.768 48.9899 105.832 50.1161 107.647C51.3049 109.461 52.6501 110.931 54.1517 112.058C55.6533 113.121 57.3739 113.653 59.3135 113.653C59.4386 113.653 59.595 113.622 59.7827 113.559C60.033 113.497 60.2207 113.465 60.3458 113.465C62.0977 111.901 63.6619 109.837 65.0384 107.271C66.4774 104.643 67.7913 101.828 68.9801 98.8247C70.1689 95.8215 71.3264 92.7244 72.4526 89.5335C73.5788 86.3426 74.7363 83.3707 75.925 80.6177C77.1764 77.8648 78.459 75.4559 79.7729 73.3912C81.1494 71.3265 82.7136 69.8875 84.4654 69.0741L88.501 73.2035C89.0016 73.7041 89.0641 74.7364 88.6887 76.3006C88.3759 77.8022 87.7815 79.7105 86.9056 82.0255C86.0922 84.2779 85.0598 86.8119 83.8085 89.6274C82.5571 92.3803 81.2432 95.2584 79.8668 98.2616C78.4903 101.265 77.1138 104.268 75.7373 107.271C74.3609 110.212 73.1095 112.996 71.9833 115.624C70.9197 118.252 70.0437 120.598 69.3555 122.663C68.6673 124.727 68.3231 126.354 68.3231 127.543C68.3231 131.297 68.855 134.926 69.9186 138.43C71.0448 141.933 72.2336 145.437 73.4849 148.941C74.7363 152.382 75.8938 155.855 76.9574 159.358C78.021 162.8 78.5529 166.335 78.5529 169.963C78.5529 170.464 78.5529 171.121 78.5529 171.934C78.5529 172.685 78.4277 173.405 78.1775 174.093C77.9898 174.781 77.5831 175.313 76.9574 175.688C76.3943 176.064 75.5496 176.095 74.4234 175.782C72.1084 172.404 70.075 168.587 68.3231 164.332C66.5713 160.015 65.0697 155.542 63.8183 150.912C62.567 146.282 61.6285 141.621 61.0028 136.928C60.4397 132.173 60.2207 127.668 60.3458 123.414Z" fill="#F8F9E6"/>
<path d="M89.0954 137.397C89.0954 137.022 89.0954 136.365 89.0954 135.426C89.158 134.425 89.1893 133.393 89.1893 132.329C89.1893 131.266 89.1893 130.296 89.1893 129.42C89.2518 128.482 89.2831 127.825 89.2831 127.449C89.7211 126.698 90.2216 125.979 90.7847 125.291C91.4104 124.54 92.0361 124.039 92.6617 123.789C93.35 123.476 94.0695 123.414 94.8203 123.601C95.6337 123.789 96.447 124.415 97.2604 125.478V127.449C97.1978 127.762 97.0727 128.513 96.885 129.702C96.6973 130.828 96.4783 132.079 96.228 133.456C95.9778 134.832 95.7275 136.115 95.4772 137.303C95.2895 138.43 95.1957 139.149 95.1957 139.462C95.1957 140.651 95.3208 142.152 95.5711 143.967C95.8214 145.719 96.1655 147.564 96.6035 149.504C97.104 151.444 97.6984 153.383 98.3866 155.323C99.1374 157.262 100.013 159.014 101.014 160.578C102.016 162.08 103.11 163.331 104.299 164.332C105.551 165.334 106.99 165.834 108.616 165.834C110.618 165.834 112.37 165.302 113.872 164.239C115.436 163.175 116.781 161.798 117.908 160.109C119.034 158.42 119.941 156.512 120.629 154.384C121.38 152.257 121.974 150.13 122.412 148.002C122.85 145.813 123.163 143.717 123.351 141.714C123.539 139.712 123.632 137.96 123.632 136.459C123.632 134.957 123.507 133.549 123.257 132.236C123.069 130.859 122.819 129.514 122.506 128.2C122.193 126.886 121.912 125.603 121.662 124.352C121.474 123.038 121.38 121.724 121.38 120.41C121.38 119.222 121.787 118.377 122.6 117.876C123.476 117.376 124.446 117.126 125.509 117.126C126.823 117.126 127.887 117.532 128.7 118.346C129.514 119.096 130.139 120.066 130.577 121.255C131.078 122.444 131.391 123.82 131.516 125.384C131.704 126.886 131.797 128.388 131.797 129.889C131.797 131.391 131.766 132.83 131.704 134.206C131.641 135.52 131.61 136.584 131.61 137.397C131.61 139.525 131.453 141.933 131.14 144.624C130.828 147.314 130.265 150.098 129.451 152.977C128.7 155.792 127.731 158.576 126.542 161.329C125.416 164.082 124.008 166.554 122.319 168.743C120.692 170.871 118.783 172.591 116.594 173.905C114.466 175.219 112.058 175.876 109.367 175.876C106.552 175.876 104.08 175.219 101.953 173.905C99.8257 172.529 98.0112 170.746 96.5096 168.556C95.0706 166.303 93.8505 163.769 92.8494 160.954C91.8484 158.138 91.0663 155.323 90.5032 152.507C90.0026 149.692 89.6272 146.97 89.377 144.342C89.1893 141.652 89.0954 139.337 89.0954 137.397Z" fill="#F8F9E6"/>
<path d="M139.149 123.183C139.149 121.278 139.401 119.792 139.904 118.726C140.471 117.659 141.635 117.126 143.397 117.126C143.586 117.126 143.932 117.164 144.435 117.24C145.002 117.24 145.348 117.24 145.474 117.24C145.914 119.602 146.355 122.192 146.795 125.011C147.299 127.754 147.865 130.535 148.494 133.354C149.124 136.173 149.816 138.954 150.571 141.697C151.389 144.44 152.365 146.917 153.497 149.126C154.63 147.678 155.448 145.964 155.952 143.983C156.455 142.002 156.833 140.021 157.084 138.04C157.336 135.983 157.556 134.04 157.745 132.212C157.997 130.307 158.469 128.707 159.161 127.411C159.853 126.04 160.86 125.05 162.182 124.44C163.566 123.83 165.454 123.83 167.846 124.44C170.489 124.44 172.597 125.05 174.17 126.269C175.744 127.411 177.097 128.897 178.229 130.726C179.425 132.478 180.558 134.383 181.628 136.44C182.76 138.421 184.176 140.212 185.876 141.812C186.253 140.821 186.725 139.602 187.291 138.154C187.858 136.631 188.55 135.069 189.368 133.469C190.249 131.792 191.162 130.154 192.106 128.554C193.113 126.878 194.151 125.392 195.221 124.097C196.291 122.726 197.392 121.621 198.525 120.783C199.657 119.868 200.759 119.411 201.829 119.411C204.409 119.411 206.643 120.402 208.531 122.383C210.419 124.288 212.023 126.726 213.345 129.697C214.729 132.592 215.862 135.869 216.743 139.526C217.624 143.107 218.317 146.574 218.82 149.926C219.323 153.279 219.67 156.364 219.858 159.183C220.11 161.926 220.236 163.907 220.236 165.126C220.236 166.117 220.047 166.879 219.67 167.412C219.292 167.945 218.82 168.364 218.254 168.669C217.687 168.898 217.058 169.05 216.366 169.126C215.736 169.203 215.139 169.241 214.572 169.241C214.446 169.241 214.257 169.241 214.006 169.241C213.754 169.164 213.471 169.088 213.156 169.012C212.904 168.936 212.558 168.822 212.118 168.669L205.982 134.497C205.982 134.269 205.73 133.85 205.227 133.24C204.723 132.554 204.346 132.135 204.094 131.983C203.905 131.983 203.748 131.945 203.622 131.869C203.496 131.869 203.402 131.869 203.339 131.869C203.276 131.792 203.213 131.754 203.15 131.754C201.829 131.754 200.57 132.402 199.374 133.697C198.241 134.993 197.172 136.631 196.165 138.612C195.158 140.593 194.214 142.802 193.333 145.24C192.452 147.678 191.665 150.117 190.973 152.555C190.281 154.917 189.651 157.126 189.085 159.183C188.582 161.164 188.172 162.688 187.858 163.755C187.606 163.907 187.103 164.06 186.347 164.212C185.592 164.288 185.089 164.326 184.837 164.326C183.075 164.326 181.722 163.602 180.778 162.155C179.834 160.631 179.047 158.764 178.418 156.555C177.852 154.345 177.348 151.945 176.908 149.355C176.53 146.688 176.027 144.25 175.397 142.04C174.831 139.831 174.013 138.002 172.943 136.554C171.936 135.031 170.489 134.269 168.601 134.269C167.909 134.269 167.248 135.107 166.619 136.783C165.989 138.459 165.423 140.593 164.919 143.183C164.416 145.697 163.944 148.44 163.503 151.412C163.063 154.307 162.685 157.05 162.371 159.641C162.119 162.155 161.93 164.288 161.804 166.041C161.678 167.793 161.616 168.669 161.616 168.669C161.49 168.898 161.238 169.164 160.86 169.469C160.483 169.698 160.074 169.964 159.633 170.269C159.256 170.574 158.847 170.803 158.406 170.955C158.028 171.107 157.745 171.184 157.556 171.184C155.794 171.184 154.095 170.231 152.459 168.326C150.823 166.345 149.312 163.831 147.928 160.783C146.606 157.66 145.379 154.231 144.246 150.498C143.177 146.764 142.264 143.107 141.509 139.526C140.754 135.945 140.156 132.707 139.715 129.811C139.338 126.916 139.149 124.707 139.149 123.183Z" fill="#F8F9E6"/>
<path d="M60.3458 123.414C57.9057 122.913 55.4656 121.787 53.0255 120.035C50.5854 118.283 48.2391 116.156 45.9867 113.653C43.7969 111.15 41.7009 108.366 39.6987 105.3C37.7591 102.235 36.0698 99.1376 34.6308 96.0092C33.1917 92.8809 32.0655 89.8464 31.2522 86.9057C30.4388 83.9651 30.0321 81.3372 30.0321 79.0223C30.0321 78.7094 30.0321 78.334 30.0321 77.8961C30.0947 77.4581 30.1572 77.0514 30.2198 76.676C30.3449 76.238 30.5639 75.8939 30.8768 75.6436C31.1896 75.3308 31.5963 75.1744 32.0968 75.1744C33.661 75.1744 35.0062 75.7375 36.1324 76.8637C37.2586 77.9273 38.291 79.3664 39.2295 81.1808C40.168 82.9953 41.0439 85.06 41.8573 87.375C42.6706 89.6899 43.484 92.0362 44.2974 94.4138C45.1733 96.7913 46.0806 99.1376 47.0191 101.453C47.9576 103.768 48.9899 105.832 50.1161 107.647C51.3049 109.461 52.6501 110.931 54.1517 112.058C55.6533 113.121 57.3739 113.653 59.3135 113.653C59.4386 113.653 59.595 113.622 59.7827 113.559C60.033 113.497 60.2207 113.465 60.3458 113.465C62.0977 111.901 63.6619 109.837 65.0384 107.271C66.4774 104.643 67.7913 101.828 68.9801 98.8247C70.1689 95.8215 71.3264 92.7244 72.4526 89.5335C73.5788 86.3426 74.7363 83.3707 75.925 80.6177C77.1764 77.8648 78.459 75.4559 79.7729 73.3912C81.1494 71.3265 82.7136 69.8875 84.4654 69.0741L88.501 73.2035C89.0016 73.7041 89.0641 74.7364 88.6887 76.3006C88.3759 77.8022 87.7815 79.7105 86.9056 82.0255C86.0922 84.2779 85.0598 86.8119 83.8085 89.6274C82.5571 92.3803 81.2432 95.2584 79.8668 98.2616C78.4903 101.265 77.1138 104.268 75.7373 107.271C74.3609 110.212 73.1095 112.996 71.9833 115.624C70.9197 118.252 70.0437 120.598 69.3555 122.663C68.6673 124.727 68.3231 126.354 68.3231 127.543C68.3231 131.297 68.855 134.926 69.9186 138.43C71.0448 141.933 72.2336 145.437 73.4849 148.941C74.7363 152.382 75.8938 155.855 76.9574 159.358C78.021 162.8 78.5529 166.335 78.5529 169.963C78.5529 170.464 78.5529 171.121 78.5529 171.934C78.5529 172.685 78.4277 173.405 78.1775 174.093C77.9898 174.781 77.5831 175.313 76.9574 175.688C76.3943 176.064 75.5496 176.095 74.4234 175.782C72.1084 172.404 70.075 168.587 68.3231 164.332C66.5713 160.015 65.0697 155.542 63.8183 150.912C62.567 146.282 61.6285 141.621 61.0028 136.928C60.4397 132.173 60.2207 127.668 60.3458 123.414Z" stroke="#F8F9E6" stroke-width="2" mask="url(#path-5-outside-1_7_73)"/>
<path d="M89.0954 137.397C89.0954 137.022 89.0954 136.365 89.0954 135.426C89.158 134.425 89.1893 133.393 89.1893 132.329C89.1893 131.266 89.1893 130.296 89.1893 129.42C89.2518 128.482 89.2831 127.825 89.2831 127.449C89.7211 126.698 90.2216 125.979 90.7847 125.291C91.4104 124.54 92.0361 124.039 92.6617 123.789C93.35 123.476 94.0695 123.414 94.8203 123.601C95.6337 123.789 96.447 124.415 97.2604 125.478V127.449C97.1978 127.762 97.0727 128.513 96.885 129.702C96.6973 130.828 96.4783 132.079 96.228 133.456C95.9778 134.832 95.7275 136.115 95.4772 137.303C95.2895 138.43 95.1957 139.149 95.1957 139.462C95.1957 140.651 95.3208 142.152 95.5711 143.967C95.8214 145.719 96.1655 147.564 96.6035 149.504C97.104 151.444 97.6984 153.383 98.3866 155.323C99.1374 157.262 100.013 159.014 101.014 160.578C102.016 162.08 103.11 163.331 104.299 164.332C105.551 165.334 106.99 165.834 108.616 165.834C110.618 165.834 112.37 165.302 113.872 164.239C115.436 163.175 116.781 161.798 117.908 160.109C119.034 158.42 119.941 156.512 120.629 154.384C121.38 152.257 121.974 150.13 122.412 148.002C122.85 145.813 123.163 143.717 123.351 141.714C123.539 139.712 123.632 137.96 123.632 136.459C123.632 134.957 123.507 133.549 123.257 132.236C123.069 130.859 122.819 129.514 122.506 128.2C122.193 126.886 121.912 125.603 121.662 124.352C121.474 123.038 121.38 121.724 121.38 120.41C121.38 119.222 121.787 118.377 122.6 117.876C123.476 117.376 124.446 117.126 125.509 117.126C126.823 117.126 127.887 117.532 128.7 118.346C129.514 119.096 130.139 120.066 130.577 121.255C131.078 122.444 131.391 123.82 131.516 125.384C131.704 126.886 131.797 128.388 131.797 129.889C131.797 131.391 131.766 132.83 131.704 134.206C131.641 135.52 131.61 136.584 131.61 137.397C131.61 139.525 131.453 141.933 131.14 144.624C130.828 147.314 130.265 150.098 129.451 152.977C128.7 155.792 127.731 158.576 126.542 161.329C125.416 164.082 124.008 166.554 122.319 168.743C120.692 170.871 118.783 172.591 116.594 173.905C114.466 175.219 112.058 175.876 109.367 175.876C106.552 175.876 104.08 175.219 101.953 173.905C99.8257 172.529 98.0112 170.746 96.5096 168.556C95.0706 166.303 93.8505 163.769 92.8494 160.954C91.8484 158.138 91.0663 155.323 90.5032 152.507C90.0026 149.692 89.6272 146.97 89.377 144.342C89.1893 141.652 89.0954 139.337 89.0954 137.397Z" stroke="#F8F9E6" stroke-width="2" mask="url(#path-5-outside-1_7_73)"/>
<path d="M139.149 123.183C139.149 121.278 139.401 119.792 139.904 118.726C140.471 117.659 141.635 117.126 143.397 117.126C143.586 117.126 143.932 117.164 144.435 117.24C145.002 117.24 145.348 117.24 145.474 117.24C145.914 119.602 146.355 122.192 146.795 125.011C147.299 127.754 147.865 130.535 148.494 133.354C149.124 136.173 149.816 138.954 150.571 141.697C151.389 144.44 152.365 146.917 153.497 149.126C154.63 147.678 155.448 145.964 155.952 143.983C156.455 142.002 156.833 140.021 157.084 138.04C157.336 135.983 157.556 134.04 157.745 132.212C157.997 130.307 158.469 128.707 159.161 127.411C159.853 126.04 160.86 125.05 162.182 124.44C163.566 123.83 165.454 123.83 167.846 124.44C170.489 124.44 172.597 125.05 174.17 126.269C175.744 127.411 177.097 128.897 178.229 130.726C179.425 132.478 180.558 134.383 181.628 136.44C182.76 138.421 184.176 140.212 185.876 141.812C186.253 140.821 186.725 139.602 187.291 138.154C187.858 136.631 188.55 135.069 189.368 133.469C190.249 131.792 191.162 130.154 192.106 128.554C193.113 126.878 194.151 125.392 195.221 124.097C196.291 122.726 197.392 121.621 198.525 120.783C199.657 119.868 200.759 119.411 201.829 119.411C204.409 119.411 206.643 120.402 208.531 122.383C210.419 124.288 212.023 126.726 213.345 129.697C214.729 132.592 215.862 135.869 216.743 139.526C217.624 143.107 218.317 146.574 218.82 149.926C219.323 153.279 219.67 156.364 219.858 159.183C220.11 161.926 220.236 163.907 220.236 165.126C220.236 166.117 220.047 166.879 219.67 167.412C219.292 167.945 218.82 168.364 218.254 168.669C217.687 168.898 217.058 169.05 216.366 169.126C215.736 169.203 215.139 169.241 214.572 169.241C214.446 169.241 214.257 169.241 214.006 169.241C213.754 169.164 213.471 169.088 213.156 169.012C212.904 168.936 212.558 168.822 212.118 168.669L205.982 134.497C205.982 134.269 205.73 133.85 205.227 133.24C204.723 132.554 204.346 132.135 204.094 131.983C203.905 131.983 203.748 131.945 203.622 131.869C203.496 131.869 203.402 131.869 203.339 131.869C203.276 131.792 203.213 131.754 203.15 131.754C201.829 131.754 200.57 132.402 199.374 133.697C198.241 134.993 197.172 136.631 196.165 138.612C195.158 140.593 194.214 142.802 193.333 145.24C192.452 147.678 191.665 150.117 190.973 152.555C190.281 154.917 189.651 157.126 189.085 159.183C188.582 161.164 188.172 162.688 187.858 163.755C187.606 163.907 187.103 164.06 186.347 164.212C185.592 164.288 185.089 164.326 184.837 164.326C183.075 164.326 181.722 163.602 180.778 162.155C179.834 160.631 179.047 158.764 178.418 156.555C177.852 154.345 177.348 151.945 176.908 149.355C176.53 146.688 176.027 144.25 175.397 142.04C174.831 139.831 174.013 138.002 172.943 136.554C171.936 135.031 170.489 134.269 168.601 134.269C167.909 134.269 167.248 135.107 166.619 136.783C165.989 138.459 165.423 140.593 164.919 143.183C164.416 145.697 163.944 148.44 163.503 151.412C163.063 154.307 162.685 157.05 162.371 159.641C162.119 162.155 161.93 164.288 161.804 166.041C161.678 167.793 161.616 168.669 161.616 168.669C161.49 168.898 161.238 169.164 160.86 169.469C160.483 169.698 160.074 169.964 159.633 170.269C159.256 170.574 158.847 170.803 158.406 170.955C158.028 171.107 157.745 171.184 157.556 171.184C155.794 171.184 154.095 170.231 152.459 168.326C150.823 166.345 149.312 163.831 147.928 160.783C146.606 157.66 145.379 154.231 144.246 150.498C143.177 146.764 142.264 143.107 141.509 139.526C140.754 135.945 140.156 132.707 139.715 129.811C139.338 126.916 139.149 124.707 139.149 123.183Z" stroke="#F8F9E6" stroke-width="2" mask="url(#path-5-outside-1_7_73)"/>
<path d="M240.035 162.703L240.027 162.709L240.02 162.715C238.741 163.818 237.592 165.032 236.574 166.358C235.545 167.698 234.927 168.99 234.782 170.228C234.635 171.489 235.006 172.522 235.96 173.211L235.978 173.224L235.998 173.236C236.832 173.731 237.813 174.139 238.935 174.465L238.957 174.471L238.979 174.475C240.183 174.711 241.303 174.889 242.337 175.01L242.36 175.013L242.382 175.013C243.415 175.039 244.094 175.074 244.439 175.114L244.445 175.115L244.452 175.116L244.458 175.116L244.465 175.117L244.471 175.118L244.478 175.119L244.484 175.119L244.491 175.12L244.497 175.121L244.504 175.122L244.51 175.122L244.517 175.123L244.523 175.124L244.53 175.125L244.536 175.125L244.543 175.126L244.549 175.127L244.556 175.128L244.562 175.128L244.568 175.129L244.575 175.13L244.581 175.131L244.588 175.132L244.594 175.132L244.601 175.133L244.607 175.134L244.614 175.135L244.62 175.135L244.627 175.136L244.633 175.137L244.64 175.138L244.646 175.138L244.652 175.139L244.659 175.14L244.665 175.141L244.672 175.141L244.678 175.142L244.685 175.143L244.691 175.144L244.698 175.144L244.704 175.145L244.71 175.146L244.717 175.147L244.723 175.147L244.73 175.148L244.736 175.149L244.743 175.15L244.749 175.15L244.755 175.151L244.762 175.152L244.768 175.153L244.775 175.153L244.781 175.154L244.787 175.155L244.794 175.156L244.8 175.156L244.807 175.157L244.813 175.158L244.819 175.159L244.826 175.159L244.832 175.16L244.839 175.161L244.845 175.162L244.851 175.162L244.858 175.163L244.864 175.164L244.87 175.164L244.877 175.165L244.883 175.166L244.89 175.167L244.896 175.167L244.902 175.168L244.909 175.169L244.915 175.17L244.921 175.17L244.928 175.171L244.934 175.172L244.94 175.173L244.947 175.173L244.953 175.174L244.959 175.175L244.966 175.176L244.972 175.176L244.978 175.177L244.985 175.178L244.991 175.179L244.998 175.179L245.004 175.18L245.01 175.181L245.016 175.182L245.023 175.182L245.029 175.183L245.035 175.184L245.042 175.184L245.048 175.185L245.054 175.186L245.061 175.187L245.067 175.187L245.073 175.188L245.08 175.189L245.086 175.19L245.092 175.19L245.099 175.191L245.105 175.192L245.111 175.193L245.117 175.193L245.124 175.194L245.13 175.195L245.136 175.196L245.143 175.196L245.149 175.197L245.155 175.198L245.161 175.198L245.168 175.199L245.174 175.2L245.18 175.201L245.187 175.201L245.193 175.202L245.199 175.203L245.205 175.204L245.212 175.204L245.218 175.205L245.224 175.206L245.23 175.207L245.237 175.207L245.243 175.208L245.249 175.209L245.255 175.209L245.262 175.21L245.268 175.211L245.274 175.212L245.28 175.212L245.287 175.213L245.293 175.214L245.299 175.215L245.305 175.215L245.311 175.216L245.318 175.217L245.324 175.217L245.33 175.218L245.336 175.219L245.343 175.22L245.349 175.22L245.355 175.221L245.361 175.222L245.367 175.223L245.374 175.223L245.38 175.224L245.386 175.225L245.392 175.225L245.398 175.226L245.405 175.227L245.411 175.228L245.417 175.228L245.423 175.229L245.429 175.23L245.436 175.23L245.442 175.231L245.448 175.232L245.454 175.233L245.46 175.233L245.466 175.234L245.473 175.235L245.479 175.236L245.485 175.236L245.491 175.237L245.497 175.238L245.503 175.238L245.51 175.239L245.516 175.24L245.522 175.241L245.528 175.241L245.534 175.242L245.54 175.243L245.547 175.243L245.553 175.244L245.559 175.245L245.565 175.246L245.571 175.246L245.577 175.247L245.583 175.248L245.589 175.248L245.596 175.249L245.602 175.25L245.608 175.251L245.614 175.251L245.62 175.252L245.626 175.253L245.632 175.253L245.638 175.254L245.645 175.255L245.651 175.256L245.657 175.256L245.663 175.257L245.669 175.258L245.675 175.258L245.681 175.259L245.687 175.26L245.693 175.261L245.699 175.261L245.706 175.262L245.712 175.263L245.718 175.263L245.724 175.264L245.73 175.265L245.736 175.266L245.742 175.266L245.748 175.267L245.754 175.268L245.76 175.268L245.766 175.269L245.772 175.27L245.779 175.271L245.785 175.271L245.791 175.272L245.797 175.273L245.803 175.273L245.809 175.274L245.815 175.275L245.821 175.275L245.827 175.276L245.833 175.277L245.839 175.278L245.845 175.278L245.851 175.279L245.857 175.28L245.863 175.28L245.869 175.281L245.875 175.282L245.881 175.283L245.887 175.283L245.893 175.284L245.899 175.285L245.905 175.285L245.911 175.286L245.917 175.287L245.923 175.287L245.929 175.288L245.935 175.289L245.941 175.29L245.947 175.29L245.954 175.291L245.96 175.292L245.966 175.292L245.972 175.293L245.977 175.294L245.983 175.294L245.989 175.295L245.995 175.296L246.001 175.297L246.007 175.297L246.013 175.298L246.019 175.299L246.025 175.299L246.031 175.3L246.037 175.301L246.043 175.301L246.049 175.302L246.055 175.303L246.061 175.304L246.067 175.304L246.073 175.305L246.079 175.306L246.085 175.306L246.091 175.307L246.097 175.308L246.103 175.308L246.109 175.309L246.115 175.31L246.121 175.31L246.127 175.311L246.133 175.312L246.139 175.313L246.145 175.313L246.15 175.314L246.156 175.315L246.162 175.315L246.168 175.316L246.174 175.317L246.18 175.317L246.186 175.318L246.192 175.319L246.198 175.319L246.204 175.32L246.21 175.321L246.216 175.322L246.222 175.322L246.227 175.323L246.233 175.324L246.239 175.324L246.245 175.325L246.251 175.326L246.257 175.326L246.263 175.327L246.269 175.328L246.275 175.328L246.28 175.329L246.286 175.33L246.292 175.331L246.298 175.331L246.304 175.332L246.31 175.333L246.316 175.333L246.322 175.334L246.328 175.335L246.333 175.335L246.339 175.336L246.345 175.337L246.351 175.337L246.357 175.338L246.363 175.339L246.369 175.339L246.374 175.34L246.38 175.341L246.386 175.341L246.392 175.342L246.398 175.343L246.404 175.344L246.409 175.344L246.415 175.345L246.421 175.346L246.427 175.346L246.433 175.347L246.439 175.348L246.444 175.348L246.45 175.349L246.456 175.35L246.462 175.35L246.468 175.351L246.474 175.352L246.479 175.352L246.485 175.353L246.491 175.354L246.497 175.354L246.503 175.355L246.508 175.356L246.514 175.356L246.52 175.357L246.526 175.358L246.532 175.358L246.537 175.359L246.543 175.36L246.549 175.36L246.555 175.361L246.561 175.362L246.566 175.363L246.572 175.363L246.578 175.364L246.584 175.365L246.589 175.365L246.595 175.366L246.601 175.367L246.607 175.367L246.613 175.368L246.618 175.369L246.624 175.369L246.63 175.37L246.636 175.371L246.641 175.371L246.647 175.372L246.653 175.373L246.659 175.373L246.664 175.374L246.67 175.375L246.676 175.375L246.682 175.376L246.687 175.377L246.693 175.377L246.699 175.378L246.705 175.379L246.71 175.379L246.716 175.38L246.722 175.381L246.727 175.381L246.733 175.382L246.739 175.383L246.745 175.383L246.75 175.384L246.756 175.385L246.762 175.385L246.767 175.386L246.773 175.387L246.779 175.387L246.785 175.388L246.79 175.389L246.796 175.389L246.802 175.39L246.807 175.391L246.813 175.391L246.819 175.392L246.824 175.393L246.83 175.393L246.836 175.394L246.842 175.395L246.847 175.395L246.853 175.396L246.859 175.397L246.864 175.397L246.87 175.398L246.876 175.399L246.881 175.399L246.887 175.4L246.893 175.401L246.898 175.401L246.904 175.402L246.91 175.403L246.915 175.403L246.921 175.404L246.926 175.405L246.932 175.405L246.938 175.406L246.943 175.407L246.949 175.407L246.955 175.408L246.96 175.409L246.966 175.409L246.972 175.41L246.977 175.41L246.983 175.411L246.988 175.412L246.994 175.412L247 175.413L247.005 175.414L247.011 175.414L247.017 175.415L247.022 175.416L247.028 175.416L247.033 175.417L247.039 175.418L247.045 175.418L247.05 175.419L247.056 175.42L247.061 175.42L247.067 175.421L247.073 175.422L247.078 175.422L247.084 175.423L247.089 175.424L247.095 175.424L247.101 175.425L247.106 175.426L247.112 175.426L247.117 175.427L247.123 175.428L247.128 175.428L247.134 175.429L247.14 175.429L247.145 175.43L247.151 175.431L247.156 175.431L247.162 175.432L247.167 175.433L247.173 175.433L247.179 175.434L247.184 175.435L247.19 175.435L247.195 175.436L247.201 175.437L247.206 175.437L247.212 175.438L247.217 175.439L247.223 175.439L247.228 175.44L247.234 175.44L247.24 175.441L247.245 175.442L247.251 175.442L247.256 175.443L247.262 175.444L247.267 175.444L247.273 175.445L247.278 175.446L247.284 175.446L247.289 175.447L247.295 175.448L247.3 175.448L247.306 175.449L247.311 175.449L247.317 175.45L247.322 175.451L247.328 175.451L247.333 175.452L247.339 175.453L247.344 175.453L247.35 175.454L247.355 175.455L247.361 175.455L247.366 175.456L247.372 175.457L247.377 175.457L247.383 175.458L247.388 175.458L247.394 175.459L247.399 175.46L247.404 175.46L247.41 175.461L247.415 175.462L247.421 175.462L247.426 175.463L247.432 175.464L247.437 175.464L247.443 175.465L247.448 175.465L247.454 175.466L247.459 175.467L247.464 175.467L247.47 175.468L247.475 175.469L247.481 175.469L247.486 175.47L247.492 175.471L247.497 175.471C248.56 175.595 249.52 175.56 250.366 175.349L250.392 175.343L250.416 175.334C251.31 175.009 252.061 174.404 252.671 173.551L252.677 173.542L252.683 173.533C253.318 172.562 253.719 171.149 253.929 169.35C253.939 169.263 253.93 169.177 253.923 169.122C253.915 169.057 253.902 168.983 253.885 168.904C253.853 168.748 253.804 168.548 253.739 168.306C253.612 167.698 253.398 167.043 253.102 166.341C252.897 165.655 252.642 165.006 252.335 164.396C252.137 163.729 251.954 163.214 251.783 162.877L251.773 162.858L251.761 162.84C251.425 162.299 250.878 161.606 250.135 160.768C249.817 160.312 249.545 159.953 249.324 159.7C249.212 159.573 249.102 159.46 248.998 159.374C248.914 159.304 248.756 159.186 248.556 159.162C247.235 159.008 245.795 159.305 244.252 160.006L244.245 160.009L244.238 160.012C242.807 160.716 241.407 161.613 240.035 162.703ZM234.887 105.777L234.887 105.777L234.883 105.783C233.21 108.581 232.176 111.692 231.777 115.109C231.611 116.526 231.519 118.137 231.497 119.94C231.476 121.776 231.703 123.548 232.18 125.253L232.185 125.271L232.191 125.288C232.779 126.92 233.63 128.389 234.744 129.693L234.751 129.702L234.759 129.71C235.946 130.983 237.631 131.721 239.753 131.969C240.155 132.016 240.681 131.887 241.268 131.675C241.947 131.472 242.582 131.263 243.173 131.048C243.858 130.843 244.497 130.633 245.092 130.416L245.122 130.406L245.149 130.391C245.761 130.078 246.244 129.759 246.529 129.422L246.674 129.251L246.643 129.029C246.134 125.42 246.131 122.316 246.619 119.707L246.619 119.706C247.123 116.98 247.968 114.487 249.152 112.223C250.349 109.935 251.719 107.76 253.261 105.699C254.824 103.61 256.346 101.47 257.827 99.2767L257.828 99.2767L257.832 99.2701C259.334 96.9685 260.664 94.5055 261.824 91.8818C263.101 89.1441 263.935 86.0754 264.331 82.6806C264.657 79.8918 264.251 77.1195 263.125 74.3709C262.008 71.6469 260.481 69.1625 258.544 66.9196C256.614 64.5788 254.304 62.6268 251.618 61.0644C249.02 59.5101 246.383 58.5703 243.71 58.2581C239.945 57.8185 236.463 58.0826 233.271 59.0615C230.189 59.9562 227.511 61.4326 225.245 63.4924C222.985 65.5475 221.154 68.0826 219.75 71.0896L219.75 71.0895L219.745 71.1021C218.437 74.1158 217.572 77.4608 217.143 81.1332L217.085 81.6298L217.581 81.6878C217.914 81.7266 218.622 81.7044 219.647 81.6384C220.22 81.6098 220.691 81.567 221.053 81.5075C221.234 81.4777 221.397 81.4422 221.537 81.3984C221.661 81.3596 221.8 81.3042 221.919 81.2164C223.166 80.3963 224.433 79.3455 225.719 78.0689C227.072 76.8277 228.459 75.6845 229.88 74.6389L229.888 74.6334L229.895 74.6277C231.315 73.4999 232.801 72.5668 234.355 71.8267C235.959 71.1168 237.589 70.8626 239.256 71.0572C240.396 71.1903 241.565 71.5499 242.764 72.1448C243.958 72.7374 244.993 73.4907 245.873 74.4043L245.883 74.4146L245.894 74.4243C246.774 75.2398 247.46 76.2105 247.951 77.3413L247.961 77.3643L247.973 77.3863C248.546 78.4092 248.763 79.4641 248.634 80.5647C248.251 83.8443 247.21 86.8578 245.511 89.6105L245.511 89.6105L245.508 89.6165C243.881 92.3372 242.121 94.9957 240.229 97.592L240.228 97.5919L240.221 97.6024C238.407 100.229 236.629 102.954 234.887 105.777Z" fill="#F8F9E6" stroke="#F8F9E6"/>
<path d="M58.3438 122.413C55.9037 121.912 53.4635 120.786 51.0234 119.034C48.5833 117.282 46.237 115.155 43.9846 112.652C41.7948 110.149 39.6988 107.365 37.6966 104.299C35.7571 101.234 34.0678 98.1365 32.6287 95.0081C31.1897 91.8798 30.0635 88.8453 29.2501 85.9046C28.4367 82.964 28.03 80.3362 28.03 78.0212C28.03 77.7083 28.03 77.3329 28.03 76.895C28.0926 76.457 28.1552 76.0503 28.2177 75.6749C28.3429 75.2369 28.5618 74.8928 28.8747 74.6426C29.1875 74.3297 29.5942 74.1733 30.0947 74.1733C31.6589 74.1733 33.0041 74.7364 34.1303 75.8626C35.2565 76.9263 36.2889 78.3653 37.2274 80.1797C38.1659 81.9942 39.0418 84.0589 39.8552 86.3739C40.6686 88.6889 41.4819 91.0351 42.2953 93.4127C43.1713 95.7902 44.0785 98.1365 45.017 100.451C45.9555 102.766 46.9878 104.831 48.1141 106.646C49.3028 108.46 50.648 109.93 52.1496 111.057C53.6512 112.12 55.3718 112.652 57.3114 112.652C57.4365 112.652 57.593 112.621 57.7807 112.558C58.0309 112.496 58.2186 112.464 58.3438 112.464C60.0956 110.9 61.6598 108.835 63.0363 106.27C64.4753 103.642 65.7893 100.827 66.978 97.8237C68.1668 94.8204 69.3243 91.7234 70.4505 88.5324C71.5767 85.3415 72.7342 82.3696 73.923 79.6166C75.1743 76.8637 76.4569 74.4549 77.7708 72.3901C79.1473 70.3254 80.7115 68.8864 82.4634 68.073L86.4989 72.2024C86.9995 72.703 87.0621 73.7353 86.6867 75.2995C86.3738 76.8011 85.7794 78.7094 84.9035 81.0244C84.0901 83.2768 83.0578 85.8108 81.8064 88.6263C80.5551 91.3792 79.2412 94.2573 77.8647 97.2606C76.4882 100.264 75.1117 103.267 73.7353 106.27C72.3588 109.211 71.1075 111.995 69.9812 114.623C68.9176 117.251 68.0417 119.597 67.3534 121.662C66.6652 123.726 66.3211 125.353 66.3211 126.542C66.3211 130.296 66.8529 133.925 67.9165 137.429C69.0427 140.932 70.2315 144.436 71.4829 147.94C72.7342 151.381 73.8917 154.854 74.9553 158.357C76.019 161.798 76.5508 165.334 76.5508 168.962C76.5508 169.463 76.5508 170.12 76.5508 170.933C76.5508 171.684 76.4257 172.404 76.1754 173.092C75.9877 173.78 75.581 174.312 74.9553 174.687C74.3922 175.063 73.5476 175.094 72.4214 174.781C70.1064 171.403 68.0729 167.586 66.3211 163.331C64.5692 159.014 63.0676 154.541 61.8162 149.911C60.5649 145.281 59.6264 140.62 59.0007 135.927C58.4376 131.172 58.2186 126.667 58.3438 122.413Z" fill="#080606"/>
<path d="M87.0933 136.396C87.0933 136.021 87.0933 135.364 87.0933 134.425C87.1559 133.424 87.1872 132.392 87.1872 131.328C87.1872 130.265 87.1872 129.295 87.1872 128.419C87.2498 127.48 87.281 126.823 87.281 126.448C87.719 125.697 88.2195 124.978 88.7826 124.29C89.4083 123.539 90.034 123.038 90.6597 122.788C91.3479 122.475 92.0674 122.413 92.8182 122.6C93.6316 122.788 94.445 123.414 95.2583 124.477V126.448C95.1958 126.761 95.0706 127.512 94.8829 128.7C94.6952 129.827 94.4762 131.078 94.226 132.455C93.9757 133.831 93.7254 135.114 93.4752 136.302C93.2875 137.429 93.1936 138.148 93.1936 138.461C93.1936 139.65 93.3188 141.151 93.569 142.966C93.8193 144.718 94.1634 146.563 94.6014 148.503C95.1019 150.443 95.6963 152.382 96.3845 154.322C97.1354 156.261 98.0113 158.013 99.0124 159.577C100.013 161.079 101.108 162.33 102.297 163.331C103.548 164.332 104.988 164.833 106.614 164.833C108.616 164.833 110.368 164.301 111.87 163.238C113.434 162.174 114.779 160.797 115.905 159.108C117.032 157.419 117.939 155.51 118.627 153.383C119.378 151.256 119.972 149.129 120.41 147.001C120.848 144.812 121.161 142.716 121.349 140.713C121.537 138.711 121.63 136.959 121.63 135.458C121.63 133.956 121.505 132.548 121.255 131.234C121.067 129.858 120.817 128.513 120.504 127.199C120.191 125.885 119.91 124.602 119.659 123.351C119.472 122.037 119.378 120.723 119.378 119.409C119.378 118.221 119.785 117.376 120.598 116.875C121.474 116.375 122.444 116.125 123.507 116.125C124.821 116.125 125.885 116.531 126.698 117.345C127.512 118.095 128.137 119.065 128.575 120.254C129.076 121.443 129.389 122.819 129.514 124.383C129.702 125.885 129.795 127.387 129.795 128.888C129.795 130.39 129.764 131.829 129.702 133.205C129.639 134.519 129.608 135.583 129.608 136.396C129.608 138.524 129.451 140.932 129.138 143.623C128.826 146.313 128.262 149.097 127.449 151.975C126.698 154.791 125.728 157.575 124.54 160.328C123.414 163.081 122.006 165.552 120.316 167.742C118.69 169.87 116.781 171.59 114.592 172.904C112.464 174.218 110.055 174.875 107.365 174.875C104.55 174.875 102.078 174.218 99.9509 172.904C97.8236 171.528 96.0091 169.744 94.5075 167.555C93.0685 165.302 91.8484 162.768 90.8474 159.953C89.8463 157.137 89.0642 154.322 88.5011 151.506C88.0006 148.691 87.6252 145.969 87.3749 143.341C87.1872 140.651 87.0933 138.336 87.0933 136.396Z" fill="#080606"/>
<path d="M137.147 122.182C137.147 120.277 137.399 118.791 137.902 117.725C138.469 116.658 139.633 116.125 141.395 116.125C141.584 116.125 141.93 116.163 142.433 116.239C143 116.239 143.346 116.239 143.472 116.239C143.912 118.601 144.353 121.191 144.793 124.01C145.297 126.753 145.863 129.534 146.492 132.353C147.122 135.172 147.814 137.953 148.569 140.696C149.387 143.439 150.363 145.915 151.495 148.125C152.628 146.677 153.446 144.963 153.95 142.982C154.453 141.001 154.831 139.02 155.082 137.039C155.334 134.982 155.554 133.039 155.743 131.21C155.995 129.306 156.467 127.706 157.159 126.41C157.851 125.039 158.858 124.048 160.18 123.439C161.564 122.829 163.452 122.829 165.844 123.439C168.487 123.439 170.595 124.048 172.168 125.268C173.742 126.41 175.095 127.896 176.227 129.725C177.423 131.477 178.556 133.382 179.626 135.439C180.758 137.42 182.174 139.211 183.873 140.811C184.251 139.82 184.723 138.601 185.289 137.153C185.856 135.63 186.548 134.068 187.366 132.468C188.247 130.791 189.16 129.153 190.104 127.553C191.111 125.877 192.149 124.391 193.219 123.096C194.289 121.725 195.39 120.62 196.523 119.782C197.655 118.867 198.757 118.41 199.827 118.41C202.407 118.41 204.641 119.401 206.529 121.382C208.417 123.287 210.021 125.725 211.343 128.696C212.727 131.591 213.86 134.868 214.741 138.525C215.622 142.106 216.315 145.573 216.818 148.925C217.321 152.277 217.668 155.363 217.856 158.182C218.108 160.925 218.234 162.906 218.234 164.125C218.234 165.116 218.045 165.878 217.668 166.411C217.29 166.944 216.818 167.363 216.252 167.668C215.685 167.897 215.056 168.049 214.364 168.125C213.734 168.201 213.136 168.24 212.57 168.24C212.444 168.24 212.255 168.24 212.004 168.24C211.752 168.163 211.469 168.087 211.154 168.011C210.902 167.935 210.556 167.821 210.116 167.668L203.98 133.496C203.98 133.268 203.728 132.849 203.225 132.239C202.721 131.553 202.344 131.134 202.092 130.982C201.903 130.982 201.746 130.944 201.62 130.868C201.494 130.868 201.4 130.868 201.337 130.868C201.274 130.791 201.211 130.753 201.148 130.753C199.827 130.753 198.568 131.401 197.372 132.696C196.239 133.991 195.17 135.63 194.163 137.611C193.156 139.592 192.212 141.801 191.331 144.239C190.45 146.677 189.663 149.115 188.971 151.554C188.279 153.916 187.649 156.125 187.083 158.182C186.579 160.163 186.17 161.687 185.856 162.754C185.604 162.906 185.101 163.059 184.345 163.211C183.59 163.287 183.087 163.325 182.835 163.325C181.073 163.325 179.72 162.601 178.776 161.154C177.832 159.63 177.045 157.763 176.416 155.554C175.85 153.344 175.346 150.944 174.906 148.354C174.528 145.687 174.025 143.249 173.395 141.039C172.829 138.83 172.011 137.001 170.941 135.553C169.934 134.03 168.487 133.268 166.599 133.268C165.907 133.268 165.246 134.106 164.616 135.782C163.987 137.458 163.421 139.592 162.917 142.182C162.414 144.696 161.942 147.439 161.501 150.411C161.061 153.306 160.683 156.049 160.369 158.639C160.117 161.154 159.928 163.287 159.802 165.04C159.676 166.792 159.613 167.668 159.613 167.668C159.488 167.897 159.236 168.163 158.858 168.468C158.481 168.697 158.072 168.963 157.631 169.268C157.254 169.573 156.844 169.802 156.404 169.954C156.026 170.106 155.743 170.182 155.554 170.182C153.792 170.182 152.093 169.23 150.457 167.325C148.821 165.344 147.31 162.83 145.926 159.782C144.604 156.658 143.377 153.23 142.244 149.496C141.175 145.763 140.262 142.106 139.507 138.525C138.752 134.944 138.154 131.706 137.713 128.81C137.336 125.915 137.147 123.706 137.147 122.182Z" fill="#080606"/>
<path d="M233.277 169.285C233.407 168.168 233.971 166.96 234.968 165.662C235.965 164.363 237.091 163.173 238.344 162.093C239.69 161.024 241.061 160.146 242.456 159.46C243.944 158.785 245.291 158.517 246.496 158.658C246.681 158.68 247.096 159.153 247.739 160.077C248.486 160.919 249.018 161.594 249.335 162.103C249.487 162.404 249.665 162.896 249.867 163.58C250.172 164.182 250.426 164.825 250.628 165.509C250.923 166.204 251.13 166.841 251.25 167.421C251.381 167.908 251.441 168.198 251.43 168.291C251.224 170.06 250.835 171.382 250.263 172.259C249.701 173.043 249.028 173.577 248.243 173.863C247.469 174.056 246.572 174.093 245.553 173.974C244.626 173.865 243.607 173.746 242.494 173.616C242.124 173.573 241.423 173.539 240.393 173.513C239.373 173.394 238.267 173.217 237.073 172.983C235.982 172.667 235.042 172.274 234.251 171.805C233.471 171.242 233.146 170.402 233.277 169.285ZM230.271 114.166C230.663 110.815 231.675 107.773 233.31 105.039C235.048 102.222 236.821 99.5047 238.63 96.8856C240.532 94.2772 242.3 91.606 243.935 88.8721C245.673 86.056 246.737 82.9725 247.129 79.6217C247.27 78.4116 247.029 77.2514 246.408 76.141C245.889 74.9483 245.164 73.9201 244.231 73.0564C243.31 72.0997 242.227 71.3129 240.984 70.696C239.741 70.0791 238.517 69.7003 237.312 69.5596C235.551 69.354 233.828 69.6246 232.144 70.3714C230.552 71.129 229.032 72.0836 227.582 73.2352C226.143 74.2937 224.74 75.4507 223.372 76.7062C222.097 77.9725 220.849 79.0061 219.628 79.807C219.421 79.9715 218.75 80.0819 217.616 80.1382C216.575 80.2053 215.915 80.2226 215.637 80.1902C216.061 76.5601 216.916 73.2634 218.201 70.3001C219.579 67.3475 221.372 64.868 223.579 62.8613C225.786 60.8547 228.397 59.4142 231.412 58.5396C234.53 57.5828 237.942 57.3209 241.65 57.7538C244.245 58.0568 246.815 58.9702 249.362 60.4941C252.001 62.0288 254.267 63.9444 256.16 66.2411C258.063 68.4446 259.563 70.8841 260.66 73.5595C261.757 76.235 262.148 78.9223 261.832 81.6216C261.441 84.9724 260.619 87.9899 259.366 90.674C258.217 93.2759 256.898 95.7165 255.411 97.9958C253.934 100.182 252.417 102.316 250.859 104.399C249.3 106.481 247.916 108.678 246.707 110.99C245.497 113.302 244.637 115.843 244.126 118.614C243.625 121.291 243.632 124.453 244.146 128.098C243.928 128.356 243.519 128.638 242.919 128.945C242.331 129.16 241.696 129.369 241.014 129.572C240.425 129.786 239.79 129.995 239.109 130.199C238.52 130.413 238.087 130.504 237.809 130.472C235.77 130.233 234.208 129.532 233.122 128.368C232.048 127.11 231.227 125.693 230.659 124.117C230.195 122.459 229.974 120.735 229.995 118.945C230.016 117.155 230.108 115.562 230.271 114.166Z" fill="#080606"/>
<path d="M58.3438 122.413C55.9037 121.912 53.4635 120.786 51.0234 119.034C48.5833 117.282 46.237 115.155 43.9846 112.652C41.7948 110.149 39.6988 107.365 37.6966 104.299C35.7571 101.234 34.0678 98.1365 32.6287 95.0081C31.1897 91.8798 30.0635 88.8453 29.2501 85.9046C28.4367 82.964 28.03 80.3362 28.03 78.0212C28.03 77.7083 28.03 77.3329 28.03 76.895C28.0926 76.457 28.1552 76.0503 28.2177 75.6749C28.3429 75.2369 28.5618 74.8928 28.8747 74.6426C29.1875 74.3297 29.5942 74.1733 30.0947 74.1733C31.6589 74.1733 33.0041 74.7364 34.1303 75.8626C35.2565 76.9263 36.2889 78.3653 37.2274 80.1797C38.1659 81.9942 39.0418 84.0589 39.8552 86.3739C40.6686 88.6889 41.4819 91.0351 42.2953 93.4127C43.1713 95.7902 44.0785 98.1365 45.017 100.451C45.9555 102.766 46.9878 104.831 48.1141 106.646C49.3028 108.46 50.648 109.93 52.1496 111.057C53.6512 112.12 55.3718 112.652 57.3114 112.652C57.4365 112.652 57.593 112.621 57.7807 112.558C58.0309 112.496 58.2186 112.464 58.3438 112.464C60.0956 110.9 61.6598 108.835 63.0363 106.27C64.4753 103.642 65.7893 100.827 66.978 97.8237C68.1668 94.8204 69.3243 91.7234 70.4505 88.5324C71.5767 85.3415 72.7342 82.3696 73.923 79.6166C75.1743 76.8637 76.4569 74.4549 77.7708 72.3901C79.1473 70.3254 80.7115 68.8864 82.4634 68.073L86.4989 72.2024C86.9995 72.703 87.0621 73.7353 86.6867 75.2995C86.3738 76.8011 85.7794 78.7094 84.9035 81.0244C84.0901 83.2768 83.0578 85.8108 81.8064 88.6263C80.5551 91.3792 79.2412 94.2573 77.8647 97.2606C76.4882 100.264 75.1117 103.267 73.7353 106.27C72.3588 109.211 71.1075 111.995 69.9812 114.623C68.9176 117.251 68.0417 119.597 67.3534 121.662C66.6652 123.726 66.3211 125.353 66.3211 126.542C66.3211 130.296 66.8529 133.925 67.9165 137.429C69.0427 140.932 70.2315 144.436 71.4829 147.94C72.7342 151.381 73.8917 154.854 74.9553 158.357C76.019 161.798 76.5508 165.334 76.5508 168.962C76.5508 169.463 76.5508 170.12 76.5508 170.933C76.5508 171.684 76.4257 172.404 76.1754 173.092C75.9877 173.78 75.581 174.312 74.9553 174.687C74.3922 175.063 73.5476 175.094 72.4214 174.781C70.1064 171.403 68.0729 167.586 66.3211 163.331C64.5692 159.014 63.0676 154.541 61.8162 149.911C60.5649 145.281 59.6264 140.62 59.0007 135.927C58.4376 131.172 58.2186 126.667 58.3438 122.413Z" stroke="#080606"/>
<path d="M87.0933 136.396C87.0933 136.021 87.0933 135.364 87.0933 134.425C87.1559 133.424 87.1872 132.392 87.1872 131.328C87.1872 130.265 87.1872 129.295 87.1872 128.419C87.2498 127.48 87.281 126.823 87.281 126.448C87.719 125.697 88.2195 124.978 88.7826 124.29C89.4083 123.539 90.034 123.038 90.6597 122.788C91.3479 122.475 92.0674 122.413 92.8182 122.6C93.6316 122.788 94.445 123.414 95.2583 124.477V126.448C95.1958 126.761 95.0706 127.512 94.8829 128.7C94.6952 129.827 94.4762 131.078 94.226 132.455C93.9757 133.831 93.7254 135.114 93.4752 136.302C93.2875 137.429 93.1936 138.148 93.1936 138.461C93.1936 139.65 93.3188 141.151 93.569 142.966C93.8193 144.718 94.1634 146.563 94.6014 148.503C95.1019 150.443 95.6963 152.382 96.3845 154.322C97.1354 156.261 98.0113 158.013 99.0124 159.577C100.013 161.079 101.108 162.33 102.297 163.331C103.548 164.332 104.988 164.833 106.614 164.833C108.616 164.833 110.368 164.301 111.87 163.238C113.434 162.174 114.779 160.797 115.905 159.108C117.032 157.419 117.939 155.51 118.627 153.383C119.378 151.256 119.972 149.129 120.41 147.001C120.848 144.812 121.161 142.716 121.349 140.713C121.537 138.711 121.63 136.959 121.63 135.458C121.63 133.956 121.505 132.548 121.255 131.234C121.067 129.858 120.817 128.513 120.504 127.199C120.191 125.885 119.91 124.602 119.659 123.351C119.472 122.037 119.378 120.723 119.378 119.409C119.378 118.221 119.785 117.376 120.598 116.875C121.474 116.375 122.444 116.125 123.507 116.125C124.821 116.125 125.885 116.531 126.698 117.345C127.512 118.095 128.137 119.065 128.575 120.254C129.076 121.443 129.389 122.819 129.514 124.383C129.702 125.885 129.795 127.387 129.795 128.888C129.795 130.39 129.764 131.829 129.702 133.205C129.639 134.519 129.608 135.583 129.608 136.396C129.608 138.524 129.451 140.932 129.138 143.623C128.826 146.313 128.262 149.097 127.449 151.975C126.698 154.791 125.728 157.575 124.54 160.328C123.414 163.081 122.006 165.552 120.316 167.742C118.69 169.87 116.781 171.59 114.592 172.904C112.464 174.218 110.055 174.875 107.365 174.875C104.55 174.875 102.078 174.218 99.9509 172.904C97.8236 171.528 96.0091 169.744 94.5075 167.555C93.0685 165.302 91.8484 162.768 90.8474 159.953C89.8463 157.137 89.0642 154.322 88.5011 151.506C88.0006 148.691 87.6252 145.969 87.3749 143.341C87.1872 140.651 87.0933 138.336 87.0933 136.396Z" stroke="#080606"/>
<path d="M137.147 122.182C137.147 120.277 137.399 118.791 137.902 117.725C138.469 116.658 139.633 116.125 141.395 116.125C141.584 116.125 141.93 116.163 142.433 116.239C143 116.239 143.346 116.239 143.472 116.239C143.912 118.601 144.353 121.191 144.793 124.01C145.297 126.753 145.863 129.534 146.492 132.353C147.122 135.172 147.814 137.953 148.569 140.696C149.387 143.439 150.363 145.915 151.495 148.125C152.628 146.677 153.446 144.963 153.95 142.982C154.453 141.001 154.831 139.02 155.082 137.039C155.334 134.982 155.554 133.039 155.743 131.21C155.995 129.306 156.467 127.706 157.159 126.41C157.851 125.039 158.858 124.048 160.18 123.439C161.564 122.829 163.452 122.829 165.844 123.439C168.487 123.439 170.595 124.048 172.168 125.268C173.742 126.41 175.095 127.896 176.227 129.725C177.423 131.477 178.556 133.382 179.626 135.439C180.758 137.42 182.174 139.211 183.873 140.811C184.251 139.82 184.723 138.601 185.289 137.153C185.856 135.63 186.548 134.068 187.366 132.468C188.247 130.791 189.16 129.153 190.104 127.553C191.111 125.877 192.149 124.391 193.219 123.096C194.289 121.725 195.39 120.62 196.523 119.782C197.655 118.867 198.757 118.41 199.827 118.41C202.407 118.41 204.641 119.401 206.529 121.382C208.417 123.287 210.021 125.725 211.343 128.696C212.727 131.591 213.86 134.868 214.741 138.525C215.622 142.106 216.315 145.573 216.818 148.925C217.321 152.277 217.668 155.363 217.856 158.182C218.108 160.925 218.234 162.906 218.234 164.125C218.234 165.116 218.045 165.878 217.668 166.411C217.29 166.944 216.818 167.363 216.252 167.668C215.685 167.897 215.056 168.049 214.364 168.125C213.734 168.201 213.136 168.24 212.57 168.24C212.444 168.24 212.255 168.24 212.004 168.24C211.752 168.163 211.469 168.087 211.154 168.011C210.902 167.935 210.556 167.821 210.116 167.668L203.98 133.496C203.98 133.268 203.728 132.849 203.225 132.239C202.721 131.553 202.344 131.134 202.092 130.982C201.903 130.982 201.746 130.944 201.62 130.868C201.494 130.868 201.4 130.868 201.337 130.868C201.274 130.791 201.211 130.753 201.148 130.753C199.827 130.753 198.568 131.401 197.372 132.696C196.239 133.991 195.17 135.63 194.163 137.611C193.156 139.592 192.212 141.801 191.331 144.239C190.45 146.677 189.663 149.115 188.971 151.554C188.279 153.916 187.649 156.125 187.083 158.182C186.579 160.163 186.17 161.687 185.856 162.754C185.604 162.906 185.101 163.059 184.345 163.211C183.59 163.287 183.087 163.325 182.835 163.325C181.073 163.325 179.72 162.601 178.776 161.154C177.832 159.63 177.045 157.763 176.416 155.554C175.85 153.344 175.346 150.944 174.906 148.354C174.528 145.687 174.025 143.249 173.395 141.039C172.829 138.83 172.011 137.001 170.941 135.553C169.934 134.03 168.487 133.268 166.599 133.268C165.907 133.268 165.246 134.106 164.616 135.782C163.987 137.458 163.421 139.592 162.917 142.182C162.414 144.696 161.942 147.439 161.501 150.411C161.061 153.306 160.683 156.049 160.369 158.639C160.117 161.154 159.928 163.287 159.802 165.04C159.676 166.792 159.613 167.668 159.613 167.668C159.488 167.897 159.236 168.163 158.858 168.468C158.481 168.697 158.072 168.963 157.631 169.268C157.254 169.573 156.844 169.802 156.404 169.954C156.026 170.106 155.743 170.182 155.554 170.182C153.792 170.182 152.093 169.23 150.457 167.325C148.821 165.344 147.31 162.83 145.926 159.782C144.604 156.658 143.377 153.23 142.244 149.496C141.175 145.763 140.262 142.106 139.507 138.525C138.752 134.944 138.154 131.706 137.713 128.81C137.336 125.915 137.147 123.706 137.147 122.182Z" stroke="#080606"/>
<path d="M233.277 169.285C233.407 168.168 233.971 166.96 234.968 165.662C235.965 164.363 237.091 163.173 238.344 162.093C239.69 161.024 241.061 160.146 242.456 159.46C243.944 158.785 245.291 158.517 246.496 158.658C246.681 158.68 247.096 159.153 247.739 160.077C248.486 160.919 249.018 161.594 249.335 162.103C249.487 162.404 249.665 162.896 249.867 163.58C250.172 164.182 250.426 164.825 250.628 165.509C250.923 166.204 251.13 166.841 251.25 167.421C251.381 167.908 251.441 168.198 251.43 168.291C251.224 170.06 250.835 171.382 250.263 172.259C249.701 173.043 249.028 173.577 248.243 173.863C247.469 174.056 246.572 174.093 245.553 173.974C244.626 173.865 243.607 173.746 242.494 173.616C242.124 173.573 241.423 173.539 240.393 173.513C239.373 173.394 238.267 173.217 237.073 172.983C235.982 172.667 235.042 172.274 234.251 171.805C233.471 171.242 233.146 170.402 233.277 169.285ZM230.271 114.166C230.663 110.815 231.675 107.773 233.31 105.039C235.048 102.222 236.821 99.5047 238.63 96.8856C240.532 94.2772 242.3 91.606 243.935 88.8721C245.673 86.056 246.737 82.9725 247.129 79.6217C247.27 78.4116 247.029 77.2514 246.408 76.141C245.889 74.9483 245.164 73.9201 244.231 73.0564C243.31 72.0997 242.227 71.3129 240.984 70.696C239.741 70.0791 238.517 69.7003 237.312 69.5596C235.551 69.354 233.828 69.6246 232.144 70.3714C230.552 71.129 229.032 72.0836 227.582 73.2352C226.143 74.2937 224.74 75.4507 223.372 76.7062C222.097 77.9725 220.849 79.0061 219.628 79.807C219.421 79.9715 218.75 80.0819 217.616 80.1382C216.575 80.2053 215.915 80.2226 215.637 80.1902C216.061 76.5601 216.916 73.2634 218.201 70.3001C219.579 67.3475 221.372 64.868 223.579 62.8613C225.786 60.8547 228.397 59.4142 231.412 58.5396C234.53 57.5828 237.942 57.3209 241.65 57.7538C244.245 58.0568 246.815 58.9702 249.362 60.4941C252.001 62.0288 254.267 63.9444 256.16 66.2411C258.063 68.4446 259.563 70.8841 260.66 73.5595C261.757 76.235 262.148 78.9223 261.832 81.6216C261.441 84.9724 260.619 87.9899 259.366 90.674C258.217 93.2759 256.898 95.7165 255.411 97.9958C253.934 100.182 252.417 102.316 250.859 104.399C249.3 106.481 247.916 108.678 246.707 110.99C245.497 113.302 244.637 115.843 244.126 118.614C243.625 121.291 243.632 124.453 244.146 128.098C243.928 128.356 243.519 128.638 242.919 128.945C242.331 129.16 241.696 129.369 241.014 129.572C240.425 129.786 239.79 129.995 239.109 130.199C238.52 130.413 238.087 130.504 237.809 130.472C235.77 130.233 234.208 129.532 233.122 128.368C232.048 127.11 231.227 125.693 230.659 124.117C230.195 122.459 229.974 120.735 229.995 118.945C230.016 117.155 230.108 115.562 230.271 114.166Z" stroke="#080606"/>
</svg>
