<svg width="300" height="211" viewBox="0 0 300 211" fill="none" xmlns="http://www.w3.org/2000/svg">
<path opacity="0.6" fill-rule="evenodd" clip-rule="evenodd" d="M146.427 66.593L146.429 66.6295C119.314 69.2254 61.0483 73.8776 39.0355 75.6352C36.2197 75.86 33.997 76.0375 32.5087 76.1572C25.291 76.7379 27.1871 72.5568 32.4364 72.1345C62.62 69.7062 81.7014 56.8595 90.257 49.9518C98.9388 42.9422 112.815 36.9172 120.521 34.1936L120.409 32.8004C119.175 17.4724 125.456 11.3572 133.986 10.671L141.204 10.0903L141.204 10.0902L149.567 9.41741C158.097 8.73114 165.274 13.7636 166.507 29.0916L166.619 30.4848C174.662 31.9415 189.322 35.6707 199.013 41.2022C208.563 46.6533 229.453 56.2843 259.636 53.856C264.885 53.4337 267.418 57.2212 260.201 57.8018C258.794 57.915 256.727 58.0824 254.119 58.2936C232.565 60.0391 174.079 64.7754 146.427 66.593ZM142.909 16.9653L146.19 16.7013C154.376 16.0428 157.736 18.5774 158.465 27.6349L158.689 30.4215C154.088 30.1218 147.629 30.3981 143.454 30.9175C139.25 31.0724 132.832 31.832 128.339 32.8634L128.114 30.0768C127.386 21.0193 130.298 17.98 138.483 17.3214L142.909 16.9654L142.909 16.9653Z" fill="#F79E5D"/>
<path opacity="0.6" fill-rule="evenodd" clip-rule="evenodd" d="M104.035 79.2619C121.085 79.4279 138.104 79.5936 151.034 79.6653L151.034 79.6652C160.78 79.7193 172.808 79.7635 185.402 79.8098C223.025 79.948 265.694 80.1048 267.622 80.5982C269.766 81.1468 269.224 82.128 268.23 83.9267C268.031 84.2864 267.814 84.6789 267.597 85.1071C266.294 87.6765 267.511 100.566 267.511 100.566C269.387 100.577 271.914 101.299 274.712 102.098C279.92 103.586 286.065 105.341 290.686 103.272C297.789 100.09 297.753 106.532 297.732 110.396C297.711 114.261 297.052 116.834 291.262 115.514C287 114.542 281.794 115.408 276.779 116.242C273.466 116.793 270.237 117.33 267.418 117.314C267.413 118.319 267.413 119.485 267.413 120.786C267.413 134.208 267.413 162.068 261.285 177.831C252.79 199.685 223.124 205.962 201.867 205.844C193.564 205.798 185.538 205.686 177.323 205.57C168.714 205.449 159.897 205.325 150.338 205.272L150.338 205.272L98.1624 204.983C76.9059 204.865 47.3112 198.259 39.0589 176.312C33.1065 160.482 33.4156 132.624 33.5645 119.202C33.5789 117.902 33.5919 116.736 33.5974 115.731C30.7789 115.715 27.5558 115.143 24.2494 114.555C19.2437 113.665 14.0473 112.742 9.77502 113.666C3.97063 114.922 3.34078 112.342 3.36222 108.478C3.38365 104.613 3.41938 98.1713 10.487 101.431C15.0848 103.552 21.2485 101.865 26.4727 100.435C29.2791 99.6669 31.8145 98.973 33.6903 98.9834C33.6903 98.9834 35.05 86.1078 33.7761 83.5241C33.5637 83.0935 33.3512 82.6986 33.1564 82.3367C32.1823 80.5271 31.651 79.54 33.8011 79.0151C35.5227 78.5948 69.8419 78.929 104.035 79.2619Z" fill="#F79E5D"/>
<mask id="path-3-outside-1_7_73" maskUnits="userSpaceOnUse" x="29" y="67" width="192" height="110" fill="black">
<rect fill="white" x="29" y="67" width="192" height="110"/>
<path d="M60.2812 123.281C57.8438 122.781 55.4062 121.656 52.9688 119.906C50.5312 118.156 48.1875 116.031 45.9375 113.531C43.75 111.031 41.6562 108.25 39.6562 105.188C37.7188 102.125 36.0312 99.0312 34.5938 95.9062C33.1562 92.7812 32.0312 89.75 31.2188 86.8125C30.4062 83.875 30 81.25 30 78.9375C30 78.625 30 78.25 30 77.8125C30.0625 77.375 30.125 76.9688 30.1875 76.5938C30.3125 76.1562 30.5312 75.8125 30.8438 75.5625C31.1562 75.25 31.5625 75.0938 32.0625 75.0938C33.625 75.0938 34.9688 75.6562 36.0938 76.7812C37.2188 77.8438 38.25 79.2812 39.1875 81.0938C40.125 82.9062 41 84.9688 41.8125 87.2812C42.625 89.5938 43.4375 91.9375 44.25 94.3125C45.125 96.6875 46.0312 99.0312 46.9688 101.344C47.9062 103.656 48.9375 105.719 50.0625 107.531C51.25 109.344 52.5938 110.812 54.0938 111.938C55.5938 113 57.3125 113.531 59.25 113.531C59.375 113.531 59.5312 113.5 59.7188 113.438C59.9688 113.375 60.1562 113.344 60.2812 113.344C62.0312 111.781 63.5938 109.719 64.9688 107.156C66.4062 104.531 67.7188 101.719 68.9062 98.7188C70.0938 95.7188 71.25 92.625 72.375 89.4375C73.5 86.25 74.6562 83.2812 75.8438 80.5312C77.0938 77.7812 78.375 75.375 79.6875 73.3125C81.0625 71.25 82.625 69.8125 84.375 69L88.4062 73.125C88.9062 73.625 88.9688 74.6562 88.5938 76.2188C88.2812 77.7188 87.6875 79.625 86.8125 81.9375C86 84.1875 84.9688 86.7188 83.7188 89.5312C82.4688 92.2812 81.1562 95.1562 79.7812 98.1562C78.4062 101.156 77.0312 104.156 75.6562 107.156C74.2812 110.094 73.0312 112.875 71.9062 115.5C70.8438 118.125 69.9688 120.469 69.2812 122.531C68.5938 124.594 68.25 126.219 68.25 127.406C68.25 131.156 68.7812 134.781 69.8438 138.281C70.9688 141.781 72.1562 145.281 73.4062 148.781C74.6562 152.219 75.8125 155.688 76.875 159.188C77.9375 162.625 78.4688 166.156 78.4688 169.781C78.4688 170.281 78.4688 170.938 78.4688 171.75C78.4688 172.5 78.3438 173.219 78.0938 173.906C77.9062 174.594 77.5 175.125 76.875 175.5C76.3125 175.875 75.4688 175.906 74.3438 175.594C72.0312 172.219 70 168.406 68.25 164.156C66.5 159.844 65 155.375 63.75 150.75C62.5 146.125 61.5625 141.469 60.9375 136.781C60.375 132.031 60.1562 127.531 60.2812 123.281Z"/>
<path d="M89 137.25C89 136.875 89 136.219 89 135.281C89.0625 134.281 89.0938 133.25 89.0938 132.188C89.0938 131.125 89.0938 130.156 89.0938 129.281C89.1562 128.344 89.1875 127.688 89.1875 127.312C89.625 126.562 90.125 125.844 90.6875 125.156C91.3125 124.406 91.9375 123.906 92.5625 123.656C93.25 123.344 93.9688 123.281 94.7188 123.469C95.5312 123.656 96.3438 124.281 97.1562 125.344V127.312C97.0938 127.625 96.9688 128.375 96.7812 129.562C96.5938 130.688 96.375 131.938 96.125 133.312C95.875 134.688 95.625 135.969 95.375 137.156C95.1875 138.281 95.0938 139 95.0938 139.312C95.0938 140.5 95.2188 142 95.4688 143.812C95.7188 145.562 96.0625 147.406 96.5 149.344C97 151.281 97.5938 153.219 98.2812 155.156C99.0312 157.094 99.9062 158.844 100.906 160.406C101.906 161.906 103 163.156 104.188 164.156C105.438 165.156 106.875 165.656 108.5 165.656C110.5 165.656 112.25 165.125 113.75 164.062C115.312 163 116.656 161.625 117.781 159.938C118.906 158.25 119.812 156.344 120.5 154.219C121.25 152.094 121.844 149.969 122.281 147.844C122.719 145.656 123.031 143.562 123.219 141.562C123.406 139.562 123.5 137.812 123.5 136.312C123.5 134.812 123.375 133.406 123.125 132.094C122.938 130.719 122.688 129.375 122.375 128.062C122.062 126.75 121.781 125.469 121.531 124.219C121.344 122.906 121.25 121.594 121.25 120.281C121.25 119.094 121.656 118.25 122.469 117.75C123.344 117.25 124.312 117 125.375 117C126.688 117 127.75 117.406 128.562 118.219C129.375 118.969 130 119.938 130.438 121.125C130.938 122.312 131.25 123.688 131.375 125.25C131.562 126.75 131.656 128.25 131.656 129.75C131.656 131.25 131.625 132.688 131.562 134.062C131.5 135.375 131.469 136.438 131.469 137.25C131.469 139.375 131.312 141.781 131 144.469C130.688 147.156 130.125 149.938 129.312 152.812C128.562 155.625 127.594 158.406 126.406 161.156C125.281 163.906 123.875 166.375 122.188 168.562C120.562 170.688 118.656 172.406 116.469 173.719C114.344 175.031 111.938 175.688 109.25 175.688C106.438 175.688 103.969 175.031 101.844 173.719C99.7188 172.344 97.9062 170.562 96.4062 168.375C94.9688 166.125 93.75 163.594 92.75 160.781C91.75 157.969 90.9688 155.156 90.4062 152.344C89.9062 149.531 89.5312 146.812 89.2812 144.188C89.0938 141.5 89 139.188 89 137.25Z"/>
<path d="M139 123.051C139 121.148 139.251 119.664 139.754 118.598C140.32 117.533 141.483 117 143.243 117C143.432 117 143.778 117.038 144.281 117.114C144.846 117.114 145.192 117.114 145.318 117.114C145.758 119.474 146.198 122.061 146.638 124.877C147.141 127.617 147.707 130.395 148.335 133.211C148.964 136.027 149.655 138.805 150.41 141.545C151.227 144.285 152.201 146.759 153.333 148.966C154.464 147.52 155.282 145.808 155.785 143.829C156.288 141.85 156.665 139.871 156.916 137.892C157.168 135.837 157.388 133.896 157.576 132.07C157.828 130.167 158.299 128.569 158.991 127.275C159.682 125.905 160.688 124.915 162.008 124.307C163.391 123.698 165.277 123.698 167.666 124.307C170.306 124.307 172.412 124.915 173.984 126.133C175.555 127.275 176.907 128.759 178.038 130.586C179.233 132.336 180.364 134.239 181.433 136.294C182.565 138.273 183.979 140.061 185.676 141.66C186.054 140.67 186.525 139.452 187.091 138.006C187.657 136.484 188.348 134.924 189.165 133.326C190.045 131.651 190.957 130.015 191.9 128.416C192.906 126.742 193.943 125.258 195.012 123.964C196.08 122.594 197.18 121.49 198.312 120.653C199.444 119.74 200.544 119.283 201.612 119.283C204.19 119.283 206.421 120.273 208.307 122.252C210.193 124.154 211.796 126.59 213.116 129.558C214.499 132.45 215.631 135.723 216.511 139.376C217.391 142.953 218.083 146.416 218.586 149.765C219.088 153.114 219.434 156.197 219.623 159.013C219.874 161.753 220 163.732 220 164.949C220 165.939 219.811 166.7 219.434 167.233C219.057 167.765 218.586 168.184 218.02 168.488C217.454 168.717 216.825 168.869 216.134 168.945C215.505 169.021 214.908 169.059 214.342 169.059C214.217 169.059 214.028 169.059 213.776 169.059C213.525 168.983 213.242 168.907 212.928 168.831C212.676 168.755 212.331 168.641 211.891 168.488L205.761 134.353C205.761 134.125 205.51 133.706 205.007 133.097C204.504 132.412 204.127 131.994 203.875 131.841C203.687 131.841 203.53 131.803 203.404 131.727C203.278 131.727 203.184 131.727 203.121 131.727C203.058 131.651 202.995 131.613 202.932 131.613C201.612 131.613 200.355 132.26 199.161 133.554C198.029 134.848 196.96 136.484 195.955 138.463C194.949 140.442 194.006 142.649 193.126 145.085C192.246 147.52 191.46 149.956 190.768 152.391C190.077 154.751 189.448 156.958 188.882 159.013C188.38 160.992 187.971 162.514 187.657 163.579C187.405 163.732 186.902 163.884 186.148 164.036C185.393 164.112 184.891 164.15 184.639 164.15C182.879 164.15 181.527 163.427 180.584 161.981C179.641 160.459 178.856 158.594 178.227 156.387C177.661 154.18 177.158 151.782 176.718 149.195C176.341 146.531 175.838 144.095 175.21 141.888C174.644 139.681 173.827 137.854 172.758 136.408C171.752 134.886 170.306 134.125 168.42 134.125C167.729 134.125 167.069 134.962 166.44 136.636C165.811 138.311 165.246 140.442 164.743 143.03C164.24 145.541 163.768 148.281 163.328 151.249C162.888 154.142 162.511 156.882 162.197 159.469C161.945 161.981 161.757 164.112 161.631 165.863C161.505 167.613 161.442 168.488 161.442 168.488C161.317 168.717 161.065 168.983 160.688 169.288C160.311 169.516 159.902 169.782 159.462 170.087C159.085 170.391 158.676 170.619 158.236 170.772C157.859 170.924 157.576 171 157.388 171C155.627 171 153.93 170.049 152.296 168.146C150.661 166.167 149.153 163.655 147.77 160.611C146.449 157.49 145.224 154.066 144.092 150.336C143.023 146.607 142.112 142.953 141.357 139.376C140.603 135.799 140.006 132.564 139.566 129.672C139.189 126.78 139 124.573 139 123.051Z"/>
</mask>
<path d="M60.2812 123.281C57.8438 122.781 55.4062 121.656 52.9688 119.906C50.5312 118.156 48.1875 116.031 45.9375 113.531C43.75 111.031 41.6562 108.25 39.6562 105.188C37.7188 102.125 36.0312 99.0312 34.5938 95.9062C33.1562 92.7812 32.0312 89.75 31.2188 86.8125C30.4062 83.875 30 81.25 30 78.9375C30 78.625 30 78.25 30 77.8125C30.0625 77.375 30.125 76.9688 30.1875 76.5938C30.3125 76.1562 30.5312 75.8125 30.8438 75.5625C31.1562 75.25 31.5625 75.0938 32.0625 75.0938C33.625 75.0938 34.9688 75.6562 36.0938 76.7812C37.2188 77.8438 38.25 79.2812 39.1875 81.0938C40.125 82.9062 41 84.9688 41.8125 87.2812C42.625 89.5938 43.4375 91.9375 44.25 94.3125C45.125 96.6875 46.0312 99.0312 46.9688 101.344C47.9062 103.656 48.9375 105.719 50.0625 107.531C51.25 109.344 52.5938 110.812 54.0938 111.938C55.5938 113 57.3125 113.531 59.25 113.531C59.375 113.531 59.5312 113.5 59.7188 113.438C59.9688 113.375 60.1562 113.344 60.2812 113.344C62.0312 111.781 63.5938 109.719 64.9688 107.156C66.4062 104.531 67.7188 101.719 68.9062 98.7188C70.0938 95.7188 71.25 92.625 72.375 89.4375C73.5 86.25 74.6562 83.2812 75.8438 80.5312C77.0938 77.7812 78.375 75.375 79.6875 73.3125C81.0625 71.25 82.625 69.8125 84.375 69L88.4062 73.125C88.9062 73.625 88.9688 74.6562 88.5938 76.2188C88.2812 77.7188 87.6875 79.625 86.8125 81.9375C86 84.1875 84.9688 86.7188 83.7188 89.5312C82.4688 92.2812 81.1562 95.1562 79.7812 98.1562C78.4062 101.156 77.0312 104.156 75.6562 107.156C74.2812 110.094 73.0312 112.875 71.9062 115.5C70.8438 118.125 69.9688 120.469 69.2812 122.531C68.5938 124.594 68.25 126.219 68.25 127.406C68.25 131.156 68.7812 134.781 69.8438 138.281C70.9688 141.781 72.1562 145.281 73.4062 148.781C74.6562 152.219 75.8125 155.688 76.875 159.188C77.9375 162.625 78.4688 166.156 78.4688 169.781C78.4688 170.281 78.4688 170.938 78.4688 171.75C78.4688 172.5 78.3438 173.219 78.0938 173.906C77.9062 174.594 77.5 175.125 76.875 175.5C76.3125 175.875 75.4688 175.906 74.3438 175.594C72.0312 172.219 70 168.406 68.25 164.156C66.5 159.844 65 155.375 63.75 150.75C62.5 146.125 61.5625 141.469 60.9375 136.781C60.375 132.031 60.1562 127.531 60.2812 123.281Z" fill="#F8F9E6"/>
<path d="M89 137.25C89 136.875 89 136.219 89 135.281C89.0625 134.281 89.0938 133.25 89.0938 132.188C89.0938 131.125 89.0938 130.156 89.0938 129.281C89.1562 128.344 89.1875 127.688 89.1875 127.312C89.625 126.562 90.125 125.844 90.6875 125.156C91.3125 124.406 91.9375 123.906 92.5625 123.656C93.25 123.344 93.9688 123.281 94.7188 123.469C95.5312 123.656 96.3438 124.281 97.1562 125.344V127.312C97.0938 127.625 96.9688 128.375 96.7812 129.562C96.5938 130.688 96.375 131.938 96.125 133.312C95.875 134.688 95.625 135.969 95.375 137.156C95.1875 138.281 95.0938 139 95.0938 139.312C95.0938 140.5 95.2188 142 95.4688 143.812C95.7188 145.562 96.0625 147.406 96.5 149.344C97 151.281 97.5938 153.219 98.2812 155.156C99.0312 157.094 99.9062 158.844 100.906 160.406C101.906 161.906 103 163.156 104.188 164.156C105.438 165.156 106.875 165.656 108.5 165.656C110.5 165.656 112.25 165.125 113.75 164.062C115.312 163 116.656 161.625 117.781 159.938C118.906 158.25 119.812 156.344 120.5 154.219C121.25 152.094 121.844 149.969 122.281 147.844C122.719 145.656 123.031 143.562 123.219 141.562C123.406 139.562 123.5 137.812 123.5 136.312C123.5 134.812 123.375 133.406 123.125 132.094C122.938 130.719 122.688 129.375 122.375 128.062C122.062 126.75 121.781 125.469 121.531 124.219C121.344 122.906 121.25 121.594 121.25 120.281C121.25 119.094 121.656 118.25 122.469 117.75C123.344 117.25 124.312 117 125.375 117C126.688 117 127.75 117.406 128.562 118.219C129.375 118.969 130 119.938 130.438 121.125C130.938 122.312 131.25 123.688 131.375 125.25C131.562 126.75 131.656 128.25 131.656 129.75C131.656 131.25 131.625 132.688 131.562 134.062C131.5 135.375 131.469 136.438 131.469 137.25C131.469 139.375 131.312 141.781 131 144.469C130.688 147.156 130.125 149.938 129.312 152.812C128.562 155.625 127.594 158.406 126.406 161.156C125.281 163.906 123.875 166.375 122.188 168.562C120.562 170.688 118.656 172.406 116.469 173.719C114.344 175.031 111.938 175.688 109.25 175.688C106.438 175.688 103.969 175.031 101.844 173.719C99.7188 172.344 97.9062 170.562 96.4062 168.375C94.9688 166.125 93.75 163.594 92.75 160.781C91.75 157.969 90.9688 155.156 90.4062 152.344C89.9062 149.531 89.5312 146.812 89.2812 144.188C89.0938 141.5 89 139.188 89 137.25Z" fill="#F8F9E6"/>
<path d="M139 123.051C139 121.148 139.251 119.664 139.754 118.598C140.32 117.533 141.483 117 143.243 117C143.432 117 143.778 117.038 144.281 117.114C144.846 117.114 145.192 117.114 145.318 117.114C145.758 119.474 146.198 122.061 146.638 124.877C147.141 127.617 147.707 130.395 148.335 133.211C148.964 136.027 149.655 138.805 150.41 141.545C151.227 144.285 152.201 146.759 153.333 148.966C154.464 147.52 155.282 145.808 155.785 143.829C156.288 141.85 156.665 139.871 156.916 137.892C157.168 135.837 157.388 133.896 157.576 132.07C157.828 130.167 158.299 128.569 158.991 127.275C159.682 125.905 160.688 124.915 162.008 124.307C163.391 123.698 165.277 123.698 167.666 124.307C170.306 124.307 172.412 124.915 173.984 126.133C175.555 127.275 176.907 128.759 178.038 130.586C179.233 132.336 180.364 134.239 181.433 136.294C182.565 138.273 183.979 140.061 185.676 141.66C186.054 140.67 186.525 139.452 187.091 138.006C187.657 136.484 188.348 134.924 189.165 133.326C190.045 131.651 190.957 130.015 191.9 128.416C192.906 126.742 193.943 125.258 195.012 123.964C196.08 122.594 197.18 121.49 198.312 120.653C199.444 119.74 200.544 119.283 201.612 119.283C204.19 119.283 206.421 120.273 208.307 122.252C210.193 124.154 211.796 126.59 213.116 129.558C214.499 132.45 215.631 135.723 216.511 139.376C217.391 142.953 218.083 146.416 218.586 149.765C219.088 153.114 219.434 156.197 219.623 159.013C219.874 161.753 220 163.732 220 164.949C220 165.939 219.811 166.7 219.434 167.233C219.057 167.765 218.586 168.184 218.02 168.488C217.454 168.717 216.825 168.869 216.134 168.945C215.505 169.021 214.908 169.059 214.342 169.059C214.217 169.059 214.028 169.059 213.776 169.059C213.525 168.983 213.242 168.907 212.928 168.831C212.676 168.755 212.331 168.641 211.891 168.488L205.761 134.353C205.761 134.125 205.51 133.706 205.007 133.097C204.504 132.412 204.127 131.994 203.875 131.841C203.687 131.841 203.53 131.803 203.404 131.727C203.278 131.727 203.184 131.727 203.121 131.727C203.058 131.651 202.995 131.613 202.932 131.613C201.612 131.613 200.355 132.26 199.161 133.554C198.029 134.848 196.96 136.484 195.955 138.463C194.949 140.442 194.006 142.649 193.126 145.085C192.246 147.52 191.46 149.956 190.768 152.391C190.077 154.751 189.448 156.958 188.882 159.013C188.38 160.992 187.971 162.514 187.657 163.579C187.405 163.732 186.902 163.884 186.148 164.036C185.393 164.112 184.891 164.15 184.639 164.15C182.879 164.15 181.527 163.427 180.584 161.981C179.641 160.459 178.856 158.594 178.227 156.387C177.661 154.18 177.158 151.782 176.718 149.195C176.341 146.531 175.838 144.095 175.21 141.888C174.644 139.681 173.827 137.854 172.758 136.408C171.752 134.886 170.306 134.125 168.42 134.125C167.729 134.125 167.069 134.962 166.44 136.636C165.811 138.311 165.246 140.442 164.743 143.03C164.24 145.541 163.768 148.281 163.328 151.249C162.888 154.142 162.511 156.882 162.197 159.469C161.945 161.981 161.757 164.112 161.631 165.863C161.505 167.613 161.442 168.488 161.442 168.488C161.317 168.717 161.065 168.983 160.688 169.288C160.311 169.516 159.902 169.782 159.462 170.087C159.085 170.391 158.676 170.619 158.236 170.772C157.859 170.924 157.576 171 157.388 171C155.627 171 153.93 170.049 152.296 168.146C150.661 166.167 149.153 163.655 147.77 160.611C146.449 157.49 145.224 154.066 144.092 150.336C143.023 146.607 142.112 142.953 141.357 139.376C140.603 135.799 140.006 132.564 139.566 129.672C139.189 126.78 139 124.573 139 123.051Z" fill="#F8F9E6"/>
<path d="M60.2812 123.281C57.8438 122.781 55.4062 121.656 52.9688 119.906C50.5312 118.156 48.1875 116.031 45.9375 113.531C43.75 111.031 41.6562 108.25 39.6562 105.188C37.7188 102.125 36.0312 99.0312 34.5938 95.9062C33.1562 92.7812 32.0312 89.75 31.2188 86.8125C30.4062 83.875 30 81.25 30 78.9375C30 78.625 30 78.25 30 77.8125C30.0625 77.375 30.125 76.9688 30.1875 76.5938C30.3125 76.1562 30.5312 75.8125 30.8438 75.5625C31.1562 75.25 31.5625 75.0938 32.0625 75.0938C33.625 75.0938 34.9688 75.6562 36.0938 76.7812C37.2188 77.8438 38.25 79.2812 39.1875 81.0938C40.125 82.9062 41 84.9688 41.8125 87.2812C42.625 89.5938 43.4375 91.9375 44.25 94.3125C45.125 96.6875 46.0312 99.0312 46.9688 101.344C47.9062 103.656 48.9375 105.719 50.0625 107.531C51.25 109.344 52.5938 110.812 54.0938 111.938C55.5938 113 57.3125 113.531 59.25 113.531C59.375 113.531 59.5312 113.5 59.7188 113.438C59.9688 113.375 60.1562 113.344 60.2812 113.344C62.0312 111.781 63.5938 109.719 64.9688 107.156C66.4062 104.531 67.7188 101.719 68.9062 98.7188C70.0938 95.7188 71.25 92.625 72.375 89.4375C73.5 86.25 74.6562 83.2812 75.8438 80.5312C77.0938 77.7812 78.375 75.375 79.6875 73.3125C81.0625 71.25 82.625 69.8125 84.375 69L88.4062 73.125C88.9062 73.625 88.9688 74.6562 88.5938 76.2188C88.2812 77.7188 87.6875 79.625 86.8125 81.9375C86 84.1875 84.9688 86.7188 83.7188 89.5312C82.4688 92.2812 81.1562 95.1562 79.7812 98.1562C78.4062 101.156 77.0312 104.156 75.6562 107.156C74.2812 110.094 73.0312 112.875 71.9062 115.5C70.8438 118.125 69.9688 120.469 69.2812 122.531C68.5938 124.594 68.25 126.219 68.25 127.406C68.25 131.156 68.7812 134.781 69.8438 138.281C70.9688 141.781 72.1562 145.281 73.4062 148.781C74.6562 152.219 75.8125 155.688 76.875 159.188C77.9375 162.625 78.4688 166.156 78.4688 169.781C78.4688 170.281 78.4688 170.938 78.4688 171.75C78.4688 172.5 78.3438 173.219 78.0938 173.906C77.9062 174.594 77.5 175.125 76.875 175.5C76.3125 175.875 75.4688 175.906 74.3438 175.594C72.0312 172.219 70 168.406 68.25 164.156C66.5 159.844 65 155.375 63.75 150.75C62.5 146.125 61.5625 141.469 60.9375 136.781C60.375 132.031 60.1562 127.531 60.2812 123.281Z" stroke="#F8F9E6" stroke-width="2" mask="url(#path-3-outside-1_7_73)"/>
<path d="M89 137.25C89 136.875 89 136.219 89 135.281C89.0625 134.281 89.0938 133.25 89.0938 132.188C89.0938 131.125 89.0938 130.156 89.0938 129.281C89.1562 128.344 89.1875 127.688 89.1875 127.312C89.625 126.562 90.125 125.844 90.6875 125.156C91.3125 124.406 91.9375 123.906 92.5625 123.656C93.25 123.344 93.9688 123.281 94.7188 123.469C95.5312 123.656 96.3438 124.281 97.1562 125.344V127.312C97.0938 127.625 96.9688 128.375 96.7812 129.562C96.5938 130.688 96.375 131.938 96.125 133.312C95.875 134.688 95.625 135.969 95.375 137.156C95.1875 138.281 95.0938 139 95.0938 139.312C95.0938 140.5 95.2188 142 95.4688 143.812C95.7188 145.562 96.0625 147.406 96.5 149.344C97 151.281 97.5938 153.219 98.2812 155.156C99.0312 157.094 99.9062 158.844 100.906 160.406C101.906 161.906 103 163.156 104.188 164.156C105.438 165.156 106.875 165.656 108.5 165.656C110.5 165.656 112.25 165.125 113.75 164.062C115.312 163 116.656 161.625 117.781 159.938C118.906 158.25 119.812 156.344 120.5 154.219C121.25 152.094 121.844 149.969 122.281 147.844C122.719 145.656 123.031 143.562 123.219 141.562C123.406 139.562 123.5 137.812 123.5 136.312C123.5 134.812 123.375 133.406 123.125 132.094C122.938 130.719 122.688 129.375 122.375 128.062C122.062 126.75 121.781 125.469 121.531 124.219C121.344 122.906 121.25 121.594 121.25 120.281C121.25 119.094 121.656 118.25 122.469 117.75C123.344 117.25 124.312 117 125.375 117C126.688 117 127.75 117.406 128.562 118.219C129.375 118.969 130 119.938 130.438 121.125C130.938 122.312 131.25 123.688 131.375 125.25C131.562 126.75 131.656 128.25 131.656 129.75C131.656 131.25 131.625 132.688 131.562 134.062C131.5 135.375 131.469 136.438 131.469 137.25C131.469 139.375 131.312 141.781 131 144.469C130.688 147.156 130.125 149.938 129.312 152.812C128.562 155.625 127.594 158.406 126.406 161.156C125.281 163.906 123.875 166.375 122.188 168.562C120.562 170.688 118.656 172.406 116.469 173.719C114.344 175.031 111.938 175.688 109.25 175.688C106.438 175.688 103.969 175.031 101.844 173.719C99.7188 172.344 97.9062 170.562 96.4062 168.375C94.9688 166.125 93.75 163.594 92.75 160.781C91.75 157.969 90.9688 155.156 90.4062 152.344C89.9062 149.531 89.5312 146.812 89.2812 144.188C89.0938 141.5 89 139.188 89 137.25Z" stroke="#F8F9E6" stroke-width="2" mask="url(#path-3-outside-1_7_73)"/>
<path d="M139 123.051C139 121.148 139.251 119.664 139.754 118.598C140.32 117.533 141.483 117 143.243 117C143.432 117 143.778 117.038 144.281 117.114C144.846 117.114 145.192 117.114 145.318 117.114C145.758 119.474 146.198 122.061 146.638 124.877C147.141 127.617 147.707 130.395 148.335 133.211C148.964 136.027 149.655 138.805 150.41 141.545C151.227 144.285 152.201 146.759 153.333 148.966C154.464 147.52 155.282 145.808 155.785 143.829C156.288 141.85 156.665 139.871 156.916 137.892C157.168 135.837 157.388 133.896 157.576 132.07C157.828 130.167 158.299 128.569 158.991 127.275C159.682 125.905 160.688 124.915 162.008 124.307C163.391 123.698 165.277 123.698 167.666 124.307C170.306 124.307 172.412 124.915 173.984 126.133C175.555 127.275 176.907 128.759 178.038 130.586C179.233 132.336 180.364 134.239 181.433 136.294C182.565 138.273 183.979 140.061 185.676 141.66C186.054 140.67 186.525 139.452 187.091 138.006C187.657 136.484 188.348 134.924 189.165 133.326C190.045 131.651 190.957 130.015 191.9 128.416C192.906 126.742 193.943 125.258 195.012 123.964C196.08 122.594 197.18 121.49 198.312 120.653C199.444 119.74 200.544 119.283 201.612 119.283C204.19 119.283 206.421 120.273 208.307 122.252C210.193 124.154 211.796 126.59 213.116 129.558C214.499 132.45 215.631 135.723 216.511 139.376C217.391 142.953 218.083 146.416 218.586 149.765C219.088 153.114 219.434 156.197 219.623 159.013C219.874 161.753 220 163.732 220 164.949C220 165.939 219.811 166.7 219.434 167.233C219.057 167.765 218.586 168.184 218.02 168.488C217.454 168.717 216.825 168.869 216.134 168.945C215.505 169.021 214.908 169.059 214.342 169.059C214.217 169.059 214.028 169.059 213.776 169.059C213.525 168.983 213.242 168.907 212.928 168.831C212.676 168.755 212.331 168.641 211.891 168.488L205.761 134.353C205.761 134.125 205.51 133.706 205.007 133.097C204.504 132.412 204.127 131.994 203.875 131.841C203.687 131.841 203.53 131.803 203.404 131.727C203.278 131.727 203.184 131.727 203.121 131.727C203.058 131.651 202.995 131.613 202.932 131.613C201.612 131.613 200.355 132.26 199.161 133.554C198.029 134.848 196.96 136.484 195.955 138.463C194.949 140.442 194.006 142.649 193.126 145.085C192.246 147.52 191.46 149.956 190.768 152.391C190.077 154.751 189.448 156.958 188.882 159.013C188.38 160.992 187.971 162.514 187.657 163.579C187.405 163.732 186.902 163.884 186.148 164.036C185.393 164.112 184.891 164.15 184.639 164.15C182.879 164.15 181.527 163.427 180.584 161.981C179.641 160.459 178.856 158.594 178.227 156.387C177.661 154.18 177.158 151.782 176.718 149.195C176.341 146.531 175.838 144.095 175.21 141.888C174.644 139.681 173.827 137.854 172.758 136.408C171.752 134.886 170.306 134.125 168.42 134.125C167.729 134.125 167.069 134.962 166.44 136.636C165.811 138.311 165.246 140.442 164.743 143.03C164.24 145.541 163.768 148.281 163.328 151.249C162.888 154.142 162.511 156.882 162.197 159.469C161.945 161.981 161.757 164.112 161.631 165.863C161.505 167.613 161.442 168.488 161.442 168.488C161.317 168.717 161.065 168.983 160.688 169.288C160.311 169.516 159.902 169.782 159.462 170.087C159.085 170.391 158.676 170.619 158.236 170.772C157.859 170.924 157.576 171 157.388 171C155.627 171 153.93 170.049 152.296 168.146C150.661 166.167 149.153 163.655 147.77 160.611C146.449 157.49 145.224 154.066 144.092 150.336C143.023 146.607 142.112 142.953 141.357 139.376C140.603 135.799 140.006 132.564 139.566 129.672C139.189 126.78 139 124.573 139 123.051Z" stroke="#F8F9E6" stroke-width="2" mask="url(#path-3-outside-1_7_73)"/>
<path d="M239.778 162.528L239.77 162.534L239.762 162.541C238.485 163.642 237.337 164.855 236.32 166.179C235.292 167.518 234.675 168.808 234.53 170.046C234.383 171.305 234.754 172.338 235.707 173.026L235.725 173.039L235.744 173.05C236.578 173.546 237.558 173.953 238.679 174.278L238.701 174.284L238.722 174.289C239.925 174.524 241.044 174.703 242.077 174.823L242.1 174.826L242.123 174.826C243.154 174.852 243.832 174.887 244.177 174.927L244.183 174.928L244.19 174.928L244.196 174.929L244.203 174.93L244.209 174.931L244.216 174.931L244.222 174.932L244.229 174.933L244.235 174.934L244.242 174.935L244.248 174.935L244.255 174.936L244.261 174.937L244.267 174.938L244.274 174.938L244.28 174.939L244.287 174.94L244.293 174.941L244.3 174.941L244.306 174.942L244.313 174.943L244.319 174.944L244.326 174.944L244.332 174.945L244.339 174.946L244.345 174.947L244.352 174.947L244.358 174.948L244.364 174.949L244.371 174.95L244.377 174.95L244.384 174.951L244.39 174.952L244.397 174.953L244.403 174.953L244.41 174.954L244.416 174.955L244.422 174.956L244.429 174.956L244.435 174.957L244.442 174.958L244.448 174.959L244.455 174.959L244.461 174.96L244.467 174.961L244.474 174.962L244.48 174.962L244.487 174.963L244.493 174.964L244.499 174.965L244.506 174.965L244.512 174.966L244.519 174.967L244.525 174.968L244.531 174.968L244.538 174.969L244.544 174.97L244.551 174.971L244.557 174.971L244.563 174.972L244.57 174.973L244.576 174.974L244.582 174.974L244.589 174.975L244.595 174.976L244.602 174.977L244.608 174.977L244.614 174.978L244.621 174.979L244.627 174.98L244.633 174.98L244.64 174.981L244.646 174.982L244.652 174.983L244.659 174.983L244.665 174.984L244.672 174.985L244.678 174.985L244.684 174.986L244.691 174.987L244.697 174.988L244.703 174.988L244.71 174.989L244.716 174.99L244.722 174.991L244.729 174.991L244.735 174.992L244.741 174.993L244.748 174.994L244.754 174.994L244.76 174.995L244.766 174.996L244.773 174.997L244.779 174.997L244.785 174.998L244.792 174.999L244.798 175L244.804 175L244.811 175.001L244.817 175.002L244.823 175.002L244.83 175.003L244.836 175.004L244.842 175.005L244.848 175.005L244.855 175.006L244.861 175.007L244.867 175.008L244.874 175.008L244.88 175.009L244.886 175.01L244.892 175.011L244.899 175.011L244.905 175.012L244.911 175.013L244.917 175.013L244.924 175.014L244.93 175.015L244.936 175.016L244.942 175.016L244.949 175.017L244.955 175.018L244.961 175.019L244.967 175.019L244.974 175.02L244.98 175.021L244.986 175.021L244.992 175.022L244.999 175.023L245.005 175.024L245.011 175.024L245.017 175.025L245.024 175.026L245.03 175.027L245.036 175.027L245.042 175.028L245.048 175.029L245.055 175.029L245.061 175.03L245.067 175.031L245.073 175.032L245.08 175.032L245.086 175.033L245.092 175.034L245.098 175.035L245.104 175.035L245.111 175.036L245.117 175.037L245.123 175.037L245.129 175.038L245.135 175.039L245.142 175.04L245.148 175.04L245.154 175.041L245.16 175.042L245.166 175.043L245.172 175.043L245.179 175.044L245.185 175.045L245.191 175.045L245.197 175.046L245.203 175.047L245.209 175.048L245.216 175.048L245.222 175.049L245.228 175.05L245.234 175.05L245.24 175.051L245.246 175.052L245.253 175.053L245.259 175.053L245.265 175.054L245.271 175.055L245.277 175.055L245.283 175.056L245.289 175.057L245.296 175.058L245.302 175.058L245.308 175.059L245.314 175.06L245.32 175.06L245.326 175.061L245.332 175.062L245.338 175.063L245.345 175.063L245.351 175.064L245.357 175.065L245.363 175.065L245.369 175.066L245.375 175.067L245.381 175.068L245.387 175.068L245.393 175.069L245.4 175.07L245.406 175.07L245.412 175.071L245.418 175.072L245.424 175.073L245.43 175.073L245.436 175.074L245.442 175.075L245.448 175.075L245.454 175.076L245.46 175.077L245.467 175.078L245.473 175.078L245.479 175.079L245.485 175.08L245.491 175.08L245.497 175.081L245.503 175.082L245.509 175.083L245.515 175.083L245.521 175.084L245.527 175.085L245.533 175.085L245.539 175.086L245.545 175.087L245.551 175.087L245.557 175.088L245.563 175.089L245.569 175.09L245.576 175.09L245.582 175.091L245.588 175.092L245.594 175.092L245.6 175.093L245.606 175.094L245.612 175.095L245.618 175.095L245.624 175.096L245.63 175.097L245.636 175.097L245.642 175.098L245.648 175.099L245.654 175.099L245.66 175.1L245.666 175.101L245.672 175.102L245.678 175.102L245.684 175.103L245.69 175.104L245.696 175.104L245.702 175.105L245.708 175.106L245.714 175.106L245.72 175.107L245.726 175.108L245.732 175.109L245.738 175.109L245.744 175.11L245.75 175.111L245.756 175.111L245.762 175.112L245.768 175.113L245.774 175.113L245.78 175.114L245.786 175.115L245.791 175.116L245.797 175.116L245.803 175.117L245.809 175.118L245.815 175.118L245.821 175.119L245.827 175.12L245.833 175.12L245.839 175.121L245.845 175.122L245.851 175.122L245.857 175.123L245.863 175.124L245.869 175.125L245.875 175.125L245.881 175.126L245.887 175.127L245.893 175.127L245.898 175.128L245.904 175.129L245.91 175.129L245.916 175.13L245.922 175.131L245.928 175.131L245.934 175.132L245.94 175.133L245.946 175.134L245.952 175.134L245.958 175.135L245.963 175.136L245.969 175.136L245.975 175.137L245.981 175.138L245.987 175.138L245.993 175.139L245.999 175.14L246.005 175.14L246.011 175.141L246.016 175.142L246.022 175.142L246.028 175.143L246.034 175.144L246.04 175.145L246.046 175.145L246.052 175.146L246.058 175.147L246.063 175.147L246.069 175.148L246.075 175.149L246.081 175.149L246.087 175.15L246.093 175.151L246.099 175.151L246.104 175.152L246.11 175.153L246.116 175.153L246.122 175.154L246.128 175.155L246.134 175.155L246.139 175.156L246.145 175.157L246.151 175.158L246.157 175.158L246.163 175.159L246.169 175.16L246.174 175.16L246.18 175.161L246.186 175.162L246.192 175.162L246.198 175.163L246.204 175.164L246.209 175.164L246.215 175.165L246.221 175.166L246.227 175.166L246.233 175.167L246.238 175.168L246.244 175.168L246.25 175.169L246.256 175.17L246.262 175.17L246.267 175.171L246.273 175.172L246.279 175.172L246.285 175.173L246.291 175.174L246.296 175.174L246.302 175.175L246.308 175.176L246.314 175.176L246.319 175.177L246.325 175.178L246.331 175.178L246.337 175.179L246.342 175.18L246.348 175.181L246.354 175.181L246.36 175.182L246.365 175.183L246.371 175.183L246.377 175.184L246.383 175.185L246.388 175.185L246.394 175.186L246.4 175.187L246.406 175.187L246.411 175.188L246.417 175.189L246.423 175.189L246.429 175.19L246.434 175.191L246.44 175.191L246.446 175.192L246.452 175.193L246.457 175.193L246.463 175.194L246.469 175.195L246.474 175.195L246.48 175.196L246.486 175.197L246.492 175.197L246.497 175.198L246.503 175.199L246.509 175.199L246.514 175.2L246.52 175.201L246.526 175.201L246.531 175.202L246.537 175.203L246.543 175.203L246.549 175.204L246.554 175.205L246.56 175.205L246.566 175.206L246.571 175.207L246.577 175.207L246.583 175.208L246.588 175.209L246.594 175.209L246.6 175.21L246.605 175.211L246.611 175.211L246.617 175.212L246.622 175.213L246.628 175.213L246.634 175.214L246.639 175.214L246.645 175.215L246.65 175.216L246.656 175.216L246.662 175.217L246.667 175.218L246.673 175.218L246.679 175.219L246.684 175.22L246.69 175.22L246.696 175.221L246.701 175.222L246.707 175.222L246.712 175.223L246.718 175.224L246.724 175.224L246.729 175.225L246.735 175.226L246.741 175.226L246.746 175.227L246.752 175.228L246.757 175.228L246.763 175.229L246.769 175.23L246.774 175.23L246.78 175.231L246.785 175.232L246.791 175.232L246.797 175.233L246.802 175.234L246.808 175.234L246.813 175.235L246.819 175.235L246.825 175.236L246.83 175.237L246.836 175.237L246.841 175.238L246.847 175.239L246.852 175.239L246.858 175.24L246.864 175.241L246.869 175.241L246.875 175.242L246.88 175.243L246.886 175.243L246.891 175.244L246.897 175.245L246.902 175.245L246.908 175.246L246.914 175.247L246.919 175.247L246.925 175.248L246.93 175.248L246.936 175.249L246.941 175.25L246.947 175.25L246.952 175.251L246.958 175.252L246.963 175.252L246.969 175.253L246.974 175.254L246.98 175.254L246.986 175.255L246.991 175.256L246.997 175.256L247.002 175.257L247.008 175.258L247.013 175.258L247.019 175.259L247.024 175.259L247.03 175.26L247.035 175.261L247.041 175.261L247.046 175.262L247.052 175.263L247.057 175.263L247.063 175.264L247.068 175.265L247.074 175.265L247.079 175.266L247.085 175.266L247.09 175.267L247.095 175.268L247.101 175.268L247.106 175.269L247.112 175.27L247.117 175.27L247.123 175.271L247.128 175.272L247.134 175.272L247.139 175.273L247.145 175.274L247.15 175.274L247.156 175.275L247.161 175.275L247.167 175.276L247.172 175.277L247.177 175.277L247.183 175.278L247.188 175.279L247.194 175.279L247.199 175.28L247.205 175.281L247.21 175.281L247.215 175.282L247.221 175.282L247.226 175.283L247.232 175.284C248.294 175.408 249.252 175.372 250.098 175.162L250.124 175.156L250.148 175.147C251.041 174.822 251.791 174.217 252.401 173.366L252.407 173.357L252.413 173.348C253.047 172.377 253.448 170.966 253.658 169.169C253.668 169.082 253.659 168.996 253.652 168.941C253.643 168.875 253.63 168.802 253.614 168.723C253.581 168.567 253.532 168.367 253.468 168.126C253.34 167.519 253.127 166.864 252.831 166.162C252.627 165.477 252.372 164.829 252.066 164.22C251.867 163.553 251.684 163.039 251.513 162.703L251.503 162.683L251.492 162.665C251.156 162.125 250.609 161.433 249.867 160.595C249.549 160.14 249.278 159.781 249.057 159.529C248.945 159.401 248.836 159.289 248.731 159.203C248.647 159.133 248.49 159.015 248.29 158.991C246.97 158.837 245.531 159.134 243.99 159.834L243.983 159.837L243.976 159.84C242.547 160.543 241.147 161.44 239.778 162.528ZM234.634 105.663L234.634 105.663L234.631 105.669C232.96 108.465 231.926 111.572 231.528 114.985C231.363 116.401 231.27 118.011 231.249 119.812C231.227 121.646 231.454 123.415 231.931 125.119L231.936 125.137L231.942 125.154C232.529 126.784 233.379 128.252 234.492 129.555L234.499 129.563L234.507 129.571C235.693 130.844 237.376 131.581 239.496 131.828C239.898 131.875 240.423 131.747 241.01 131.534C241.688 131.331 242.323 131.123 242.913 130.908C243.597 130.704 244.236 130.493 244.83 130.277L244.859 130.266L244.887 130.252C245.498 129.939 245.981 129.62 246.266 129.284L246.41 129.113L246.379 128.891C245.871 125.286 245.868 122.185 246.355 119.578L246.356 119.577C246.858 116.855 247.702 114.364 248.885 112.103C250.081 109.817 251.449 107.645 252.99 105.586C254.552 103.5 256.072 101.361 257.552 99.1706L257.552 99.1706L257.556 99.164C259.056 96.8648 260.385 94.4044 261.543 91.7834C262.819 89.0487 263.652 85.9832 264.048 82.5921C264.374 79.8062 263.969 77.0367 262.843 74.291C261.728 71.5698 260.202 69.0881 258.267 66.8475C256.339 64.5092 254.032 62.5593 251.349 60.9985C248.753 59.4459 246.119 58.507 243.449 58.1952C239.688 57.7561 236.209 58.0198 233.021 58.9977C229.942 59.8915 227.267 61.3663 225.003 63.4239C222.745 65.4769 220.916 68.0093 219.514 71.0132L219.514 71.0131L219.509 71.0257C218.203 74.0362 217.338 77.3777 216.91 81.0462L216.852 81.5428L217.348 81.6008C217.68 81.6396 218.388 81.6174 219.411 81.5515C219.984 81.5229 220.455 81.4802 220.816 81.4207C220.997 81.391 221.16 81.3554 221.3 81.3117C221.424 81.2729 221.563 81.2175 221.681 81.1297C222.928 80.3105 224.193 79.2609 225.478 77.9857C226.829 76.7458 228.215 75.6038 229.634 74.5594L229.642 74.5539L229.649 74.5481C231.067 73.4216 232.552 72.4895 234.104 71.7502C235.706 71.0411 237.335 70.7872 238.999 70.9816C240.138 71.1146 241.306 71.4737 242.503 72.068C243.696 72.6599 244.73 73.4124 245.609 74.325L245.619 74.3352L245.63 74.3449C246.509 75.1595 247.194 76.1292 247.685 77.2586L247.695 77.2817L247.707 77.3036C248.279 78.3254 248.495 79.379 248.367 80.4783C247.984 83.7544 246.945 86.7645 245.248 89.5142L245.248 89.5142L245.244 89.5202C243.619 92.238 241.861 94.8936 239.971 97.4871L239.97 97.487L239.963 97.4975C238.151 100.121 236.375 102.843 234.634 105.663Z" fill="#F8F9E6" stroke="#F8F9E6"/>
<mask id="path-5-outside-2_7_73" maskUnits="userSpaceOnUse" x="27" y="66" width="192" height="110" fill="black">
<rect fill="white" x="27" y="66" width="192" height="110"/>
<path d="M58.2812 122.281C55.8438 121.781 53.4062 120.656 50.9688 118.906C48.5312 117.156 46.1875 115.031 43.9375 112.531C41.75 110.031 39.6562 107.25 37.6562 104.188C35.7188 101.125 34.0312 98.0312 32.5938 94.9062C31.1562 91.7812 30.0312 88.75 29.2188 85.8125C28.4062 82.875 28 80.25 28 77.9375C28 77.625 28 77.25 28 76.8125C28.0625 76.375 28.125 75.9688 28.1875 75.5938C28.3125 75.1562 28.5312 74.8125 28.8438 74.5625C29.1562 74.25 29.5625 74.0938 30.0625 74.0938C31.625 74.0938 32.9688 74.6562 34.0938 75.7812C35.2188 76.8438 36.25 78.2812 37.1875 80.0938C38.125 81.9062 39 83.9688 39.8125 86.2812C40.625 88.5938 41.4375 90.9375 42.25 93.3125C43.125 95.6875 44.0312 98.0312 44.9688 100.344C45.9062 102.656 46.9375 104.719 48.0625 106.531C49.25 108.344 50.5938 109.812 52.0938 110.938C53.5938 112 55.3125 112.531 57.25 112.531C57.375 112.531 57.5312 112.5 57.7188 112.438C57.9688 112.375 58.1562 112.344 58.2812 112.344C60.0312 110.781 61.5938 108.719 62.9688 106.156C64.4062 103.531 65.7188 100.719 66.9062 97.7188C68.0938 94.7188 69.25 91.625 70.375 88.4375C71.5 85.25 72.6562 82.2812 73.8438 79.5312C75.0938 76.7812 76.375 74.375 77.6875 72.3125C79.0625 70.25 80.625 68.8125 82.375 68L86.4062 72.125C86.9062 72.625 86.9688 73.6562 86.5938 75.2188C86.2812 76.7188 85.6875 78.625 84.8125 80.9375C84 83.1875 82.9688 85.7188 81.7188 88.5312C80.4688 91.2812 79.1562 94.1562 77.7812 97.1562C76.4062 100.156 75.0312 103.156 73.6562 106.156C72.2812 109.094 71.0312 111.875 69.9062 114.5C68.8438 117.125 67.9688 119.469 67.2812 121.531C66.5938 123.594 66.25 125.219 66.25 126.406C66.25 130.156 66.7812 133.781 67.8438 137.281C68.9688 140.781 70.1562 144.281 71.4062 147.781C72.6562 151.219 73.8125 154.688 74.875 158.188C75.9375 161.625 76.4688 165.156 76.4688 168.781C76.4688 169.281 76.4688 169.938 76.4688 170.75C76.4688 171.5 76.3438 172.219 76.0938 172.906C75.9062 173.594 75.5 174.125 74.875 174.5C74.3125 174.875 73.4688 174.906 72.3438 174.594C70.0312 171.219 68 167.406 66.25 163.156C64.5 158.844 63 154.375 61.75 149.75C60.5 145.125 59.5625 140.469 58.9375 135.781C58.375 131.031 58.1562 126.531 58.2812 122.281Z"/>
<path d="M87 136.25C87 135.875 87 135.219 87 134.281C87.0625 133.281 87.0938 132.25 87.0938 131.188C87.0938 130.125 87.0938 129.156 87.0938 128.281C87.1562 127.344 87.1875 126.688 87.1875 126.312C87.625 125.562 88.125 124.844 88.6875 124.156C89.3125 123.406 89.9375 122.906 90.5625 122.656C91.25 122.344 91.9688 122.281 92.7188 122.469C93.5312 122.656 94.3438 123.281 95.1562 124.344V126.312C95.0938 126.625 94.9688 127.375 94.7812 128.562C94.5938 129.688 94.375 130.938 94.125 132.312C93.875 133.688 93.625 134.969 93.375 136.156C93.1875 137.281 93.0938 138 93.0938 138.312C93.0938 139.5 93.2188 141 93.4688 142.812C93.7188 144.562 94.0625 146.406 94.5 148.344C95 150.281 95.5938 152.219 96.2812 154.156C97.0312 156.094 97.9062 157.844 98.9062 159.406C99.9062 160.906 101 162.156 102.188 163.156C103.438 164.156 104.875 164.656 106.5 164.656C108.5 164.656 110.25 164.125 111.75 163.062C113.312 162 114.656 160.625 115.781 158.938C116.906 157.25 117.812 155.344 118.5 153.219C119.25 151.094 119.844 148.969 120.281 146.844C120.719 144.656 121.031 142.562 121.219 140.562C121.406 138.562 121.5 136.812 121.5 135.312C121.5 133.812 121.375 132.406 121.125 131.094C120.938 129.719 120.688 128.375 120.375 127.062C120.062 125.75 119.781 124.469 119.531 123.219C119.344 121.906 119.25 120.594 119.25 119.281C119.25 118.094 119.656 117.25 120.469 116.75C121.344 116.25 122.312 116 123.375 116C124.688 116 125.75 116.406 126.562 117.219C127.375 117.969 128 118.938 128.438 120.125C128.938 121.312 129.25 122.688 129.375 124.25C129.562 125.75 129.656 127.25 129.656 128.75C129.656 130.25 129.625 131.688 129.562 133.062C129.5 134.375 129.469 135.438 129.469 136.25C129.469 138.375 129.312 140.781 129 143.469C128.688 146.156 128.125 148.938 127.312 151.812C126.562 154.625 125.594 157.406 124.406 160.156C123.281 162.906 121.875 165.375 120.188 167.562C118.562 169.688 116.656 171.406 114.469 172.719C112.344 174.031 109.938 174.688 107.25 174.688C104.438 174.688 101.969 174.031 99.8438 172.719C97.7188 171.344 95.9062 169.562 94.4062 167.375C92.9688 165.125 91.75 162.594 90.75 159.781C89.75 156.969 88.9688 154.156 88.4062 151.344C87.9062 148.531 87.5312 145.812 87.2812 143.188C87.0938 140.5 87 138.188 87 136.25Z"/>
<path d="M137 122.051C137 120.148 137.251 118.664 137.754 117.598C138.32 116.533 139.483 116 141.243 116C141.432 116 141.778 116.038 142.281 116.114C142.846 116.114 143.192 116.114 143.318 116.114C143.758 118.474 144.198 121.061 144.638 123.877C145.141 126.617 145.707 129.395 146.335 132.211C146.964 135.027 147.655 137.805 148.41 140.545C149.227 143.285 150.201 145.759 151.333 147.966C152.464 146.52 153.282 144.808 153.785 142.829C154.288 140.85 154.665 138.871 154.916 136.892C155.168 134.837 155.388 132.896 155.576 131.07C155.828 129.167 156.299 127.569 156.991 126.275C157.682 124.905 158.688 123.915 160.008 123.307C161.391 122.698 163.277 122.698 165.666 123.307C168.306 123.307 170.412 123.915 171.984 125.133C173.555 126.275 174.907 127.759 176.038 129.586C177.233 131.336 178.364 133.239 179.433 135.294C180.565 137.273 181.979 139.061 183.676 140.66C184.054 139.67 184.525 138.452 185.091 137.006C185.657 135.484 186.348 133.924 187.165 132.326C188.045 130.651 188.957 129.015 189.9 127.416C190.906 125.742 191.943 124.258 193.012 122.964C194.08 121.594 195.18 120.49 196.312 119.653C197.444 118.74 198.544 118.283 199.612 118.283C202.19 118.283 204.421 119.273 206.307 121.252C208.193 123.154 209.796 125.59 211.116 128.558C212.499 131.45 213.631 134.723 214.511 138.376C215.391 141.953 216.083 145.416 216.586 148.765C217.088 152.114 217.434 155.197 217.623 158.013C217.874 160.753 218 162.732 218 163.949C218 164.939 217.811 165.7 217.434 166.233C217.057 166.765 216.586 167.184 216.02 167.488C215.454 167.717 214.825 167.869 214.134 167.945C213.505 168.021 212.908 168.059 212.342 168.059C212.217 168.059 212.028 168.059 211.776 168.059C211.525 167.983 211.242 167.907 210.928 167.831C210.676 167.755 210.331 167.641 209.891 167.488L203.761 133.353C203.761 133.125 203.51 132.706 203.007 132.097C202.504 131.412 202.127 130.994 201.875 130.841C201.687 130.841 201.53 130.803 201.404 130.727C201.278 130.727 201.184 130.727 201.121 130.727C201.058 130.651 200.995 130.613 200.932 130.613C199.612 130.613 198.355 131.26 197.161 132.554C196.029 133.848 194.96 135.484 193.955 137.463C192.949 139.442 192.006 141.649 191.126 144.085C190.246 146.52 189.46 148.956 188.768 151.391C188.077 153.751 187.448 155.958 186.882 158.013C186.38 159.992 185.971 161.514 185.657 162.579C185.405 162.732 184.902 162.884 184.148 163.036C183.393 163.112 182.891 163.15 182.639 163.15C180.879 163.15 179.527 162.427 178.584 160.981C177.641 159.459 176.856 157.594 176.227 155.387C175.661 153.18 175.158 150.782 174.718 148.195C174.341 145.531 173.838 143.095 173.21 140.888C172.644 138.681 171.827 136.854 170.758 135.408C169.752 133.886 168.306 133.125 166.42 133.125C165.729 133.125 165.069 133.962 164.44 135.636C163.811 137.311 163.246 139.442 162.743 142.03C162.24 144.541 161.768 147.281 161.328 150.249C160.888 153.142 160.511 155.882 160.197 158.469C159.945 160.981 159.757 163.112 159.631 164.863C159.505 166.613 159.442 167.488 159.442 167.488C159.317 167.717 159.065 167.983 158.688 168.288C158.311 168.516 157.902 168.782 157.462 169.087C157.085 169.391 156.676 169.619 156.236 169.772C155.859 169.924 155.576 170 155.388 170C153.627 170 151.93 169.049 150.296 167.146C148.661 165.167 147.153 162.655 145.77 159.611C144.449 156.49 143.224 153.066 142.092 149.336C141.023 145.607 140.112 141.953 139.357 138.376C138.603 134.799 138.006 131.564 137.566 128.672C137.189 125.78 137 123.573 137 122.051Z"/>
</mask>
<path d="M58.2812 122.281C55.8438 121.781 53.4062 120.656 50.9688 118.906C48.5312 117.156 46.1875 115.031 43.9375 112.531C41.75 110.031 39.6562 107.25 37.6562 104.188C35.7188 101.125 34.0312 98.0312 32.5938 94.9062C31.1562 91.7812 30.0312 88.75 29.2188 85.8125C28.4062 82.875 28 80.25 28 77.9375C28 77.625 28 77.25 28 76.8125C28.0625 76.375 28.125 75.9688 28.1875 75.5938C28.3125 75.1562 28.5312 74.8125 28.8438 74.5625C29.1562 74.25 29.5625 74.0938 30.0625 74.0938C31.625 74.0938 32.9688 74.6562 34.0938 75.7812C35.2188 76.8438 36.25 78.2812 37.1875 80.0938C38.125 81.9062 39 83.9688 39.8125 86.2812C40.625 88.5938 41.4375 90.9375 42.25 93.3125C43.125 95.6875 44.0312 98.0312 44.9688 100.344C45.9062 102.656 46.9375 104.719 48.0625 106.531C49.25 108.344 50.5938 109.812 52.0938 110.938C53.5938 112 55.3125 112.531 57.25 112.531C57.375 112.531 57.5312 112.5 57.7188 112.438C57.9688 112.375 58.1562 112.344 58.2812 112.344C60.0312 110.781 61.5938 108.719 62.9688 106.156C64.4062 103.531 65.7188 100.719 66.9062 97.7188C68.0938 94.7188 69.25 91.625 70.375 88.4375C71.5 85.25 72.6562 82.2812 73.8438 79.5312C75.0938 76.7812 76.375 74.375 77.6875 72.3125C79.0625 70.25 80.625 68.8125 82.375 68L86.4062 72.125C86.9062 72.625 86.9688 73.6562 86.5938 75.2188C86.2812 76.7188 85.6875 78.625 84.8125 80.9375C84 83.1875 82.9688 85.7188 81.7188 88.5312C80.4688 91.2812 79.1562 94.1562 77.7812 97.1562C76.4062 100.156 75.0312 103.156 73.6562 106.156C72.2812 109.094 71.0312 111.875 69.9062 114.5C68.8438 117.125 67.9688 119.469 67.2812 121.531C66.5938 123.594 66.25 125.219 66.25 126.406C66.25 130.156 66.7812 133.781 67.8438 137.281C68.9688 140.781 70.1562 144.281 71.4062 147.781C72.6562 151.219 73.8125 154.688 74.875 158.188C75.9375 161.625 76.4688 165.156 76.4688 168.781C76.4688 169.281 76.4688 169.938 76.4688 170.75C76.4688 171.5 76.3438 172.219 76.0938 172.906C75.9062 173.594 75.5 174.125 74.875 174.5C74.3125 174.875 73.4688 174.906 72.3438 174.594C70.0312 171.219 68 167.406 66.25 163.156C64.5 158.844 63 154.375 61.75 149.75C60.5 145.125 59.5625 140.469 58.9375 135.781C58.375 131.031 58.1562 126.531 58.2812 122.281Z" fill="#080606"/>
<path d="M87 136.25C87 135.875 87 135.219 87 134.281C87.0625 133.281 87.0938 132.25 87.0938 131.188C87.0938 130.125 87.0938 129.156 87.0938 128.281C87.1562 127.344 87.1875 126.688 87.1875 126.312C87.625 125.562 88.125 124.844 88.6875 124.156C89.3125 123.406 89.9375 122.906 90.5625 122.656C91.25 122.344 91.9688 122.281 92.7188 122.469C93.5312 122.656 94.3438 123.281 95.1562 124.344V126.312C95.0938 126.625 94.9688 127.375 94.7812 128.562C94.5938 129.688 94.375 130.938 94.125 132.312C93.875 133.688 93.625 134.969 93.375 136.156C93.1875 137.281 93.0938 138 93.0938 138.312C93.0938 139.5 93.2188 141 93.4688 142.812C93.7188 144.562 94.0625 146.406 94.5 148.344C95 150.281 95.5938 152.219 96.2812 154.156C97.0312 156.094 97.9062 157.844 98.9062 159.406C99.9062 160.906 101 162.156 102.188 163.156C103.438 164.156 104.875 164.656 106.5 164.656C108.5 164.656 110.25 164.125 111.75 163.062C113.312 162 114.656 160.625 115.781 158.938C116.906 157.25 117.812 155.344 118.5 153.219C119.25 151.094 119.844 148.969 120.281 146.844C120.719 144.656 121.031 142.562 121.219 140.562C121.406 138.562 121.5 136.812 121.5 135.312C121.5 133.812 121.375 132.406 121.125 131.094C120.938 129.719 120.688 128.375 120.375 127.062C120.062 125.75 119.781 124.469 119.531 123.219C119.344 121.906 119.25 120.594 119.25 119.281C119.25 118.094 119.656 117.25 120.469 116.75C121.344 116.25 122.312 116 123.375 116C124.688 116 125.75 116.406 126.562 117.219C127.375 117.969 128 118.938 128.438 120.125C128.938 121.312 129.25 122.688 129.375 124.25C129.562 125.75 129.656 127.25 129.656 128.75C129.656 130.25 129.625 131.688 129.562 133.062C129.5 134.375 129.469 135.438 129.469 136.25C129.469 138.375 129.312 140.781 129 143.469C128.688 146.156 128.125 148.938 127.312 151.812C126.562 154.625 125.594 157.406 124.406 160.156C123.281 162.906 121.875 165.375 120.188 167.562C118.562 169.688 116.656 171.406 114.469 172.719C112.344 174.031 109.938 174.688 107.25 174.688C104.438 174.688 101.969 174.031 99.8438 172.719C97.7188 171.344 95.9062 169.562 94.4062 167.375C92.9688 165.125 91.75 162.594 90.75 159.781C89.75 156.969 88.9688 154.156 88.4062 151.344C87.9062 148.531 87.5312 145.812 87.2812 143.188C87.0938 140.5 87 138.188 87 136.25Z" fill="#080606"/>
<path d="M137 122.051C137 120.148 137.251 118.664 137.754 117.598C138.32 116.533 139.483 116 141.243 116C141.432 116 141.778 116.038 142.281 116.114C142.846 116.114 143.192 116.114 143.318 116.114C143.758 118.474 144.198 121.061 144.638 123.877C145.141 126.617 145.707 129.395 146.335 132.211C146.964 135.027 147.655 137.805 148.41 140.545C149.227 143.285 150.201 145.759 151.333 147.966C152.464 146.52 153.282 144.808 153.785 142.829C154.288 140.85 154.665 138.871 154.916 136.892C155.168 134.837 155.388 132.896 155.576 131.07C155.828 129.167 156.299 127.569 156.991 126.275C157.682 124.905 158.688 123.915 160.008 123.307C161.391 122.698 163.277 122.698 165.666 123.307C168.306 123.307 170.412 123.915 171.984 125.133C173.555 126.275 174.907 127.759 176.038 129.586C177.233 131.336 178.364 133.239 179.433 135.294C180.565 137.273 181.979 139.061 183.676 140.66C184.054 139.67 184.525 138.452 185.091 137.006C185.657 135.484 186.348 133.924 187.165 132.326C188.045 130.651 188.957 129.015 189.9 127.416C190.906 125.742 191.943 124.258 193.012 122.964C194.08 121.594 195.18 120.49 196.312 119.653C197.444 118.74 198.544 118.283 199.612 118.283C202.19 118.283 204.421 119.273 206.307 121.252C208.193 123.154 209.796 125.59 211.116 128.558C212.499 131.45 213.631 134.723 214.511 138.376C215.391 141.953 216.083 145.416 216.586 148.765C217.088 152.114 217.434 155.197 217.623 158.013C217.874 160.753 218 162.732 218 163.949C218 164.939 217.811 165.7 217.434 166.233C217.057 166.765 216.586 167.184 216.02 167.488C215.454 167.717 214.825 167.869 214.134 167.945C213.505 168.021 212.908 168.059 212.342 168.059C212.217 168.059 212.028 168.059 211.776 168.059C211.525 167.983 211.242 167.907 210.928 167.831C210.676 167.755 210.331 167.641 209.891 167.488L203.761 133.353C203.761 133.125 203.51 132.706 203.007 132.097C202.504 131.412 202.127 130.994 201.875 130.841C201.687 130.841 201.53 130.803 201.404 130.727C201.278 130.727 201.184 130.727 201.121 130.727C201.058 130.651 200.995 130.613 200.932 130.613C199.612 130.613 198.355 131.26 197.161 132.554C196.029 133.848 194.96 135.484 193.955 137.463C192.949 139.442 192.006 141.649 191.126 144.085C190.246 146.52 189.46 148.956 188.768 151.391C188.077 153.751 187.448 155.958 186.882 158.013C186.38 159.992 185.971 161.514 185.657 162.579C185.405 162.732 184.902 162.884 184.148 163.036C183.393 163.112 182.891 163.15 182.639 163.15C180.879 163.15 179.527 162.427 178.584 160.981C177.641 159.459 176.856 157.594 176.227 155.387C175.661 153.18 175.158 150.782 174.718 148.195C174.341 145.531 173.838 143.095 173.21 140.888C172.644 138.681 171.827 136.854 170.758 135.408C169.752 133.886 168.306 133.125 166.42 133.125C165.729 133.125 165.069 133.962 164.44 135.636C163.811 137.311 163.246 139.442 162.743 142.03C162.24 144.541 161.768 147.281 161.328 150.249C160.888 153.142 160.511 155.882 160.197 158.469C159.945 160.981 159.757 163.112 159.631 164.863C159.505 166.613 159.442 167.488 159.442 167.488C159.317 167.717 159.065 167.983 158.688 168.288C158.311 168.516 157.902 168.782 157.462 169.087C157.085 169.391 156.676 169.619 156.236 169.772C155.859 169.924 155.576 170 155.388 170C153.627 170 151.93 169.049 150.296 167.146C148.661 165.167 147.153 162.655 145.77 159.611C144.449 156.49 143.224 153.066 142.092 149.336C141.023 145.607 140.112 141.953 139.357 138.376C138.603 134.799 138.006 131.564 137.566 128.672C137.189 125.78 137 123.573 137 122.051Z" fill="#080606"/>
<path d="M58.2812 122.281C55.8438 121.781 53.4062 120.656 50.9688 118.906C48.5312 117.156 46.1875 115.031 43.9375 112.531C41.75 110.031 39.6562 107.25 37.6562 104.188C35.7188 101.125 34.0312 98.0312 32.5938 94.9062C31.1562 91.7812 30.0312 88.75 29.2188 85.8125C28.4062 82.875 28 80.25 28 77.9375C28 77.625 28 77.25 28 76.8125C28.0625 76.375 28.125 75.9688 28.1875 75.5938C28.3125 75.1562 28.5312 74.8125 28.8438 74.5625C29.1562 74.25 29.5625 74.0938 30.0625 74.0938C31.625 74.0938 32.9688 74.6562 34.0938 75.7812C35.2188 76.8438 36.25 78.2812 37.1875 80.0938C38.125 81.9062 39 83.9688 39.8125 86.2812C40.625 88.5938 41.4375 90.9375 42.25 93.3125C43.125 95.6875 44.0312 98.0312 44.9688 100.344C45.9062 102.656 46.9375 104.719 48.0625 106.531C49.25 108.344 50.5938 109.812 52.0938 110.938C53.5938 112 55.3125 112.531 57.25 112.531C57.375 112.531 57.5312 112.5 57.7188 112.438C57.9688 112.375 58.1562 112.344 58.2812 112.344C60.0312 110.781 61.5938 108.719 62.9688 106.156C64.4062 103.531 65.7188 100.719 66.9062 97.7188C68.0938 94.7188 69.25 91.625 70.375 88.4375C71.5 85.25 72.6562 82.2812 73.8438 79.5312C75.0938 76.7812 76.375 74.375 77.6875 72.3125C79.0625 70.25 80.625 68.8125 82.375 68L86.4062 72.125C86.9062 72.625 86.9688 73.6562 86.5938 75.2188C86.2812 76.7188 85.6875 78.625 84.8125 80.9375C84 83.1875 82.9688 85.7188 81.7188 88.5312C80.4688 91.2812 79.1562 94.1562 77.7812 97.1562C76.4062 100.156 75.0312 103.156 73.6562 106.156C72.2812 109.094 71.0312 111.875 69.9062 114.5C68.8438 117.125 67.9688 119.469 67.2812 121.531C66.5938 123.594 66.25 125.219 66.25 126.406C66.25 130.156 66.7812 133.781 67.8438 137.281C68.9688 140.781 70.1562 144.281 71.4062 147.781C72.6562 151.219 73.8125 154.688 74.875 158.188C75.9375 161.625 76.4688 165.156 76.4688 168.781C76.4688 169.281 76.4688 169.938 76.4688 170.75C76.4688 171.5 76.3438 172.219 76.0938 172.906C75.9062 173.594 75.5 174.125 74.875 174.5C74.3125 174.875 73.4688 174.906 72.3438 174.594C70.0312 171.219 68 167.406 66.25 163.156C64.5 158.844 63 154.375 61.75 149.75C60.5 145.125 59.5625 140.469 58.9375 135.781C58.375 131.031 58.1562 126.531 58.2812 122.281Z" stroke="#080606" stroke-width="2" mask="url(#path-5-outside-2_7_73)"/>
<path d="M87 136.25C87 135.875 87 135.219 87 134.281C87.0625 133.281 87.0938 132.25 87.0938 131.188C87.0938 130.125 87.0938 129.156 87.0938 128.281C87.1562 127.344 87.1875 126.688 87.1875 126.312C87.625 125.562 88.125 124.844 88.6875 124.156C89.3125 123.406 89.9375 122.906 90.5625 122.656C91.25 122.344 91.9688 122.281 92.7188 122.469C93.5312 122.656 94.3438 123.281 95.1562 124.344V126.312C95.0938 126.625 94.9688 127.375 94.7812 128.562C94.5938 129.688 94.375 130.938 94.125 132.312C93.875 133.688 93.625 134.969 93.375 136.156C93.1875 137.281 93.0938 138 93.0938 138.312C93.0938 139.5 93.2188 141 93.4688 142.812C93.7188 144.562 94.0625 146.406 94.5 148.344C95 150.281 95.5938 152.219 96.2812 154.156C97.0312 156.094 97.9062 157.844 98.9062 159.406C99.9062 160.906 101 162.156 102.188 163.156C103.438 164.156 104.875 164.656 106.5 164.656C108.5 164.656 110.25 164.125 111.75 163.062C113.312 162 114.656 160.625 115.781 158.938C116.906 157.25 117.812 155.344 118.5 153.219C119.25 151.094 119.844 148.969 120.281 146.844C120.719 144.656 121.031 142.562 121.219 140.562C121.406 138.562 121.5 136.812 121.5 135.312C121.5 133.812 121.375 132.406 121.125 131.094C120.938 129.719 120.688 128.375 120.375 127.062C120.062 125.75 119.781 124.469 119.531 123.219C119.344 121.906 119.25 120.594 119.25 119.281C119.25 118.094 119.656 117.25 120.469 116.75C121.344 116.25 122.312 116 123.375 116C124.688 116 125.75 116.406 126.562 117.219C127.375 117.969 128 118.938 128.438 120.125C128.938 121.312 129.25 122.688 129.375 124.25C129.562 125.75 129.656 127.25 129.656 128.75C129.656 130.25 129.625 131.688 129.562 133.062C129.5 134.375 129.469 135.438 129.469 136.25C129.469 138.375 129.312 140.781 129 143.469C128.688 146.156 128.125 148.938 127.312 151.812C126.562 154.625 125.594 157.406 124.406 160.156C123.281 162.906 121.875 165.375 120.188 167.562C118.562 169.688 116.656 171.406 114.469 172.719C112.344 174.031 109.938 174.688 107.25 174.688C104.438 174.688 101.969 174.031 99.8438 172.719C97.7188 171.344 95.9062 169.562 94.4062 167.375C92.9688 165.125 91.75 162.594 90.75 159.781C89.75 156.969 88.9688 154.156 88.4062 151.344C87.9062 148.531 87.5312 145.812 87.2812 143.188C87.0938 140.5 87 138.188 87 136.25Z" stroke="#080606" stroke-width="2" mask="url(#path-5-outside-2_7_73)"/>
<path d="M137 122.051C137 120.148 137.251 118.664 137.754 117.598C138.32 116.533 139.483 116 141.243 116C141.432 116 141.778 116.038 142.281 116.114C142.846 116.114 143.192 116.114 143.318 116.114C143.758 118.474 144.198 121.061 144.638 123.877C145.141 126.617 145.707 129.395 146.335 132.211C146.964 135.027 147.655 137.805 148.41 140.545C149.227 143.285 150.201 145.759 151.333 147.966C152.464 146.52 153.282 144.808 153.785 142.829C154.288 140.85 154.665 138.871 154.916 136.892C155.168 134.837 155.388 132.896 155.576 131.07C155.828 129.167 156.299 127.569 156.991 126.275C157.682 124.905 158.688 123.915 160.008 123.307C161.391 122.698 163.277 122.698 165.666 123.307C168.306 123.307 170.412 123.915 171.984 125.133C173.555 126.275 174.907 127.759 176.038 129.586C177.233 131.336 178.364 133.239 179.433 135.294C180.565 137.273 181.979 139.061 183.676 140.66C184.054 139.67 184.525 138.452 185.091 137.006C185.657 135.484 186.348 133.924 187.165 132.326C188.045 130.651 188.957 129.015 189.9 127.416C190.906 125.742 191.943 124.258 193.012 122.964C194.08 121.594 195.18 120.49 196.312 119.653C197.444 118.74 198.544 118.283 199.612 118.283C202.19 118.283 204.421 119.273 206.307 121.252C208.193 123.154 209.796 125.59 211.116 128.558C212.499 131.45 213.631 134.723 214.511 138.376C215.391 141.953 216.083 145.416 216.586 148.765C217.088 152.114 217.434 155.197 217.623 158.013C217.874 160.753 218 162.732 218 163.949C218 164.939 217.811 165.7 217.434 166.233C217.057 166.765 216.586 167.184 216.02 167.488C215.454 167.717 214.825 167.869 214.134 167.945C213.505 168.021 212.908 168.059 212.342 168.059C212.217 168.059 212.028 168.059 211.776 168.059C211.525 167.983 211.242 167.907 210.928 167.831C210.676 167.755 210.331 167.641 209.891 167.488L203.761 133.353C203.761 133.125 203.51 132.706 203.007 132.097C202.504 131.412 202.127 130.994 201.875 130.841C201.687 130.841 201.53 130.803 201.404 130.727C201.278 130.727 201.184 130.727 201.121 130.727C201.058 130.651 200.995 130.613 200.932 130.613C199.612 130.613 198.355 131.26 197.161 132.554C196.029 133.848 194.96 135.484 193.955 137.463C192.949 139.442 192.006 141.649 191.126 144.085C190.246 146.52 189.46 148.956 188.768 151.391C188.077 153.751 187.448 155.958 186.882 158.013C186.38 159.992 185.971 161.514 185.657 162.579C185.405 162.732 184.902 162.884 184.148 163.036C183.393 163.112 182.891 163.15 182.639 163.15C180.879 163.15 179.527 162.427 178.584 160.981C177.641 159.459 176.856 157.594 176.227 155.387C175.661 153.18 175.158 150.782 174.718 148.195C174.341 145.531 173.838 143.095 173.21 140.888C172.644 138.681 171.827 136.854 170.758 135.408C169.752 133.886 168.306 133.125 166.42 133.125C165.729 133.125 165.069 133.962 164.44 135.636C163.811 137.311 163.246 139.442 162.743 142.03C162.24 144.541 161.768 147.281 161.328 150.249C160.888 153.142 160.511 155.882 160.197 158.469C159.945 160.981 159.757 163.112 159.631 164.863C159.505 166.613 159.442 167.488 159.442 167.488C159.317 167.717 159.065 167.983 158.688 168.288C158.311 168.516 157.902 168.782 157.462 169.087C157.085 169.391 156.676 169.619 156.236 169.772C155.859 169.924 155.576 170 155.388 170C153.627 170 151.93 169.049 150.296 167.146C148.661 165.167 147.153 162.655 145.77 159.611C144.449 156.49 143.224 153.066 142.092 149.336C141.023 145.607 140.112 141.953 139.357 138.376C138.603 134.799 138.006 131.564 137.566 128.672C137.189 125.78 137 123.573 137 122.051Z" stroke="#080606" stroke-width="2" mask="url(#path-5-outside-2_7_73)"/>
<path d="M237.778 161.528L237.77 161.534L237.762 161.541C236.485 162.642 235.337 163.855 234.32 165.179C233.292 166.518 232.675 167.808 232.53 169.046C232.383 170.305 232.754 171.338 233.707 172.026L233.725 172.039L233.744 172.05C234.578 172.546 235.558 172.953 236.679 173.278L236.701 173.284L236.722 173.289C237.925 173.524 239.044 173.703 240.077 173.823L240.1 173.826L240.123 173.826C241.154 173.852 241.832 173.887 242.177 173.927L242.183 173.928L242.19 173.928L242.196 173.929L242.203 173.93L242.209 173.931L242.216 173.931L242.222 173.932L242.229 173.933L242.235 173.934L242.242 173.935L242.248 173.935L242.255 173.936L242.261 173.937L242.267 173.938L242.274 173.938L242.28 173.939L242.287 173.94L242.293 173.941L242.3 173.941L242.306 173.942L242.313 173.943L242.319 173.944L242.326 173.944L242.332 173.945L242.339 173.946L242.345 173.947L242.352 173.947L242.358 173.948L242.364 173.949L242.371 173.95L242.377 173.95L242.384 173.951L242.39 173.952L242.397 173.953L242.403 173.953L242.41 173.954L242.416 173.955L242.422 173.956L242.429 173.956L242.435 173.957L242.442 173.958L242.448 173.959L242.455 173.959L242.461 173.96L242.467 173.961L242.474 173.962L242.48 173.962L242.487 173.963L242.493 173.964L242.499 173.965L242.506 173.965L242.512 173.966L242.519 173.967L242.525 173.968L242.531 173.968L242.538 173.969L242.544 173.97L242.551 173.971L242.557 173.971L242.563 173.972L242.57 173.973L242.576 173.974L242.582 173.974L242.589 173.975L242.595 173.976L242.602 173.977L242.608 173.977L242.614 173.978L242.621 173.979L242.627 173.98L242.633 173.98L242.64 173.981L242.646 173.982L242.652 173.983L242.659 173.983L242.665 173.984L242.672 173.985L242.678 173.985L242.684 173.986L242.691 173.987L242.697 173.988L242.703 173.988L242.71 173.989L242.716 173.99L242.722 173.991L242.729 173.991L242.735 173.992L242.741 173.993L242.748 173.994L242.754 173.994L242.76 173.995L242.766 173.996L242.773 173.997L242.779 173.997L242.785 173.998L242.792 173.999L242.798 174L242.804 174L242.811 174.001L242.817 174.002L242.823 174.002L242.83 174.003L242.836 174.004L242.842 174.005L242.848 174.005L242.855 174.006L242.861 174.007L242.867 174.008L242.874 174.008L242.88 174.009L242.886 174.01L242.892 174.011L242.899 174.011L242.905 174.012L242.911 174.013L242.917 174.013L242.924 174.014L242.93 174.015L242.936 174.016L242.942 174.016L242.949 174.017L242.955 174.018L242.961 174.019L242.967 174.019L242.974 174.02L242.98 174.021L242.986 174.021L242.992 174.022L242.999 174.023L243.005 174.024L243.011 174.024L243.017 174.025L243.024 174.026L243.03 174.027L243.036 174.027L243.042 174.028L243.048 174.029L243.055 174.029L243.061 174.03L243.067 174.031L243.073 174.032L243.08 174.032L243.086 174.033L243.092 174.034L243.098 174.035L243.104 174.035L243.111 174.036L243.117 174.037L243.123 174.037L243.129 174.038L243.135 174.039L243.142 174.04L243.148 174.04L243.154 174.041L243.16 174.042L243.166 174.043L243.172 174.043L243.179 174.044L243.185 174.045L243.191 174.045L243.197 174.046L243.203 174.047L243.209 174.048L243.216 174.048L243.222 174.049L243.228 174.05L243.234 174.05L243.24 174.051L243.246 174.052L243.253 174.053L243.259 174.053L243.265 174.054L243.271 174.055L243.277 174.055L243.283 174.056L243.289 174.057L243.296 174.058L243.302 174.058L243.308 174.059L243.314 174.06L243.32 174.06L243.326 174.061L243.332 174.062L243.338 174.063L243.345 174.063L243.351 174.064L243.357 174.065L243.363 174.065L243.369 174.066L243.375 174.067L243.381 174.068L243.387 174.068L243.393 174.069L243.4 174.07L243.406 174.07L243.412 174.071L243.418 174.072L243.424 174.073L243.43 174.073L243.436 174.074L243.442 174.075L243.448 174.075L243.454 174.076L243.46 174.077L243.467 174.078L243.473 174.078L243.479 174.079L243.485 174.08L243.491 174.08L243.497 174.081L243.503 174.082L243.509 174.083L243.515 174.083L243.521 174.084L243.527 174.085L243.533 174.085L243.539 174.086L243.545 174.087L243.551 174.087L243.557 174.088L243.563 174.089L243.569 174.09L243.576 174.09L243.582 174.091L243.588 174.092L243.594 174.092L243.6 174.093L243.606 174.094L243.612 174.095L243.618 174.095L243.624 174.096L243.63 174.097L243.636 174.097L243.642 174.098L243.648 174.099L243.654 174.099L243.66 174.1L243.666 174.101L243.672 174.102L243.678 174.102L243.684 174.103L243.69 174.104L243.696 174.104L243.702 174.105L243.708 174.106L243.714 174.106L243.72 174.107L243.726 174.108L243.732 174.109L243.738 174.109L243.744 174.11L243.75 174.111L243.756 174.111L243.762 174.112L243.768 174.113L243.774 174.113L243.78 174.114L243.786 174.115L243.791 174.116L243.797 174.116L243.803 174.117L243.809 174.118L243.815 174.118L243.821 174.119L243.827 174.12L243.833 174.12L243.839 174.121L243.845 174.122L243.851 174.122L243.857 174.123L243.863 174.124L243.869 174.125L243.875 174.125L243.881 174.126L243.887 174.127L243.893 174.127L243.898 174.128L243.904 174.129L243.91 174.129L243.916 174.13L243.922 174.131L243.928 174.131L243.934 174.132L243.94 174.133L243.946 174.134L243.952 174.134L243.958 174.135L243.963 174.136L243.969 174.136L243.975 174.137L243.981 174.138L243.987 174.138L243.993 174.139L243.999 174.14L244.005 174.14L244.011 174.141L244.016 174.142L244.022 174.142L244.028 174.143L244.034 174.144L244.04 174.145L244.046 174.145L244.052 174.146L244.058 174.147L244.063 174.147L244.069 174.148L244.075 174.149L244.081 174.149L244.087 174.15L244.093 174.151L244.099 174.151L244.104 174.152L244.11 174.153L244.116 174.153L244.122 174.154L244.128 174.155L244.134 174.155L244.139 174.156L244.145 174.157L244.151 174.158L244.157 174.158L244.163 174.159L244.169 174.16L244.174 174.16L244.18 174.161L244.186 174.162L244.192 174.162L244.198 174.163L244.204 174.164L244.209 174.164L244.215 174.165L244.221 174.166L244.227 174.166L244.233 174.167L244.238 174.168L244.244 174.168L244.25 174.169L244.256 174.17L244.262 174.17L244.267 174.171L244.273 174.172L244.279 174.172L244.285 174.173L244.291 174.174L244.296 174.174L244.302 174.175L244.308 174.176L244.314 174.176L244.319 174.177L244.325 174.178L244.331 174.178L244.337 174.179L244.342 174.18L244.348 174.181L244.354 174.181L244.36 174.182L244.365 174.183L244.371 174.183L244.377 174.184L244.383 174.185L244.388 174.185L244.394 174.186L244.4 174.187L244.406 174.187L244.411 174.188L244.417 174.189L244.423 174.189L244.429 174.19L244.434 174.191L244.44 174.191L244.446 174.192L244.452 174.193L244.457 174.193L244.463 174.194L244.469 174.195L244.474 174.195L244.48 174.196L244.486 174.197L244.492 174.197L244.497 174.198L244.503 174.199L244.509 174.199L244.514 174.2L244.52 174.201L244.526 174.201L244.531 174.202L244.537 174.203L244.543 174.203L244.549 174.204L244.554 174.205L244.56 174.205L244.566 174.206L244.571 174.207L244.577 174.207L244.583 174.208L244.588 174.209L244.594 174.209L244.6 174.21L244.605 174.211L244.611 174.211L244.617 174.212L244.622 174.213L244.628 174.213L244.634 174.214L244.639 174.214L244.645 174.215L244.65 174.216L244.656 174.216L244.662 174.217L244.667 174.218L244.673 174.218L244.679 174.219L244.684 174.22L244.69 174.22L244.696 174.221L244.701 174.222L244.707 174.222L244.712 174.223L244.718 174.224L244.724 174.224L244.729 174.225L244.735 174.226L244.741 174.226L244.746 174.227L244.752 174.228L244.757 174.228L244.763 174.229L244.769 174.23L244.774 174.23L244.78 174.231L244.785 174.232L244.791 174.232L244.797 174.233L244.802 174.234L244.808 174.234L244.813 174.235L244.819 174.235L244.825 174.236L244.83 174.237L244.836 174.237L244.841 174.238L244.847 174.239L244.852 174.239L244.858 174.24L244.864 174.241L244.869 174.241L244.875 174.242L244.88 174.243L244.886 174.243L244.891 174.244L244.897 174.245L244.902 174.245L244.908 174.246L244.914 174.247L244.919 174.247L244.925 174.248L244.93 174.248L244.936 174.249L244.941 174.25L244.947 174.25L244.952 174.251L244.958 174.252L244.963 174.252L244.969 174.253L244.974 174.254L244.98 174.254L244.986 174.255L244.991 174.256L244.997 174.256L245.002 174.257L245.008 174.258L245.013 174.258L245.019 174.259L245.024 174.259L245.03 174.26L245.035 174.261L245.041 174.261L245.046 174.262L245.052 174.263L245.057 174.263L245.063 174.264L245.068 174.265L245.074 174.265L245.079 174.266L245.085 174.266L245.09 174.267L245.095 174.268L245.101 174.268L245.106 174.269L245.112 174.27L245.117 174.27L245.123 174.271L245.128 174.272L245.134 174.272L245.139 174.273L245.145 174.274L245.15 174.274L245.156 174.275L245.161 174.275L245.167 174.276L245.172 174.277L245.177 174.277L245.183 174.278L245.188 174.279L245.194 174.279L245.199 174.28L245.205 174.281L245.21 174.281L245.215 174.282L245.221 174.282L245.226 174.283L245.232 174.284C246.294 174.408 247.252 174.372 248.098 174.162L248.124 174.156L248.148 174.147C249.041 173.822 249.791 173.217 250.401 172.366L250.407 172.357L250.413 172.348C251.047 171.377 251.448 169.966 251.658 168.169C251.668 168.082 251.659 167.996 251.652 167.941C251.643 167.875 251.63 167.802 251.614 167.723C251.581 167.567 251.532 167.367 251.468 167.126C251.34 166.519 251.127 165.864 250.831 165.162C250.627 164.477 250.372 163.829 250.066 163.22C249.867 162.553 249.684 162.039 249.513 161.703L249.503 161.683L249.492 161.665C249.156 161.125 248.609 160.433 247.867 159.595C247.549 159.14 247.278 158.781 247.057 158.529C246.945 158.401 246.836 158.289 246.731 158.203C246.647 158.133 246.49 158.015 246.29 157.991C244.97 157.837 243.531 158.134 241.99 158.834L241.983 158.837L241.976 158.84C240.547 159.543 239.147 160.44 237.778 161.528ZM232.634 104.663L232.634 104.663L232.631 104.669C230.96 107.465 229.926 110.572 229.528 113.985C229.363 115.401 229.27 117.011 229.249 118.812C229.227 120.646 229.454 122.415 229.931 124.119L229.936 124.137L229.942 124.154C230.529 125.784 231.379 127.252 232.492 128.555L232.499 128.563L232.507 128.571C233.693 129.844 235.376 130.581 237.496 130.828C237.898 130.875 238.423 130.747 239.01 130.534C239.688 130.331 240.323 130.123 240.913 129.908C241.597 129.704 242.236 129.493 242.83 129.277L242.859 129.266L242.887 129.252C243.498 128.939 243.981 128.62 244.266 128.284L244.41 128.113L244.379 127.891C243.871 124.286 243.868 121.185 244.355 118.578L244.356 118.577C244.858 115.855 245.702 113.364 246.885 111.103C248.081 108.817 249.449 106.645 250.99 104.586C252.552 102.5 254.072 100.361 255.552 98.1706L255.552 98.1706L255.556 98.164C257.056 95.8648 258.385 93.4044 259.543 90.7834C260.819 88.0487 261.652 84.9832 262.048 81.5921C262.374 78.8062 261.969 76.0367 260.843 73.291C259.728 70.5698 258.202 68.0881 256.267 65.8475C254.339 63.5092 252.032 61.5593 249.349 59.9985C246.753 58.4459 244.119 57.507 241.449 57.1952C237.688 56.7561 234.209 57.0198 231.021 57.9977C227.942 58.8915 225.267 60.3663 223.003 62.4239C220.745 64.4769 218.916 67.0093 217.514 70.0132L217.514 70.0131L217.509 70.0257C216.203 73.0362 215.338 76.3777 214.91 80.0462L214.852 80.5428L215.348 80.6008C215.68 80.6396 216.388 80.6174 217.411 80.5515C217.984 80.5229 218.455 80.4802 218.816 80.4207C218.997 80.391 219.16 80.3554 219.3 80.3117C219.424 80.2729 219.563 80.2175 219.681 80.1297C220.928 79.3105 222.193 78.2609 223.478 76.9857C224.829 75.7458 226.215 74.6038 227.634 73.5594L227.642 73.5539L227.649 73.5481C229.067 72.4216 230.552 71.4895 232.104 70.7502C233.706 70.0411 235.335 69.7872 236.999 69.9816C238.138 70.1146 239.306 70.4737 240.503 71.068C241.696 71.6599 242.73 72.4124 243.609 73.325L243.619 73.3352L243.63 73.3449C244.509 74.1595 245.194 75.1292 245.685 76.2586L245.695 76.2817L245.707 76.3036C246.279 77.3254 246.495 78.379 246.367 79.4783C245.984 82.7544 244.945 85.7645 243.248 88.5142L243.248 88.5142L243.244 88.5202C241.619 91.238 239.861 93.8936 237.971 96.4871L237.97 96.487L237.963 96.4975C236.151 99.1212 234.375 101.843 232.634 104.663Z" fill="#080606" stroke="#080606"/>
</svg>
